<svg xmlns="http://www.w3.org/2000/svg" width="1440" height="960" class="svglite" viewBox="0 0 1080 720">
  <defs>
    <style>
      <![CDATA[.svglite line,.svglite polyline,.svglite polygon,.svglite path,.svglite circle{fill:none;stroke:#000000;stroke-linecap:round;stroke-linejoin:round;stroke-miterlimit:10.00}.svglite text{white-space:pre}]]>
    </style>
  </defs>
  <rect width="100%" height="100%" style="stroke-linecap:round;stroke-linejoin:round;stroke-miterlimit:10.00;stroke:none;fill:#FFFFFF"/>
  <defs>
    <clipPath id="cpMC4wMHwxMDgwLjAwfDAuMDB8NzIwLjAw">
      <path d="M0 0h1080v720H0z"/>
    </clipPath>
  </defs>
  <g clip-path="url(#cpMC4wMHwxMDgwLjAwfDAuMDB8NzIwLjAw)">
    <path d="M0 0h1080v720H0z" style="stroke-width:1.07;stroke:#FFFFFF;fill:#FFFFFF"/>
  </g>
  <defs>
    <clipPath id="cpMzkuOTJ8MTA1MS42NXwzNi41MHw2OTAuOTE=">
      <path d="M39.92 36.5h1011.74v654.42H39.92z"/>
    </clipPath>
  </defs>
  <g clip-path="url(#cpMzkuOTJ8MTA1MS42NXwzNi41MHw2OTAuOTE=)">
    <path d="M39.92 36.5h1011.74v654.42H39.92z" style="stroke-width:1.07;stroke:none;fill:#EBEBEB"/>
    <path d="M39.92 589.88h1011.73M39.92 331.27h1011.73M39.92 72.66h1011.73M185.88 690.91V36.5m199.95 654.41V36.5m199.95 654.41V36.5m199.94 654.41V36.5m199.95 654.41V36.5" style="stroke-width:0.53;stroke:#FFFFFF;stroke-linecap:butt"/>
    <path d="M39.92 460.57h1011.73M39.92 201.96h1011.73M85.91 690.91V36.5m199.94 654.41V36.5M485.8 690.91V36.5m199.95 654.41V36.5M885.7 690.91V36.5" style="stroke-width:1.07;stroke:#FFFFFF;stroke-linecap:butt"/>
    <circle cx="85.91" cy="466.6" r="1.95" style="stroke-width:0.71;stroke:#377EB8;stroke-opacity:0.70;fill:#377EB8;fill-opacity:0.70"/>
    <circle cx="85.91" cy="465.54" r="1.95" style="stroke-width:0.71;stroke:#4DAF4A;stroke-opacity:0.70;fill:#4DAF4A;fill-opacity:0.70"/>
    <circle cx="85.91" cy="465.28" r="1.95" style="stroke-width:0.71;stroke:#FF7F00;stroke-opacity:0.70;fill:#FF7F00;fill-opacity:0.70"/>
    <circle cx="85.91" cy="467.11" r="1.95" style="stroke-width:0.71;stroke:#984EA3;stroke-opacity:0.70;fill:#984EA3;fill-opacity:0.70"/>
    <circle cx="85.91" cy="536.81" r="1.95" style="stroke-width:0.71;stroke:#E41A1C;stroke-opacity:0.70;fill:#E41A1C;fill-opacity:0.70"/>
    <circle cx="93.9" cy="458.71" r="1.95" style="stroke-width:0.71;stroke:#377EB8;stroke-opacity:0.70;fill:#377EB8;fill-opacity:0.70"/>
    <circle cx="93.9" cy="458.33" r="1.95" style="stroke-width:0.71;stroke:#4DAF4A;stroke-opacity:0.70;fill:#4DAF4A;fill-opacity:0.70"/>
    <circle cx="93.9" cy="458.45" r="1.95" style="stroke-width:0.71;stroke:#FF7F00;stroke-opacity:0.70;fill:#FF7F00;fill-opacity:0.70"/>
    <circle cx="93.9" cy="459.14" r="1.95" style="stroke-width:0.71;stroke:#984EA3;stroke-opacity:0.70;fill:#984EA3;fill-opacity:0.70"/>
    <circle cx="93.9" cy="517.08" r="1.95" style="stroke-width:0.71;stroke:#E41A1C;stroke-opacity:0.70;fill:#E41A1C;fill-opacity:0.70"/>
    <circle cx="109.9" cy="279.03" r="1.95" style="stroke-width:0.71;stroke:#377EB8;stroke-opacity:0.70;fill:#377EB8;fill-opacity:0.70"/>
    <circle cx="109.9" cy="277.9" r="1.95" style="stroke-width:0.71;stroke:#4DAF4A;stroke-opacity:0.70;fill:#4DAF4A;fill-opacity:0.70"/>
    <circle cx="109.9" cy="269.92" r="1.95" style="stroke-width:0.71;stroke:#FF7F00;stroke-opacity:0.70;fill:#FF7F00;fill-opacity:0.70"/>
    <circle cx="109.9" cy="271.17" r="1.95" style="stroke-width:0.71;stroke:#984EA3;stroke-opacity:0.70;fill:#984EA3;fill-opacity:0.70"/>
    <circle cx="109.9" cy="534.9" r="1.95" style="stroke-width:0.71;stroke:#E41A1C;stroke-opacity:0.70;fill:#E41A1C;fill-opacity:0.70"/>
    <circle cx="137.89" cy="293.67" r="1.95" style="stroke-width:0.71;stroke:#377EB8;stroke-opacity:0.70;fill:#377EB8;fill-opacity:0.70"/>
    <circle cx="137.89" cy="287.2" r="1.95" style="stroke-width:0.71;stroke:#4DAF4A;stroke-opacity:0.70;fill:#4DAF4A;fill-opacity:0.70"/>
    <circle cx="137.89" cy="288.73" r="1.95" style="stroke-width:0.71;stroke:#FF7F00;stroke-opacity:0.70;fill:#FF7F00;fill-opacity:0.70"/>
    <circle cx="137.89" cy="294.54" r="1.95" style="stroke-width:0.71;stroke:#984EA3;stroke-opacity:0.70;fill:#984EA3;fill-opacity:0.70"/>
    <circle cx="137.89" cy="526.07" r="1.95" style="stroke-width:0.71;stroke:#E41A1C;stroke-opacity:0.70;fill:#E41A1C;fill-opacity:0.70"/>
    <circle cx="185.88" cy="447.17" r="1.95" style="stroke-width:0.71;stroke:#377EB8;stroke-opacity:0.70;fill:#377EB8;fill-opacity:0.70"/>
    <circle cx="185.88" cy="452.18" r="1.95" style="stroke-width:0.71;stroke:#4DAF4A;stroke-opacity:0.70;fill:#4DAF4A;fill-opacity:0.70"/>
    <circle cx="185.88" cy="445.81" r="1.95" style="stroke-width:0.71;stroke:#FF7F00;stroke-opacity:0.70;fill:#FF7F00;fill-opacity:0.70"/>
    <circle cx="185.88" cy="447.59" r="1.95" style="stroke-width:0.71;stroke:#984EA3;stroke-opacity:0.70;fill:#984EA3;fill-opacity:0.70"/>
    <circle cx="185.88" cy="479.47" r="1.95" style="stroke-width:0.71;stroke:#E41A1C;stroke-opacity:0.70;fill:#E41A1C;fill-opacity:0.70"/>
    <circle cx="285.85" cy="421.86" r="1.95" style="stroke-width:0.71;stroke:#377EB8;stroke-opacity:0.70;fill:#377EB8;fill-opacity:0.70"/>
    <circle cx="285.85" cy="427.48" r="1.95" style="stroke-width:0.71;stroke:#4DAF4A;stroke-opacity:0.70;fill:#4DAF4A;fill-opacity:0.70"/>
    <circle cx="285.85" cy="425.92" r="1.95" style="stroke-width:0.71;stroke:#FF7F00;stroke-opacity:0.70;fill:#FF7F00;fill-opacity:0.70"/>
    <circle cx="285.85" cy="423.63" r="1.95" style="stroke-width:0.71;stroke:#984EA3;stroke-opacity:0.70;fill:#984EA3;fill-opacity:0.70"/>
    <circle cx="285.85" cy="438.11" r="1.95" style="stroke-width:0.71;stroke:#E41A1C;stroke-opacity:0.70;fill:#E41A1C;fill-opacity:0.70"/>
    <circle cx="405.82" cy="408.13" r="1.95" style="stroke-width:0.71;stroke:#377EB8;stroke-opacity:0.70;fill:#377EB8;fill-opacity:0.70"/>
    <circle cx="405.82" cy="405.81" r="1.95" style="stroke-width:0.71;stroke:#4DAF4A;stroke-opacity:0.70;fill:#4DAF4A;fill-opacity:0.70"/>
    <circle cx="405.82" cy="404.99" r="1.95" style="stroke-width:0.71;stroke:#FF7F00;stroke-opacity:0.70;fill:#FF7F00;fill-opacity:0.70"/>
    <circle cx="405.82" cy="405.63" r="1.95" style="stroke-width:0.71;stroke:#984EA3;stroke-opacity:0.70;fill:#984EA3;fill-opacity:0.70"/>
    <circle cx="405.82" cy="394.85" r="1.95" style="stroke-width:0.71;stroke:#E41A1C;stroke-opacity:0.70;fill:#E41A1C;fill-opacity:0.70"/>
    <circle cx="537.79" cy="383.74" r="1.95" style="stroke-width:0.71;stroke:#377EB8;stroke-opacity:0.70;fill:#377EB8;fill-opacity:0.70"/>
    <circle cx="537.79" cy="386.19" r="1.95" style="stroke-width:0.71;stroke:#4DAF4A;stroke-opacity:0.70;fill:#4DAF4A;fill-opacity:0.70"/>
    <circle cx="537.79" cy="385.71" r="1.95" style="stroke-width:0.71;stroke:#FF7F00;stroke-opacity:0.70;fill:#FF7F00;fill-opacity:0.70"/>
    <circle cx="537.79" cy="384.49" r="1.95" style="stroke-width:0.71;stroke:#984EA3;stroke-opacity:0.70;fill:#984EA3;fill-opacity:0.70"/>
    <circle cx="537.79" cy="359.98" r="1.95" style="stroke-width:0.71;stroke:#E41A1C;stroke-opacity:0.70;fill:#E41A1C;fill-opacity:0.70"/>
    <circle cx="625.76" cy="242.96" r="1.95" style="stroke-width:0.71;stroke:#377EB8;stroke-opacity:0.70;fill:#377EB8;fill-opacity:0.70"/>
    <circle cx="625.76" cy="244.7" r="1.95" style="stroke-width:0.71;stroke:#4DAF4A;stroke-opacity:0.70;fill:#4DAF4A;fill-opacity:0.70"/>
    <circle cx="625.76" cy="243.42" r="1.95" style="stroke-width:0.71;stroke:#FF7F00;stroke-opacity:0.70;fill:#FF7F00;fill-opacity:0.70"/>
    <circle cx="625.76" cy="242.78" r="1.95" style="stroke-width:0.71;stroke:#984EA3;stroke-opacity:0.70;fill:#984EA3;fill-opacity:0.70"/>
    <circle cx="625.76" cy="223.43" r="1.95" style="stroke-width:0.71;stroke:#E41A1C;stroke-opacity:0.70;fill:#E41A1C;fill-opacity:0.70"/>
    <circle cx="685.75" cy="243.16" r="1.95" style="stroke-width:0.71;stroke:#377EB8;stroke-opacity:0.70;fill:#377EB8;fill-opacity:0.70"/>
    <circle cx="685.75" cy="249.31" r="1.95" style="stroke-width:0.71;stroke:#4DAF4A;stroke-opacity:0.70;fill:#4DAF4A;fill-opacity:0.70"/>
    <circle cx="685.75" cy="242.58" r="1.95" style="stroke-width:0.71;stroke:#FF7F00;stroke-opacity:0.70;fill:#FF7F00;fill-opacity:0.70"/>
    <circle cx="685.75" cy="246.31" r="1.95" style="stroke-width:0.71;stroke:#984EA3;stroke-opacity:0.70;fill:#984EA3;fill-opacity:0.70"/>
    <circle cx="685.75" cy="219.24" r="1.95" style="stroke-width:0.71;stroke:#E41A1C;stroke-opacity:0.70;fill:#E41A1C;fill-opacity:0.70"/>
    <circle cx="745.73" cy="188.43" r="1.95" style="stroke-width:0.71;stroke:#377EB8;stroke-opacity:0.70;fill:#377EB8;fill-opacity:0.70"/>
    <circle cx="745.73" cy="190.09" r="1.95" style="stroke-width:0.71;stroke:#4DAF4A;stroke-opacity:0.70;fill:#4DAF4A;fill-opacity:0.70"/>
    <circle cx="745.73" cy="207" r="1.95" style="stroke-width:0.71;stroke:#FF7F00;stroke-opacity:0.70;fill:#FF7F00;fill-opacity:0.70"/>
    <circle cx="745.73" cy="204.65" r="1.95" style="stroke-width:0.71;stroke:#984EA3;stroke-opacity:0.70;fill:#984EA3;fill-opacity:0.70"/>
    <circle cx="745.73" cy="165.14" r="1.95" style="stroke-width:0.71;stroke:#E41A1C;stroke-opacity:0.70;fill:#E41A1C;fill-opacity:0.70"/>
    <circle cx="825.71" cy="189.25" r="1.95" style="stroke-width:0.71;stroke:#377EB8;stroke-opacity:0.70;fill:#377EB8;fill-opacity:0.70"/>
    <circle cx="825.71" cy="189.32" r="1.95" style="stroke-width:0.71;stroke:#4DAF4A;stroke-opacity:0.70;fill:#4DAF4A;fill-opacity:0.70"/>
    <circle cx="825.71" cy="200.78" r="1.95" style="stroke-width:0.71;stroke:#FF7F00;stroke-opacity:0.70;fill:#FF7F00;fill-opacity:0.70"/>
    <circle cx="825.71" cy="202.39" r="1.95" style="stroke-width:0.71;stroke:#984EA3;stroke-opacity:0.70;fill:#984EA3;fill-opacity:0.70"/>
    <circle cx="825.71" cy="161.84" r="1.95" style="stroke-width:0.71;stroke:#E41A1C;stroke-opacity:0.70;fill:#E41A1C;fill-opacity:0.70"/>
    <circle cx="885.7" cy="162.09" r="1.95" style="stroke-width:0.71;stroke:#377EB8;stroke-opacity:0.70;fill:#377EB8;fill-opacity:0.70"/>
    <circle cx="885.7" cy="162.03" r="1.95" style="stroke-width:0.71;stroke:#4DAF4A;stroke-opacity:0.70;fill:#4DAF4A;fill-opacity:0.70"/>
    <circle cx="885.7" cy="151.56" r="1.95" style="stroke-width:0.71;stroke:#FF7F00;stroke-opacity:0.70;fill:#FF7F00;fill-opacity:0.70"/>
    <circle cx="885.7" cy="154.66" r="1.95" style="stroke-width:0.71;stroke:#984EA3;stroke-opacity:0.70;fill:#984EA3;fill-opacity:0.70"/>
    <circle cx="885.7" cy="105.36" r="1.95" style="stroke-width:0.71;stroke:#E41A1C;stroke-opacity:0.70;fill:#E41A1C;fill-opacity:0.70"/>
    <circle cx="945.68" cy="153.27" r="1.95" style="stroke-width:0.71;stroke:#377EB8;stroke-opacity:0.70;fill:#377EB8;fill-opacity:0.70"/>
    <circle cx="945.68" cy="151.81" r="1.95" style="stroke-width:0.71;stroke:#4DAF4A;stroke-opacity:0.70;fill:#4DAF4A;fill-opacity:0.70"/>
    <circle cx="945.68" cy="150.04" r="1.95" style="stroke-width:0.71;stroke:#FF7F00;stroke-opacity:0.70;fill:#FF7F00;fill-opacity:0.70"/>
    <circle cx="945.68" cy="145.65" r="1.95" style="stroke-width:0.71;stroke:#984EA3;stroke-opacity:0.70;fill:#984EA3;fill-opacity:0.70"/>
    <circle cx="945.68" cy="106.7" r="1.95" style="stroke-width:0.71;stroke:#E41A1C;stroke-opacity:0.70;fill:#E41A1C;fill-opacity:0.70"/>
    <circle cx="1005.67" cy="130.8" r="1.95" style="stroke-width:0.71;stroke:#377EB8;stroke-opacity:0.70;fill:#377EB8;fill-opacity:0.70"/>
    <circle cx="1005.67" cy="129.81" r="1.95" style="stroke-width:0.71;stroke:#4DAF4A;stroke-opacity:0.70;fill:#4DAF4A;fill-opacity:0.70"/>
    <circle cx="1005.67" cy="126.02" r="1.95" style="stroke-width:0.71;stroke:#FF7F00;stroke-opacity:0.70;fill:#FF7F00;fill-opacity:0.70"/>
    <circle cx="1005.67" cy="129.57" r="1.95" style="stroke-width:0.71;stroke:#984EA3;stroke-opacity:0.70;fill:#984EA3;fill-opacity:0.70"/>
    <circle cx="1005.67" cy="66.24" r="1.95" style="stroke-width:0.71;stroke:#E41A1C;stroke-opacity:0.70;fill:#E41A1C;fill-opacity:0.70"/>
    <path d="m85.91 536.81 7.99-19.73 16 17.82 27.99-8.83 47.99-46.6 99.97-41.36 119.97-43.26 131.97-34.87 87.97-136.55 59.99-4.19 59.98-54.1 79.98-3.3 59.99-56.48 59.98 1.34 59.99-40.46" style="stroke-width:1.07;stroke:#E41A1C;stroke-opacity:0.30;stroke-linecap:butt"/>
    <path d="m85.91 466.6 7.99-7.89 16-179.68 27.99 14.64 47.99 153.5 99.97-25.31 119.97-13.73 131.97-24.39 87.97-140.78 59.99.2 59.98-54.73 79.98.82 59.99-27.16 59.98-8.82 59.99-22.47" style="stroke-width:1.07;stroke:#377EB8;stroke-opacity:0.30;stroke-linecap:butt"/>
    <path d="m85.91 465.54 7.99-7.21 16-180.43 27.99 9.3 47.99 164.98 99.97-24.7 119.97-21.67 131.97-19.62 87.97-141.49 59.99 4.61 59.98-59.22 79.98-.77 59.99-27.29 59.98-10.22 59.99-22" style="stroke-width:1.07;stroke:#4DAF4A;stroke-opacity:0.30;stroke-linecap:butt"/>
    <path d="m85.91 467.11 7.99-7.97 16-187.97 27.99 23.37 47.99 153.05 99.97-23.96 119.97-18 131.97-21.14 87.97-141.71 59.99 3.53 59.98-41.66 79.98-2.26 59.99-47.73 59.98-9.01 59.99-16.08" style="stroke-width:1.07;stroke:#984EA3;stroke-opacity:0.30;stroke-linecap:butt"/>
    <path d="m85.91 465.28 7.99-6.83 16-188.53 27.99 18.81 47.99 157.08 99.97-19.89 119.97-20.93 131.97-19.28 87.97-142.29 59.99-.84L745.73 207l79.98-6.22 59.99-49.22 59.98-1.52 59.99-24.02" style="stroke-width:1.07;stroke:#FF7F00;stroke-opacity:0.30;stroke-linecap:butt"/>
  </g>
  <g clip-path="url(#cpMC4wMHwxMDgwLjAwfDAuMDB8NzIwLjAw)">
    <text x="34.99" y="463.73" lengthAdjust="spacingAndGlyphs" style="font-size:8.80px;fill:#4D4D4D;font-family:&quot;Arial&quot;" text-anchor="end" textLength="19.09">10ns</text>
    <text x="34.99" y="205.12" lengthAdjust="spacingAndGlyphs" style="font-size:8.80px;fill:#4D4D4D;font-family:&quot;Arial&quot;" text-anchor="end" textLength="19.09">20ns</text>
    <path d="M37.18 460.57h2.74m-2.74-258.61h2.74m45.99 491.69v-2.74m199.94 2.74v-2.74m199.95 2.74v-2.74m199.95 2.74v-2.74m199.95 2.74v-2.74" style="stroke-width:1.07;stroke:#333333;stroke-linecap:butt"/>
    <text x="85.91" y="702.15" lengthAdjust="spacingAndGlyphs" style="font-size:8.80px;fill:#4D4D4D;font-family:&quot;Arial&quot;" text-anchor="middle" textLength="13.2">0 B</text>
    <text x="285.85" y="702.15" lengthAdjust="spacingAndGlyphs" style="font-size:8.80px;fill:#4D4D4D;font-family:&quot;Arial&quot;" text-anchor="middle" textLength="18.1">50 B</text>
    <text x="485.8" y="702.15" lengthAdjust="spacingAndGlyphs" style="font-size:8.80px;fill:#4D4D4D;font-family:&quot;Arial&quot;" text-anchor="middle" textLength="23">100 B</text>
    <text x="685.75" y="702.15" lengthAdjust="spacingAndGlyphs" style="font-size:8.80px;fill:#4D4D4D;font-family:&quot;Arial&quot;" text-anchor="middle" textLength="23">150 B</text>
    <text x="885.7" y="702.15" lengthAdjust="spacingAndGlyphs" style="font-size:8.80px;fill:#4D4D4D;font-family:&quot;Arial&quot;" text-anchor="middle" textLength="23">200 B</text>
    <text x="545.79" y="714.73" lengthAdjust="spacingAndGlyphs" style="font-size:11.00px;font-family:&quot;Arial&quot;" text-anchor="middle" textLength="21.4">Size</text>
    <text lengthAdjust="spacingAndGlyphs" style="font-size:11.00px;font-family:&quot;Arial&quot;" text-anchor="middle" textLength="24.44" transform="rotate(-90 187.215 176.485)">Time</text>
    <path d="M806.22 503.45h86.17v113.16h-86.17z" style="stroke-width:1.07;stroke:none;fill:#FFFFFF"/>
    <text x="811.7" y="518.03" lengthAdjust="spacingAndGlyphs" style="font-size:11.00px;font-family:&quot;Arial&quot;" textLength="75.21">Implementation</text>
    <path d="M811.7 524.73h17.28v17.28H811.7z" style="stroke-width:1.07;stroke:none;fill:#EBEBEB"/>
    <circle cx="820.34" cy="533.37" r="1.95" style="stroke-width:0.71;stroke:#E41A1C;stroke-opacity:0.70;fill:#E41A1C;fill-opacity:0.70"/>
    <path d="M813.43 533.37h13.82" style="stroke-width:1.07;stroke:#E41A1C;stroke-opacity:0.30;stroke-linecap:butt"/>
    <path d="M811.7 542.01h17.28v17.28H811.7z" style="stroke-width:1.07;stroke:none;fill:#EBEBEB"/>
    <circle cx="820.34" cy="550.65" r="1.95" style="stroke-width:0.71;stroke:#377EB8;stroke-opacity:0.70;fill:#377EB8;fill-opacity:0.70"/>
    <path d="M813.43 550.65h13.82" style="stroke-width:1.07;stroke:#377EB8;stroke-opacity:0.30;stroke-linecap:butt"/>
    <path d="M811.7 559.29h17.28v17.28H811.7z" style="stroke-width:1.07;stroke:none;fill:#EBEBEB"/>
    <circle cx="820.34" cy="567.93" r="1.95" style="stroke-width:0.71;stroke:#4DAF4A;stroke-opacity:0.70;fill:#4DAF4A;fill-opacity:0.70"/>
    <path d="M813.43 567.93h13.82" style="stroke-width:1.07;stroke:#4DAF4A;stroke-opacity:0.30;stroke-linecap:butt"/>
    <path d="M811.7 576.57h17.28v17.28H811.7z" style="stroke-width:1.07;stroke:none;fill:#EBEBEB"/>
    <circle cx="820.34" cy="585.21" r="1.95" style="stroke-width:0.71;stroke:#984EA3;stroke-opacity:0.70;fill:#984EA3;fill-opacity:0.70"/>
    <path d="M813.43 585.21h13.82" style="stroke-width:1.07;stroke:#984EA3;stroke-opacity:0.30;stroke-linecap:butt"/>
    <path d="M811.7 593.85h17.28v17.28H811.7z" style="stroke-width:1.07;stroke:none;fill:#EBEBEB"/>
    <circle cx="820.34" cy="602.49" r="1.95" style="stroke-width:0.71;stroke:#FF7F00;stroke-opacity:0.70;fill:#FF7F00;fill-opacity:0.70"/>
    <path d="M813.43 602.49h13.82" style="stroke-width:1.07;stroke:#FF7F00;stroke-opacity:0.30;stroke-linecap:butt"/>
    <text x="834.46" y="536.52" lengthAdjust="spacingAndGlyphs" style="font-size:8.80px;font-family:&quot;Arial&quot;" textLength="18.09">Rust</text>
    <text x="834.46" y="553.8" lengthAdjust="spacingAndGlyphs" style="font-size:8.80px;font-family:&quot;Arial&quot;" textLength="6.35">C</text>
    <text x="834.46" y="571.08" lengthAdjust="spacingAndGlyphs" style="font-size:8.80px;font-family:&quot;Arial&quot;" textLength="38.12">C (scalar)</text>
    <text x="834.46" y="588.36" lengthAdjust="spacingAndGlyphs" style="font-size:8.80px;font-family:&quot;Arial&quot;" textLength="37.15">C (SSE2)</text>
    <text x="834.46" y="605.64" lengthAdjust="spacingAndGlyphs" style="font-size:8.80px;font-family:&quot;Arial&quot;" textLength="37.15">C (AVX2)</text>
    <text x="39.92" y="28.58" lengthAdjust="spacingAndGlyphs" style="font-size:11.00px;font-family:&quot;Arial&quot;" textLength="149.21">x86_64 (AMD Ryzen 9 3950X)</text>
    <text x="39.92" y="12.3" lengthAdjust="spacingAndGlyphs" style="font-size:13.20px;font-family:&quot;Arial&quot;" textLength="370.99">[xxhash3_128] Hashing small amounts of bytes (lower is better)</text>
  </g>
</svg>
