<svg xmlns="http://www.w3.org/2000/svg" width="1440" height="960" class="svglite" viewBox="0 0 1080 720">
  <defs>
    <style>
      <![CDATA[.svglite line,.svglite polyline,.svglite polygon,.svglite path,.svglite circle{fill:none;stroke:#000000;stroke-linecap:round;stroke-linejoin:round;stroke-miterlimit:10.00}.svglite text{white-space:pre}]]>
    </style>
  </defs>
  <rect width="100%" height="100%" style="stroke-linecap:round;stroke-linejoin:round;stroke-miterlimit:10.00;stroke:none;fill:#FFFFFF"/>
  <defs>
    <clipPath id="cpMC4wMHwxMDgwLjAwfDAuMDB8NzIwLjAw">
      <path d="M0 0h1080v720H0z"/>
    </clipPath>
  </defs>
  <g clip-path="url(#cpMC4wMHwxMDgwLjAwfDAuMDB8NzIwLjAw)">
    <path d="M0 0h1080v720H0z" style="stroke-width:1.07;stroke:#FFFFFF;fill:#FFFFFF"/>
  </g>
  <defs>
    <clipPath id="cpMzkuOTJ8MTA1MS42NXwzNi41MHw2OTAuOTE=">
      <path d="M39.92 36.5h1011.74v654.42H39.92z"/>
    </clipPath>
  </defs>
  <g clip-path="url(#cpMzkuOTJ8MTA1MS42NXwzNi41MHw2OTAuOTE=)">
    <path d="M39.92 36.5h1011.74v654.42H39.92z" style="stroke-width:1.07;stroke:none;fill:#EBEBEB"/>
    <path d="M39.92 654.5h1011.73M39.92 516.59h1011.73M39.92 378.68h1011.73M39.92 240.77h1011.73M39.92 102.86h1011.73M185.88 690.91V36.5m199.95 654.41V36.5m199.95 654.41V36.5m199.94 654.41V36.5m199.95 654.41V36.5" style="stroke-width:0.53;stroke:#FFFFFF;stroke-linecap:butt"/>
    <path d="M39.92 585.54h1011.73M39.92 447.63h1011.73M39.92 309.72h1011.73M39.92 171.81h1011.73M85.91 690.91V36.5m199.94 654.41V36.5M485.8 690.91V36.5m199.95 654.41V36.5M885.7 690.91V36.5" style="stroke-width:1.07;stroke:#FFFFFF;stroke-linecap:butt"/>
    <circle cx="85.91" cy="631.33" r="1.95" style="stroke-width:0.71;stroke:#377EB8;stroke-opacity:0.70;fill:#377EB8;fill-opacity:0.70"/>
    <circle cx="85.91" cy="645.59" r="1.95" style="stroke-width:0.71;stroke:#4DAF4A;stroke-opacity:0.70;fill:#4DAF4A;fill-opacity:0.70"/>
    <circle cx="85.91" cy="653.13" r="1.95" style="stroke-width:0.71;stroke:#FF7F00;stroke-opacity:0.70;fill:#FF7F00;fill-opacity:0.70"/>
    <circle cx="85.91" cy="653.21" r="1.95" style="stroke-width:0.71;stroke:#984EA3;stroke-opacity:0.70;fill:#984EA3;fill-opacity:0.70"/>
    <circle cx="85.91" cy="467.12" r="1.95" style="stroke-width:0.71;stroke:#E41A1C;stroke-opacity:0.70;fill:#E41A1C;fill-opacity:0.70"/>
    <circle cx="93.9" cy="629.08" r="1.95" style="stroke-width:0.71;stroke:#377EB8;stroke-opacity:0.70;fill:#377EB8;fill-opacity:0.70"/>
    <circle cx="93.9" cy="638.25" r="1.95" style="stroke-width:0.71;stroke:#4DAF4A;stroke-opacity:0.70;fill:#4DAF4A;fill-opacity:0.70"/>
    <circle cx="93.9" cy="638" r="1.95" style="stroke-width:0.71;stroke:#FF7F00;stroke-opacity:0.70;fill:#FF7F00;fill-opacity:0.70"/>
    <circle cx="93.9" cy="637.03" r="1.95" style="stroke-width:0.71;stroke:#984EA3;stroke-opacity:0.70;fill:#984EA3;fill-opacity:0.70"/>
    <circle cx="93.9" cy="461.83" r="1.95" style="stroke-width:0.71;stroke:#E41A1C;stroke-opacity:0.70;fill:#E41A1C;fill-opacity:0.70"/>
    <circle cx="109.9" cy="636.83" r="1.95" style="stroke-width:0.71;stroke:#377EB8;stroke-opacity:0.70;fill:#377EB8;fill-opacity:0.70"/>
    <circle cx="109.9" cy="637.59" r="1.95" style="stroke-width:0.71;stroke:#4DAF4A;stroke-opacity:0.70;fill:#4DAF4A;fill-opacity:0.70"/>
    <circle cx="109.9" cy="642.86" r="1.95" style="stroke-width:0.71;stroke:#FF7F00;stroke-opacity:0.70;fill:#FF7F00;fill-opacity:0.70"/>
    <circle cx="109.9" cy="644.81" r="1.95" style="stroke-width:0.71;stroke:#984EA3;stroke-opacity:0.70;fill:#984EA3;fill-opacity:0.70"/>
    <circle cx="109.9" cy="474.07" r="1.95" style="stroke-width:0.71;stroke:#E41A1C;stroke-opacity:0.70;fill:#E41A1C;fill-opacity:0.70"/>
    <circle cx="137.89" cy="648.29" r="1.95" style="stroke-width:0.71;stroke:#377EB8;stroke-opacity:0.70;fill:#377EB8;fill-opacity:0.70"/>
    <circle cx="137.89" cy="648.79" r="1.95" style="stroke-width:0.71;stroke:#4DAF4A;stroke-opacity:0.70;fill:#4DAF4A;fill-opacity:0.70"/>
    <circle cx="137.89" cy="649.18" r="1.95" style="stroke-width:0.71;stroke:#FF7F00;stroke-opacity:0.70;fill:#FF7F00;fill-opacity:0.70"/>
    <circle cx="137.89" cy="648.3" r="1.95" style="stroke-width:0.71;stroke:#984EA3;stroke-opacity:0.70;fill:#984EA3;fill-opacity:0.70"/>
    <circle cx="137.89" cy="481.44" r="1.95" style="stroke-width:0.71;stroke:#E41A1C;stroke-opacity:0.70;fill:#E41A1C;fill-opacity:0.70"/>
    <circle cx="185.88" cy="629.05" r="1.95" style="stroke-width:0.71;stroke:#377EB8;stroke-opacity:0.70;fill:#377EB8;fill-opacity:0.70"/>
    <circle cx="185.88" cy="632.36" r="1.95" style="stroke-width:0.71;stroke:#4DAF4A;stroke-opacity:0.70;fill:#4DAF4A;fill-opacity:0.70"/>
    <circle cx="185.88" cy="632.03" r="1.95" style="stroke-width:0.71;stroke:#FF7F00;stroke-opacity:0.70;fill:#FF7F00;fill-opacity:0.70"/>
    <circle cx="185.88" cy="632" r="1.95" style="stroke-width:0.71;stroke:#984EA3;stroke-opacity:0.70;fill:#984EA3;fill-opacity:0.70"/>
    <circle cx="185.88" cy="447.59" r="1.95" style="stroke-width:0.71;stroke:#E41A1C;stroke-opacity:0.70;fill:#E41A1C;fill-opacity:0.70"/>
    <circle cx="285.85" cy="580.28" r="1.95" style="stroke-width:0.71;stroke:#377EB8;stroke-opacity:0.70;fill:#377EB8;fill-opacity:0.70"/>
    <circle cx="285.85" cy="588.36" r="1.95" style="stroke-width:0.71;stroke:#4DAF4A;stroke-opacity:0.70;fill:#4DAF4A;fill-opacity:0.70"/>
    <circle cx="285.85" cy="592.52" r="1.95" style="stroke-width:0.71;stroke:#FF7F00;stroke-opacity:0.70;fill:#FF7F00;fill-opacity:0.70"/>
    <circle cx="285.85" cy="592.81" r="1.95" style="stroke-width:0.71;stroke:#984EA3;stroke-opacity:0.70;fill:#984EA3;fill-opacity:0.70"/>
    <circle cx="285.85" cy="418.22" r="1.95" style="stroke-width:0.71;stroke:#E41A1C;stroke-opacity:0.70;fill:#E41A1C;fill-opacity:0.70"/>
    <circle cx="405.82" cy="545.66" r="1.95" style="stroke-width:0.71;stroke:#377EB8;stroke-opacity:0.70;fill:#377EB8;fill-opacity:0.70"/>
    <circle cx="405.82" cy="548.03" r="1.95" style="stroke-width:0.71;stroke:#4DAF4A;stroke-opacity:0.70;fill:#4DAF4A;fill-opacity:0.70"/>
    <circle cx="405.82" cy="542.25" r="1.95" style="stroke-width:0.71;stroke:#FF7F00;stroke-opacity:0.70;fill:#FF7F00;fill-opacity:0.70"/>
    <circle cx="405.82" cy="547.94" r="1.95" style="stroke-width:0.71;stroke:#984EA3;stroke-opacity:0.70;fill:#984EA3;fill-opacity:0.70"/>
    <circle cx="405.82" cy="371.15" r="1.95" style="stroke-width:0.71;stroke:#E41A1C;stroke-opacity:0.70;fill:#E41A1C;fill-opacity:0.70"/>
    <circle cx="537.79" cy="507.75" r="1.95" style="stroke-width:0.71;stroke:#377EB8;stroke-opacity:0.70;fill:#377EB8;fill-opacity:0.70"/>
    <circle cx="537.79" cy="508.79" r="1.95" style="stroke-width:0.71;stroke:#4DAF4A;stroke-opacity:0.70;fill:#4DAF4A;fill-opacity:0.70"/>
    <circle cx="537.79" cy="509.2" r="1.95" style="stroke-width:0.71;stroke:#FF7F00;stroke-opacity:0.70;fill:#FF7F00;fill-opacity:0.70"/>
    <circle cx="537.79" cy="508.36" r="1.95" style="stroke-width:0.71;stroke:#984EA3;stroke-opacity:0.70;fill:#984EA3;fill-opacity:0.70"/>
    <circle cx="537.79" cy="334.62" r="1.95" style="stroke-width:0.71;stroke:#E41A1C;stroke-opacity:0.70;fill:#E41A1C;fill-opacity:0.70"/>
    <circle cx="625.76" cy="359.98" r="1.95" style="stroke-width:0.71;stroke:#377EB8;stroke-opacity:0.70;fill:#377EB8;fill-opacity:0.70"/>
    <circle cx="625.76" cy="359.77" r="1.95" style="stroke-width:0.71;stroke:#4DAF4A;stroke-opacity:0.70;fill:#4DAF4A;fill-opacity:0.70"/>
    <circle cx="625.76" cy="363.4" r="1.95" style="stroke-width:0.71;stroke:#FF7F00;stroke-opacity:0.70;fill:#FF7F00;fill-opacity:0.70"/>
    <circle cx="625.76" cy="359.86" r="1.95" style="stroke-width:0.71;stroke:#984EA3;stroke-opacity:0.70;fill:#984EA3;fill-opacity:0.70"/>
    <circle cx="625.76" cy="276.01" r="1.95" style="stroke-width:0.71;stroke:#E41A1C;stroke-opacity:0.70;fill:#E41A1C;fill-opacity:0.70"/>
    <circle cx="685.75" cy="321" r="1.95" style="stroke-width:0.71;stroke:#377EB8;stroke-opacity:0.70;fill:#377EB8;fill-opacity:0.70"/>
    <circle cx="685.75" cy="336.04" r="1.95" style="stroke-width:0.71;stroke:#4DAF4A;stroke-opacity:0.70;fill:#4DAF4A;fill-opacity:0.70"/>
    <circle cx="685.75" cy="334.07" r="1.95" style="stroke-width:0.71;stroke:#FF7F00;stroke-opacity:0.70;fill:#FF7F00;fill-opacity:0.70"/>
    <circle cx="685.75" cy="333.12" r="1.95" style="stroke-width:0.71;stroke:#984EA3;stroke-opacity:0.70;fill:#984EA3;fill-opacity:0.70"/>
    <circle cx="685.75" cy="240.25" r="1.95" style="stroke-width:0.71;stroke:#E41A1C;stroke-opacity:0.70;fill:#E41A1C;fill-opacity:0.70"/>
    <circle cx="745.73" cy="299.28" r="1.95" style="stroke-width:0.71;stroke:#377EB8;stroke-opacity:0.70;fill:#377EB8;fill-opacity:0.70"/>
    <circle cx="745.73" cy="297.17" r="1.95" style="stroke-width:0.71;stroke:#4DAF4A;stroke-opacity:0.70;fill:#4DAF4A;fill-opacity:0.70"/>
    <circle cx="745.73" cy="299.51" r="1.95" style="stroke-width:0.71;stroke:#FF7F00;stroke-opacity:0.70;fill:#FF7F00;fill-opacity:0.70"/>
    <circle cx="745.73" cy="298.66" r="1.95" style="stroke-width:0.71;stroke:#984EA3;stroke-opacity:0.70;fill:#984EA3;fill-opacity:0.70"/>
    <circle cx="745.73" cy="183.83" r="1.95" style="stroke-width:0.71;stroke:#E41A1C;stroke-opacity:0.70;fill:#E41A1C;fill-opacity:0.70"/>
    <circle cx="825.71" cy="264.97" r="1.95" style="stroke-width:0.71;stroke:#377EB8;stroke-opacity:0.70;fill:#377EB8;fill-opacity:0.70"/>
    <circle cx="825.71" cy="266.5" r="1.95" style="stroke-width:0.71;stroke:#4DAF4A;stroke-opacity:0.70;fill:#4DAF4A;fill-opacity:0.70"/>
    <circle cx="825.71" cy="263.71" r="1.95" style="stroke-width:0.71;stroke:#FF7F00;stroke-opacity:0.70;fill:#FF7F00;fill-opacity:0.70"/>
    <circle cx="825.71" cy="264.85" r="1.95" style="stroke-width:0.71;stroke:#984EA3;stroke-opacity:0.70;fill:#984EA3;fill-opacity:0.70"/>
    <circle cx="825.71" cy="159.76" r="1.95" style="stroke-width:0.71;stroke:#E41A1C;stroke-opacity:0.70;fill:#E41A1C;fill-opacity:0.70"/>
    <circle cx="885.7" cy="234.51" r="1.95" style="stroke-width:0.71;stroke:#377EB8;stroke-opacity:0.70;fill:#377EB8;fill-opacity:0.70"/>
    <circle cx="885.7" cy="233.14" r="1.95" style="stroke-width:0.71;stroke:#4DAF4A;stroke-opacity:0.70;fill:#4DAF4A;fill-opacity:0.70"/>
    <circle cx="885.7" cy="240.26" r="1.95" style="stroke-width:0.71;stroke:#FF7F00;stroke-opacity:0.70;fill:#FF7F00;fill-opacity:0.70"/>
    <circle cx="885.7" cy="233.97" r="1.95" style="stroke-width:0.71;stroke:#984EA3;stroke-opacity:0.70;fill:#984EA3;fill-opacity:0.70"/>
    <circle cx="885.7" cy="117.95" r="1.95" style="stroke-width:0.71;stroke:#E41A1C;stroke-opacity:0.70;fill:#E41A1C;fill-opacity:0.70"/>
    <circle cx="945.68" cy="206.94" r="1.95" style="stroke-width:0.71;stroke:#377EB8;stroke-opacity:0.70;fill:#377EB8;fill-opacity:0.70"/>
    <circle cx="945.68" cy="195.67" r="1.95" style="stroke-width:0.71;stroke:#4DAF4A;stroke-opacity:0.70;fill:#4DAF4A;fill-opacity:0.70"/>
    <circle cx="945.68" cy="206.44" r="1.95" style="stroke-width:0.71;stroke:#FF7F00;stroke-opacity:0.70;fill:#FF7F00;fill-opacity:0.70"/>
    <circle cx="945.68" cy="202.54" r="1.95" style="stroke-width:0.71;stroke:#984EA3;stroke-opacity:0.70;fill:#984EA3;fill-opacity:0.70"/>
    <circle cx="945.68" cy="87.76" r="1.95" style="stroke-width:0.71;stroke:#E41A1C;stroke-opacity:0.70;fill:#E41A1C;fill-opacity:0.70"/>
    <circle cx="1005.67" cy="164.58" r="1.95" style="stroke-width:0.71;stroke:#377EB8;stroke-opacity:0.70;fill:#377EB8;fill-opacity:0.70"/>
    <circle cx="1005.67" cy="164.99" r="1.95" style="stroke-width:0.71;stroke:#4DAF4A;stroke-opacity:0.70;fill:#4DAF4A;fill-opacity:0.70"/>
    <circle cx="1005.67" cy="173.05" r="1.95" style="stroke-width:0.71;stroke:#FF7F00;stroke-opacity:0.70;fill:#FF7F00;fill-opacity:0.70"/>
    <circle cx="1005.67" cy="173.88" r="1.95" style="stroke-width:0.71;stroke:#984EA3;stroke-opacity:0.70;fill:#984EA3;fill-opacity:0.70"/>
    <circle cx="1005.67" cy="66.24" r="1.95" style="stroke-width:0.71;stroke:#E41A1C;stroke-opacity:0.70;fill:#E41A1C;fill-opacity:0.70"/>
    <path d="m85.91 467.12 7.99-5.29 16 12.24 27.99 7.37 47.99-33.85 99.97-29.37 119.97-47.07 131.97-36.53 87.97-58.61 59.99-35.76 59.98-56.42 79.98-24.07 59.99-41.81 59.98-30.19 59.99-21.52" style="stroke-width:1.07;stroke:#E41A1C;stroke-opacity:0.30;stroke-linecap:butt"/>
    <path d="m85.91 631.33 7.99-2.25 16 7.75 27.99 11.46 47.99-19.24 99.97-48.77 119.97-34.62 131.97-37.91 87.97-147.77L685.75 321l59.98-21.72 79.98-34.31 59.99-30.46 59.98-27.57 59.99-42.36" style="stroke-width:1.07;stroke:#377EB8;stroke-opacity:0.30;stroke-linecap:butt"/>
    <path d="m85.91 645.59 7.99-7.34 16-.66 27.99 11.2 47.99-16.43 99.97-44 119.97-40.33 131.97-39.24 87.97-149.02 59.99-23.73 59.98-38.87 79.98-30.67 59.99-33.36 59.98-37.47 59.99-30.68" style="stroke-width:1.07;stroke:#4DAF4A;stroke-opacity:0.30;stroke-linecap:butt"/>
    <path d="m85.91 653.21 7.99-16.18 16 7.78 27.99 3.49 47.99-16.3 99.97-39.19 119.97-44.87 131.97-39.58 87.97-148.5 59.99-26.74 59.98-34.46 79.98-33.81 59.99-30.88 59.98-31.43 59.99-28.66" style="stroke-width:1.07;stroke:#984EA3;stroke-opacity:0.30;stroke-linecap:butt"/>
    <path d="M85.91 653.13 93.9 638l16 4.86 27.99 6.32 47.99-17.15 99.97-39.51 119.97-50.27 131.97-33.05 87.97-145.8 59.99-29.33 59.98-34.56 79.98-35.8 59.99-23.45 59.98-33.82 59.99-33.39" style="stroke-width:1.07;stroke:#FF7F00;stroke-opacity:0.30;stroke-linecap:butt"/>
  </g>
  <g clip-path="url(#cpMC4wMHwxMDgwLjAwfDAuMDB8NzIwLjAw)">
    <text x="34.99" y="588.7" lengthAdjust="spacingAndGlyphs" style="font-size:8.80px;fill:#4D4D4D;font-family:&quot;Arial&quot;" text-anchor="end" textLength="14.19">4ns</text>
    <text x="34.99" y="450.79" lengthAdjust="spacingAndGlyphs" style="font-size:8.80px;fill:#4D4D4D;font-family:&quot;Arial&quot;" text-anchor="end" textLength="14.19">8ns</text>
    <text x="34.99" y="312.88" lengthAdjust="spacingAndGlyphs" style="font-size:8.80px;fill:#4D4D4D;font-family:&quot;Arial&quot;" text-anchor="end" textLength="19.09">12ns</text>
    <text x="34.99" y="174.97" lengthAdjust="spacingAndGlyphs" style="font-size:8.80px;fill:#4D4D4D;font-family:&quot;Arial&quot;" text-anchor="end" textLength="19.09">16ns</text>
    <path d="M37.18 585.54h2.74m-2.74-137.91h2.74m-2.74-137.91h2.74m-2.74-137.91h2.74m45.99 521.84v-2.74m199.94 2.74v-2.74m199.95 2.74v-2.74m199.95 2.74v-2.74m199.95 2.74v-2.74" style="stroke-width:1.07;stroke:#333333;stroke-linecap:butt"/>
    <text x="85.91" y="702.15" lengthAdjust="spacingAndGlyphs" style="font-size:8.80px;fill:#4D4D4D;font-family:&quot;Arial&quot;" text-anchor="middle" textLength="13.2">0 B</text>
    <text x="285.85" y="702.15" lengthAdjust="spacingAndGlyphs" style="font-size:8.80px;fill:#4D4D4D;font-family:&quot;Arial&quot;" text-anchor="middle" textLength="18.1">50 B</text>
    <text x="485.8" y="702.15" lengthAdjust="spacingAndGlyphs" style="font-size:8.80px;fill:#4D4D4D;font-family:&quot;Arial&quot;" text-anchor="middle" textLength="23">100 B</text>
    <text x="685.75" y="702.15" lengthAdjust="spacingAndGlyphs" style="font-size:8.80px;fill:#4D4D4D;font-family:&quot;Arial&quot;" text-anchor="middle" textLength="23">150 B</text>
    <text x="885.7" y="702.15" lengthAdjust="spacingAndGlyphs" style="font-size:8.80px;fill:#4D4D4D;font-family:&quot;Arial&quot;" text-anchor="middle" textLength="23">200 B</text>
    <text x="545.79" y="714.73" lengthAdjust="spacingAndGlyphs" style="font-size:11.00px;font-family:&quot;Arial&quot;" text-anchor="middle" textLength="21.4">Size</text>
    <text lengthAdjust="spacingAndGlyphs" style="font-size:11.00px;font-family:&quot;Arial&quot;" text-anchor="middle" textLength="24.44" transform="rotate(-90 187.215 176.485)">Time</text>
    <path d="M806.22 503.45h86.17v113.16h-86.17z" style="stroke-width:1.07;stroke:none;fill:#FFFFFF"/>
    <text x="811.7" y="518.03" lengthAdjust="spacingAndGlyphs" style="font-size:11.00px;font-family:&quot;Arial&quot;" textLength="75.21">Implementation</text>
    <path d="M811.7 524.73h17.28v17.28H811.7z" style="stroke-width:1.07;stroke:none;fill:#EBEBEB"/>
    <circle cx="820.34" cy="533.37" r="1.95" style="stroke-width:0.71;stroke:#E41A1C;stroke-opacity:0.70;fill:#E41A1C;fill-opacity:0.70"/>
    <path d="M813.43 533.37h13.82" style="stroke-width:1.07;stroke:#E41A1C;stroke-opacity:0.30;stroke-linecap:butt"/>
    <path d="M811.7 542.01h17.28v17.28H811.7z" style="stroke-width:1.07;stroke:none;fill:#EBEBEB"/>
    <circle cx="820.34" cy="550.65" r="1.95" style="stroke-width:0.71;stroke:#377EB8;stroke-opacity:0.70;fill:#377EB8;fill-opacity:0.70"/>
    <path d="M813.43 550.65h13.82" style="stroke-width:1.07;stroke:#377EB8;stroke-opacity:0.30;stroke-linecap:butt"/>
    <path d="M811.7 559.29h17.28v17.28H811.7z" style="stroke-width:1.07;stroke:none;fill:#EBEBEB"/>
    <circle cx="820.34" cy="567.93" r="1.95" style="stroke-width:0.71;stroke:#4DAF4A;stroke-opacity:0.70;fill:#4DAF4A;fill-opacity:0.70"/>
    <path d="M813.43 567.93h13.82" style="stroke-width:1.07;stroke:#4DAF4A;stroke-opacity:0.30;stroke-linecap:butt"/>
    <path d="M811.7 576.57h17.28v17.28H811.7z" style="stroke-width:1.07;stroke:none;fill:#EBEBEB"/>
    <circle cx="820.34" cy="585.21" r="1.95" style="stroke-width:0.71;stroke:#984EA3;stroke-opacity:0.70;fill:#984EA3;fill-opacity:0.70"/>
    <path d="M813.43 585.21h13.82" style="stroke-width:1.07;stroke:#984EA3;stroke-opacity:0.30;stroke-linecap:butt"/>
    <path d="M811.7 593.85h17.28v17.28H811.7z" style="stroke-width:1.07;stroke:none;fill:#EBEBEB"/>
    <circle cx="820.34" cy="602.49" r="1.95" style="stroke-width:0.71;stroke:#FF7F00;stroke-opacity:0.70;fill:#FF7F00;fill-opacity:0.70"/>
    <path d="M813.43 602.49h13.82" style="stroke-width:1.07;stroke:#FF7F00;stroke-opacity:0.30;stroke-linecap:butt"/>
    <text x="834.46" y="536.52" lengthAdjust="spacingAndGlyphs" style="font-size:8.80px;font-family:&quot;Arial&quot;" textLength="18.09">Rust</text>
    <text x="834.46" y="553.8" lengthAdjust="spacingAndGlyphs" style="font-size:8.80px;font-family:&quot;Arial&quot;" textLength="6.35">C</text>
    <text x="834.46" y="571.08" lengthAdjust="spacingAndGlyphs" style="font-size:8.80px;font-family:&quot;Arial&quot;" textLength="38.12">C (scalar)</text>
    <text x="834.46" y="588.36" lengthAdjust="spacingAndGlyphs" style="font-size:8.80px;font-family:&quot;Arial&quot;" textLength="37.15">C (SSE2)</text>
    <text x="834.46" y="605.64" lengthAdjust="spacingAndGlyphs" style="font-size:8.80px;font-family:&quot;Arial&quot;" textLength="37.15">C (AVX2)</text>
    <text x="39.92" y="28.58" lengthAdjust="spacingAndGlyphs" style="font-size:11.00px;font-family:&quot;Arial&quot;" textLength="149.21">x86_64 (AMD Ryzen 9 3950X)</text>
    <text x="39.92" y="12.3" lengthAdjust="spacingAndGlyphs" style="font-size:13.20px;font-family:&quot;Arial&quot;" textLength="363.66">[xxhash3_64] Hashing small amounts of bytes (lower is better)</text>
  </g>
</svg>
