<svg xmlns="http://www.w3.org/2000/svg" width="1440" height="960" class="svglite" viewBox="0 0 1080 720">
  <defs>
    <style>
      <![CDATA[.svglite line,.svglite polyline,.svglite polygon,.svglite path,.svglite circle{fill:none;stroke:#000000;stroke-linecap:round;stroke-linejoin:round;stroke-miterlimit:10.00}.svglite text{white-space:pre}]]>
    </style>
  </defs>
  <rect width="100%" height="100%" style="stroke-linecap:round;stroke-linejoin:round;stroke-miterlimit:10.00;stroke:none;fill:#FFFFFF"/>
  <defs>
    <clipPath id="cpMC4wMHwxMDgwLjAwfDAuMDB8NzIwLjAw">
      <path d="M0 0h1080v720H0z"/>
    </clipPath>
  </defs>
  <g clip-path="url(#cpMC4wMHwxMDgwLjAwfDAuMDB8NzIwLjAw)">
    <path d="M0 0h1080v720H0z" style="stroke-width:1.07;stroke:#FFFFFF;fill:#FFFFFF"/>
  </g>
  <defs>
    <clipPath id="cpNjkuMjR8MTA1MS42NXwzNi41MHw2OTAuOTE=">
      <path d="M69.24 36.5h982.41v654.42H69.24z"/>
    </clipPath>
  </defs>
  <g clip-path="url(#cpNjkuMjR8MTA1MS42NXwzNi41MHw2OTAuOTE=)">
    <path d="M69.24 36.5h982.41v654.42H69.24z" style="stroke-width:1.07;stroke:none;fill:#EBEBEB"/>
    <path d="M69.24 661.16h982.41M69.24 576.18h982.41M69.24 491.19h982.41M69.24 406.2h982.41M69.24 321.21h982.41M69.24 236.22h982.41M69.24 151.23h982.41M69.24 66.24h982.41M113.9 690.91V36.5m44.65 654.41V36.5m44.66 654.41V36.5m44.65 654.41V36.5m44.66 654.41V36.5m44.65 654.41V36.5m44.66 654.41V36.5m44.65 654.41V36.5m44.66 654.41V36.5m44.65 654.41V36.5m44.66 654.41V36.5m44.65 654.41V36.5m44.66 654.41V36.5m44.65 654.41V36.5m44.66 654.41V36.5m44.65 654.41V36.5m44.66 654.41V36.5m44.65 654.41V36.5m44.66 654.41V36.5m44.65 654.41V36.5M1007 690.91V36.5m44.65 654.41V36.5" style="stroke-width:1.07;stroke:#FFFFFF;stroke-linecap:butt"/>
    <circle cx="1007" cy="157.8" r="1.95" style="stroke-width:0.71;stroke:#377EB8;stroke-opacity:0.70;fill:#377EB8;fill-opacity:0.70"/>
    <circle cx="1007" cy="150.68" r="1.95" style="stroke-width:0.71;stroke:#E41A1C;stroke-opacity:0.70;fill:#E41A1C;fill-opacity:0.70"/>
    <circle cx="962.34" cy="154.91" r="1.95" style="stroke-width:0.71;stroke:#377EB8;stroke-opacity:0.70;fill:#377EB8;fill-opacity:0.70"/>
    <circle cx="962.34" cy="150.14" r="1.95" style="stroke-width:0.71;stroke:#E41A1C;stroke-opacity:0.70;fill:#E41A1C;fill-opacity:0.70"/>
    <circle cx="917.69" cy="156.22" r="1.95" style="stroke-width:0.71;stroke:#377EB8;stroke-opacity:0.70;fill:#377EB8;fill-opacity:0.70"/>
    <circle cx="917.69" cy="150.09" r="1.95" style="stroke-width:0.71;stroke:#E41A1C;stroke-opacity:0.70;fill:#E41A1C;fill-opacity:0.70"/>
    <circle cx="873.03" cy="157.38" r="1.95" style="stroke-width:0.71;stroke:#377EB8;stroke-opacity:0.70;fill:#377EB8;fill-opacity:0.70"/>
    <circle cx="873.03" cy="149.52" r="1.95" style="stroke-width:0.71;stroke:#E41A1C;stroke-opacity:0.70;fill:#E41A1C;fill-opacity:0.70"/>
    <circle cx="828.38" cy="155.17" r="1.95" style="stroke-width:0.71;stroke:#377EB8;stroke-opacity:0.70;fill:#377EB8;fill-opacity:0.70"/>
    <circle cx="828.38" cy="151.33" r="1.95" style="stroke-width:0.71;stroke:#E41A1C;stroke-opacity:0.70;fill:#E41A1C;fill-opacity:0.70"/>
    <circle cx="783.72" cy="153.08" r="1.95" style="stroke-width:0.71;stroke:#377EB8;stroke-opacity:0.70;fill:#377EB8;fill-opacity:0.70"/>
    <circle cx="783.72" cy="154.43" r="1.95" style="stroke-width:0.71;stroke:#E41A1C;stroke-opacity:0.70;fill:#E41A1C;fill-opacity:0.70"/>
    <circle cx="739.07" cy="156.98" r="1.95" style="stroke-width:0.71;stroke:#377EB8;stroke-opacity:0.70;fill:#377EB8;fill-opacity:0.70"/>
    <circle cx="739.07" cy="150.71" r="1.95" style="stroke-width:0.71;stroke:#E41A1C;stroke-opacity:0.70;fill:#E41A1C;fill-opacity:0.70"/>
    <circle cx="694.41" cy="155.76" r="1.95" style="stroke-width:0.71;stroke:#377EB8;stroke-opacity:0.70;fill:#377EB8;fill-opacity:0.70"/>
    <circle cx="694.41" cy="151.44" r="1.95" style="stroke-width:0.71;stroke:#E41A1C;stroke-opacity:0.70;fill:#E41A1C;fill-opacity:0.70"/>
    <circle cx="649.76" cy="156.41" r="1.95" style="stroke-width:0.71;stroke:#377EB8;stroke-opacity:0.70;fill:#377EB8;fill-opacity:0.70"/>
    <circle cx="649.76" cy="151.22" r="1.95" style="stroke-width:0.71;stroke:#E41A1C;stroke-opacity:0.70;fill:#E41A1C;fill-opacity:0.70"/>
    <circle cx="605.1" cy="156.3" r="1.95" style="stroke-width:0.71;stroke:#377EB8;stroke-opacity:0.70;fill:#377EB8;fill-opacity:0.70"/>
    <circle cx="605.1" cy="151.74" r="1.95" style="stroke-width:0.71;stroke:#E41A1C;stroke-opacity:0.70;fill:#E41A1C;fill-opacity:0.70"/>
    <circle cx="560.45" cy="155.79" r="1.95" style="stroke-width:0.71;stroke:#377EB8;stroke-opacity:0.70;fill:#377EB8;fill-opacity:0.70"/>
    <circle cx="560.45" cy="150.11" r="1.95" style="stroke-width:0.71;stroke:#E41A1C;stroke-opacity:0.70;fill:#E41A1C;fill-opacity:0.70"/>
    <circle cx="515.79" cy="161.39" r="1.95" style="stroke-width:0.71;stroke:#377EB8;stroke-opacity:0.70;fill:#377EB8;fill-opacity:0.70"/>
    <circle cx="515.79" cy="150.86" r="1.95" style="stroke-width:0.71;stroke:#E41A1C;stroke-opacity:0.70;fill:#E41A1C;fill-opacity:0.70"/>
    <circle cx="471.14" cy="165.62" r="1.95" style="stroke-width:0.71;stroke:#377EB8;stroke-opacity:0.70;fill:#377EB8;fill-opacity:0.70"/>
    <circle cx="471.14" cy="153.55" r="1.95" style="stroke-width:0.71;stroke:#E41A1C;stroke-opacity:0.70;fill:#E41A1C;fill-opacity:0.70"/>
    <circle cx="426.48" cy="182.18" r="1.95" style="stroke-width:0.71;stroke:#377EB8;stroke-opacity:0.70;fill:#377EB8;fill-opacity:0.70"/>
    <circle cx="426.48" cy="160.68" r="1.95" style="stroke-width:0.71;stroke:#E41A1C;stroke-opacity:0.70;fill:#E41A1C;fill-opacity:0.70"/>
    <circle cx="381.83" cy="204.61" r="1.95" style="stroke-width:0.71;stroke:#377EB8;stroke-opacity:0.70;fill:#377EB8;fill-opacity:0.70"/>
    <circle cx="381.83" cy="176" r="1.95" style="stroke-width:0.71;stroke:#E41A1C;stroke-opacity:0.70;fill:#E41A1C;fill-opacity:0.70"/>
    <circle cx="337.17" cy="243.38" r="1.95" style="stroke-width:0.71;stroke:#377EB8;stroke-opacity:0.70;fill:#377EB8;fill-opacity:0.70"/>
    <circle cx="337.17" cy="197.65" r="1.95" style="stroke-width:0.71;stroke:#E41A1C;stroke-opacity:0.70;fill:#E41A1C;fill-opacity:0.70"/>
    <circle cx="292.52" cy="339.43" r="1.95" style="stroke-width:0.71;stroke:#377EB8;stroke-opacity:0.70;fill:#377EB8;fill-opacity:0.70"/>
    <circle cx="292.52" cy="308.48" r="1.95" style="stroke-width:0.71;stroke:#E41A1C;stroke-opacity:0.70;fill:#E41A1C;fill-opacity:0.70"/>
    <circle cx="247.86" cy="410.39" r="1.95" style="stroke-width:0.71;stroke:#377EB8;stroke-opacity:0.70;fill:#377EB8;fill-opacity:0.70"/>
    <circle cx="247.86" cy="384.83" r="1.95" style="stroke-width:0.71;stroke:#E41A1C;stroke-opacity:0.70;fill:#E41A1C;fill-opacity:0.70"/>
    <circle cx="203.21" cy="491.57" r="1.95" style="stroke-width:0.71;stroke:#377EB8;stroke-opacity:0.70;fill:#377EB8;fill-opacity:0.70"/>
    <circle cx="203.21" cy="475.53" r="1.95" style="stroke-width:0.71;stroke:#E41A1C;stroke-opacity:0.70;fill:#E41A1C;fill-opacity:0.70"/>
    <circle cx="158.55" cy="586.01" r="1.95" style="stroke-width:0.71;stroke:#377EB8;stroke-opacity:0.70;fill:#377EB8;fill-opacity:0.70"/>
    <circle cx="158.55" cy="569.54" r="1.95" style="stroke-width:0.71;stroke:#E41A1C;stroke-opacity:0.70;fill:#E41A1C;fill-opacity:0.70"/>
    <circle cx="113.9" cy="660.85" r="1.95" style="stroke-width:0.71;stroke:#377EB8;stroke-opacity:0.70;fill:#377EB8;fill-opacity:0.70"/>
    <circle cx="113.9" cy="646.16" r="1.95" style="stroke-width:0.71;stroke:#E41A1C;stroke-opacity:0.70;fill:#E41A1C;fill-opacity:0.70"/>
    <path d="m113.9 646.16 44.65-76.62 44.66-94.01 44.65-90.7 44.66-76.35 44.65-110.83L381.83 176l44.65-15.32 44.66-7.13 44.65-2.69 44.66-.75 44.65 1.63 44.66-.52 44.65.22 44.66-.73 44.65 3.72 44.66-3.1 44.65-1.81 44.66.57 44.65.05 44.66.54" style="stroke-width:1.07;stroke:#E41A1C;stroke-opacity:0.30;stroke-linecap:butt"/>
    <path d="m113.9 660.85 44.65-74.84 44.66-94.44 44.65-81.18 44.66-70.96 44.65-96.05 44.66-38.77 44.65-22.43 44.66-16.56 44.65-4.23 44.66-5.6 44.65.51 44.66.11 44.65-.65 44.66 1.22 44.65-3.9 44.66 2.09 44.65 2.21 44.66-1.16 44.65-1.31 44.66 2.89" style="stroke-width:1.07;stroke:#377EB8;stroke-opacity:0.30;stroke-linecap:butt"/>
  </g>
  <g clip-path="url(#cpMC4wMHwxMDgwLjAwfDAuMDB8NzIwLjAw)">
    <text x="64.31" y="664.32" lengthAdjust="spacingAndGlyphs" style="font-size:8.80px;fill:#4D4D4D;font-family:&quot;Arial&quot;" text-anchor="end" textLength="48.41">256 MiB/sec</text>
    <text x="64.31" y="579.33" lengthAdjust="spacingAndGlyphs" style="font-size:8.80px;fill:#4D4D4D;font-family:&quot;Arial&quot;" text-anchor="end" textLength="48.41">512 MiB/sec</text>
    <text x="64.31" y="494.34" lengthAdjust="spacingAndGlyphs" style="font-size:8.80px;fill:#4D4D4D;font-family:&quot;Arial&quot;" text-anchor="end" textLength="38.13">1 GiB/sec</text>
    <text x="64.31" y="409.35" lengthAdjust="spacingAndGlyphs" style="font-size:8.80px;fill:#4D4D4D;font-family:&quot;Arial&quot;" text-anchor="end" textLength="38.13">2 GiB/sec</text>
    <text x="64.31" y="324.36" lengthAdjust="spacingAndGlyphs" style="font-size:8.80px;fill:#4D4D4D;font-family:&quot;Arial&quot;" text-anchor="end" textLength="38.13">4 GiB/sec</text>
    <text x="64.31" y="239.37" lengthAdjust="spacingAndGlyphs" style="font-size:8.80px;fill:#4D4D4D;font-family:&quot;Arial&quot;" text-anchor="end" textLength="38.13">8 GiB/sec</text>
    <text x="64.31" y="154.38" lengthAdjust="spacingAndGlyphs" style="font-size:8.80px;fill:#4D4D4D;font-family:&quot;Arial&quot;" text-anchor="end" textLength="43.03">16 GiB/sec</text>
    <text x="64.31" y="69.39" lengthAdjust="spacingAndGlyphs" style="font-size:8.80px;fill:#4D4D4D;font-family:&quot;Arial&quot;" text-anchor="end" textLength="43.03">32 GiB/sec</text>
    <path d="M66.5 661.16h2.74m-2.74-84.98h2.74m-2.74-84.99h2.74M66.5 406.2h2.74m-2.74-84.99h2.74m-2.74-84.99h2.74m-2.74-84.99h2.74M66.5 66.24h2.74m44.66 627.41v-2.74m44.65 2.74v-2.74m44.66 2.74v-2.74m44.65 2.74v-2.74m44.66 2.74v-2.74m44.65 2.74v-2.74m44.66 2.74v-2.74m44.65 2.74v-2.74m44.66 2.74v-2.74m44.65 2.74v-2.74m44.66 2.74v-2.74m44.65 2.74v-2.74m44.66 2.74v-2.74m44.65 2.74v-2.74m44.66 2.74v-2.74m44.65 2.74v-2.74m44.66 2.74v-2.74m44.65 2.74v-2.74m44.66 2.74v-2.74m44.65 2.74v-2.74m44.66 2.74v-2.74m44.65 2.74v-2.74" style="stroke-width:1.07;stroke:#333333;stroke-linecap:butt"/>
    <text x="113.9" y="702.15" lengthAdjust="spacingAndGlyphs" style="font-size:8.80px;fill:#4D4D4D;font-family:&quot;Arial&quot;" text-anchor="middle" textLength="13.2">1 B</text>
    <text x="158.55" y="702.15" lengthAdjust="spacingAndGlyphs" style="font-size:8.80px;fill:#4D4D4D;font-family:&quot;Arial&quot;" text-anchor="middle" textLength="13.2">2 B</text>
    <text x="203.21" y="702.15" lengthAdjust="spacingAndGlyphs" style="font-size:8.80px;fill:#4D4D4D;font-family:&quot;Arial&quot;" text-anchor="middle" textLength="13.2">4 B</text>
    <text x="247.86" y="702.15" lengthAdjust="spacingAndGlyphs" style="font-size:8.80px;fill:#4D4D4D;font-family:&quot;Arial&quot;" text-anchor="middle" textLength="13.2">8 B</text>
    <text x="292.52" y="702.15" lengthAdjust="spacingAndGlyphs" style="font-size:8.80px;fill:#4D4D4D;font-family:&quot;Arial&quot;" text-anchor="middle" textLength="18.1">16 B</text>
    <text x="337.17" y="702.15" lengthAdjust="spacingAndGlyphs" style="font-size:8.80px;fill:#4D4D4D;font-family:&quot;Arial&quot;" text-anchor="middle" textLength="18.1">32 B</text>
    <text x="381.83" y="702.15" lengthAdjust="spacingAndGlyphs" style="font-size:8.80px;fill:#4D4D4D;font-family:&quot;Arial&quot;" text-anchor="middle" textLength="18.1">64 B</text>
    <text x="426.48" y="702.15" lengthAdjust="spacingAndGlyphs" style="font-size:8.80px;fill:#4D4D4D;font-family:&quot;Arial&quot;" text-anchor="middle" textLength="23">128 B</text>
    <text x="471.14" y="702.15" lengthAdjust="spacingAndGlyphs" style="font-size:8.80px;fill:#4D4D4D;font-family:&quot;Arial&quot;" text-anchor="middle" textLength="23">256 B</text>
    <text x="515.79" y="702.15" lengthAdjust="spacingAndGlyphs" style="font-size:8.80px;fill:#4D4D4D;font-family:&quot;Arial&quot;" text-anchor="middle" textLength="23">512 B</text>
    <text x="560.45" y="702.15" lengthAdjust="spacingAndGlyphs" style="font-size:8.80px;fill:#4D4D4D;font-family:&quot;Arial&quot;" text-anchor="middle" textLength="21.02">1 KiB</text>
    <text x="605.1" y="702.15" lengthAdjust="spacingAndGlyphs" style="font-size:8.80px;fill:#4D4D4D;font-family:&quot;Arial&quot;" text-anchor="middle" textLength="21.02">2 KiB</text>
    <text x="649.76" y="702.15" lengthAdjust="spacingAndGlyphs" style="font-size:8.80px;fill:#4D4D4D;font-family:&quot;Arial&quot;" text-anchor="middle" textLength="21.02">4 KiB</text>
    <text x="694.41" y="702.15" lengthAdjust="spacingAndGlyphs" style="font-size:8.80px;fill:#4D4D4D;font-family:&quot;Arial&quot;" text-anchor="middle" textLength="21.02">8 KiB</text>
    <text x="739.07" y="702.15" lengthAdjust="spacingAndGlyphs" style="font-size:8.80px;fill:#4D4D4D;font-family:&quot;Arial&quot;" text-anchor="middle" textLength="25.92">16 KiB</text>
    <text x="783.72" y="702.15" lengthAdjust="spacingAndGlyphs" style="font-size:8.80px;fill:#4D4D4D;font-family:&quot;Arial&quot;" text-anchor="middle" textLength="25.92">32 KiB</text>
    <text x="828.38" y="702.15" lengthAdjust="spacingAndGlyphs" style="font-size:8.80px;fill:#4D4D4D;font-family:&quot;Arial&quot;" text-anchor="middle" textLength="25.92">64 KiB</text>
    <text x="873.03" y="702.15" lengthAdjust="spacingAndGlyphs" style="font-size:8.80px;fill:#4D4D4D;font-family:&quot;Arial&quot;" text-anchor="middle" textLength="30.82">128 KiB</text>
    <text x="917.69" y="702.15" lengthAdjust="spacingAndGlyphs" style="font-size:8.80px;fill:#4D4D4D;font-family:&quot;Arial&quot;" text-anchor="middle" textLength="30.82">256 KiB</text>
    <text x="962.34" y="702.15" lengthAdjust="spacingAndGlyphs" style="font-size:8.80px;fill:#4D4D4D;font-family:&quot;Arial&quot;" text-anchor="middle" textLength="30.82">512 KiB</text>
    <text x="1007" y="702.15" lengthAdjust="spacingAndGlyphs" style="font-size:8.80px;fill:#4D4D4D;font-family:&quot;Arial&quot;" text-anchor="middle" textLength="22.49">1 MiB</text>
    <text x="1051.65" y="702.15" lengthAdjust="spacingAndGlyphs" style="font-size:8.80px;fill:#4D4D4D;font-family:&quot;Arial&quot;" text-anchor="middle" textLength="22.49">2 MiB</text>
    <text x="560.45" y="714.73" lengthAdjust="spacingAndGlyphs" style="font-size:11.00px;font-family:&quot;Arial&quot;" text-anchor="middle" textLength="56.25">Chunk Size</text>
    <text lengthAdjust="spacingAndGlyphs" style="font-size:11.00px;font-family:&quot;Arial&quot;" text-anchor="middle" textLength="56.28" transform="rotate(-90 187.215 176.485)">Throughput</text>
    <path d="M812.09 529.37h86.17v61.32h-86.17z" style="stroke-width:1.07;stroke:none;fill:#FFFFFF"/>
    <text x="817.57" y="543.95" lengthAdjust="spacingAndGlyphs" style="font-size:11.00px;font-family:&quot;Arial&quot;" textLength="75.21">Implementation</text>
    <path d="M817.57 550.65h17.28v17.28h-17.28z" style="stroke-width:1.07;stroke:none;fill:#EBEBEB"/>
    <circle cx="826.21" cy="559.29" r="1.95" style="stroke-width:0.71;stroke:#E41A1C;stroke-opacity:0.70;fill:#E41A1C;fill-opacity:0.70"/>
    <path d="M819.29 559.29h13.83" style="stroke-width:1.07;stroke:#E41A1C;stroke-opacity:0.30;stroke-linecap:butt"/>
    <path d="M817.57 567.93h17.28v17.28h-17.28z" style="stroke-width:1.07;stroke:none;fill:#EBEBEB"/>
    <circle cx="826.21" cy="576.57" r="1.95" style="stroke-width:0.71;stroke:#377EB8;stroke-opacity:0.70;fill:#377EB8;fill-opacity:0.70"/>
    <path d="M819.29 576.57h13.83" style="stroke-width:1.07;stroke:#377EB8;stroke-opacity:0.30;stroke-linecap:butt"/>
    <text x="840.33" y="562.44" lengthAdjust="spacingAndGlyphs" style="font-size:8.80px;font-family:&quot;Arial&quot;" textLength="18.09">Rust</text>
    <text x="840.33" y="579.72" lengthAdjust="spacingAndGlyphs" style="font-size:8.80px;font-family:&quot;Arial&quot;" textLength="6.35">C</text>
    <text x="69.24" y="28.58" lengthAdjust="spacingAndGlyphs" style="font-size:11.00px;font-family:&quot;Arial&quot;" textLength="149.21">x86_64 (AMD Ryzen 9 3950X)</text>
    <text x="69.24" y="12.3" lengthAdjust="spacingAndGlyphs" style="font-size:13.20px;font-family:&quot;Arial&quot;" textLength="418.67">[xxhash64] Throughput of a 1 MiB buffer by chunk size (higher is better)</text>
  </g>
</svg>
