<svg xmlns="http://www.w3.org/2000/svg" width="1440" height="960" class="svglite" viewBox="0 0 1080 720">
  <defs>
    <style>
      <![CDATA[.svglite line,.svglite polyline,.svglite polygon,.svglite path,.svglite circle{fill:none;stroke:#000000;stroke-linecap:round;stroke-linejoin:round;stroke-miterlimit:10.00}.svglite text{white-space:pre}]]>
    </style>
  </defs>
  <rect width="100%" height="100%" style="stroke-linecap:round;stroke-linejoin:round;stroke-miterlimit:10.00;stroke:none;fill:#FFFFFF"/>
  <defs>
    <clipPath id="cpMC4wMHwxMDgwLjAwfDAuMDB8NzIwLjAw">
      <path d="M0 0h1080v720H0z"/>
    </clipPath>
  </defs>
  <g clip-path="url(#cpMC4wMHwxMDgwLjAwfDAuMDB8NzIwLjAw)">
    <path d="M0 0h1080v720H0z" style="stroke-width:1.07;stroke:#FFFFFF;fill:#FFFFFF"/>
  </g>
  <defs>
    <clipPath id="cpMzkuOTJ8MTA1MS42NXwzNi41MHw2OTAuOTE=">
      <path d="M39.92 36.5h1011.74v654.42H39.92z"/>
    </clipPath>
  </defs>
  <g clip-path="url(#cpMzkuOTJ8MTA1MS42NXwzNi41MHw2OTAuOTE=)">
    <path d="M39.92 36.5h1011.74v654.42H39.92z" style="stroke-width:1.07;stroke:none;fill:#EBEBEB"/>
    <path d="M39.92 655.05h1011.73M39.92 543.38h1011.73M39.92 431.71h1011.73M39.92 320.05h1011.73M39.92 208.38h1011.73M39.92 96.72h1011.73M185.88 690.91V36.5m199.95 654.41V36.5m199.95 654.41V36.5m199.94 654.41V36.5m199.95 654.41V36.5" style="stroke-width:0.53;stroke:#FFFFFF;stroke-linecap:butt"/>
    <path d="M39.92 599.21h1011.73M39.92 487.55h1011.73M39.92 375.88h1011.73M39.92 264.22h1011.73M39.92 152.55h1011.73M39.92 40.88h1011.73M85.91 690.91V36.5m199.94 654.41V36.5M485.8 690.91V36.5m199.95 654.41V36.5M885.7 690.91V36.5" style="stroke-width:1.07;stroke:#FFFFFF;stroke-linecap:butt"/>
    <circle cx="85.91" cy="657.93" r="1.95" style="stroke-width:0.71;stroke:#377EB8;stroke-opacity:0.70;fill:#377EB8;fill-opacity:0.70"/>
    <circle cx="85.91" cy="657.71" r="1.95" style="stroke-width:0.71;stroke:#4DAF4A;stroke-opacity:0.70;fill:#4DAF4A;fill-opacity:0.70"/>
    <circle cx="85.91" cy="657.75" r="1.95" style="stroke-width:0.71;stroke:#984EA3;stroke-opacity:0.70;fill:#984EA3;fill-opacity:0.70"/>
    <circle cx="85.91" cy="613.59" r="1.95" style="stroke-width:0.71;stroke:#E41A1C;stroke-opacity:0.70;fill:#E41A1C;fill-opacity:0.70"/>
    <circle cx="93.9" cy="648.58" r="1.95" style="stroke-width:0.71;stroke:#377EB8;stroke-opacity:0.70;fill:#377EB8;fill-opacity:0.70"/>
    <circle cx="93.9" cy="648.07" r="1.95" style="stroke-width:0.71;stroke:#4DAF4A;stroke-opacity:0.70;fill:#4DAF4A;fill-opacity:0.70"/>
    <circle cx="93.9" cy="648.63" r="1.95" style="stroke-width:0.71;stroke:#984EA3;stroke-opacity:0.70;fill:#984EA3;fill-opacity:0.70"/>
    <circle cx="93.9" cy="603.96" r="1.95" style="stroke-width:0.71;stroke:#E41A1C;stroke-opacity:0.70;fill:#E41A1C;fill-opacity:0.70"/>
    <circle cx="109.9" cy="661.07" r="1.95" style="stroke-width:0.71;stroke:#377EB8;stroke-opacity:0.70;fill:#377EB8;fill-opacity:0.70"/>
    <circle cx="109.9" cy="661.16" r="1.95" style="stroke-width:0.71;stroke:#4DAF4A;stroke-opacity:0.70;fill:#4DAF4A;fill-opacity:0.70"/>
    <circle cx="109.9" cy="661.07" r="1.95" style="stroke-width:0.71;stroke:#984EA3;stroke-opacity:0.70;fill:#984EA3;fill-opacity:0.70"/>
    <circle cx="109.9" cy="613.59" r="1.95" style="stroke-width:0.71;stroke:#E41A1C;stroke-opacity:0.70;fill:#E41A1C;fill-opacity:0.70"/>
    <circle cx="137.89" cy="658.29" r="1.95" style="stroke-width:0.71;stroke:#377EB8;stroke-opacity:0.70;fill:#377EB8;fill-opacity:0.70"/>
    <circle cx="137.89" cy="658.33" r="1.95" style="stroke-width:0.71;stroke:#4DAF4A;stroke-opacity:0.70;fill:#4DAF4A;fill-opacity:0.70"/>
    <circle cx="137.89" cy="658.25" r="1.95" style="stroke-width:0.71;stroke:#984EA3;stroke-opacity:0.70;fill:#984EA3;fill-opacity:0.70"/>
    <circle cx="137.89" cy="603.7" r="1.95" style="stroke-width:0.71;stroke:#E41A1C;stroke-opacity:0.70;fill:#E41A1C;fill-opacity:0.70"/>
    <circle cx="185.88" cy="629.9" r="1.95" style="stroke-width:0.71;stroke:#377EB8;stroke-opacity:0.70;fill:#377EB8;fill-opacity:0.70"/>
    <circle cx="185.88" cy="630.02" r="1.95" style="stroke-width:0.71;stroke:#4DAF4A;stroke-opacity:0.70;fill:#4DAF4A;fill-opacity:0.70"/>
    <circle cx="185.88" cy="629.92" r="1.95" style="stroke-width:0.71;stroke:#984EA3;stroke-opacity:0.70;fill:#984EA3;fill-opacity:0.70"/>
    <circle cx="185.88" cy="595.48" r="1.95" style="stroke-width:0.71;stroke:#E41A1C;stroke-opacity:0.70;fill:#E41A1C;fill-opacity:0.70"/>
    <circle cx="285.85" cy="579.24" r="1.95" style="stroke-width:0.71;stroke:#377EB8;stroke-opacity:0.70;fill:#377EB8;fill-opacity:0.70"/>
    <circle cx="285.85" cy="579.15" r="1.95" style="stroke-width:0.71;stroke:#4DAF4A;stroke-opacity:0.70;fill:#4DAF4A;fill-opacity:0.70"/>
    <circle cx="285.85" cy="579.18" r="1.95" style="stroke-width:0.71;stroke:#984EA3;stroke-opacity:0.70;fill:#984EA3;fill-opacity:0.70"/>
    <circle cx="285.85" cy="569.22" r="1.95" style="stroke-width:0.71;stroke:#E41A1C;stroke-opacity:0.70;fill:#E41A1C;fill-opacity:0.70"/>
    <circle cx="405.82" cy="525.37" r="1.95" style="stroke-width:0.71;stroke:#377EB8;stroke-opacity:0.70;fill:#377EB8;fill-opacity:0.70"/>
    <circle cx="405.82" cy="525.37" r="1.95" style="stroke-width:0.71;stroke:#4DAF4A;stroke-opacity:0.70;fill:#4DAF4A;fill-opacity:0.70"/>
    <circle cx="405.82" cy="525.69" r="1.95" style="stroke-width:0.71;stroke:#984EA3;stroke-opacity:0.70;fill:#984EA3;fill-opacity:0.70"/>
    <circle cx="405.82" cy="540.46" r="1.95" style="stroke-width:0.71;stroke:#E41A1C;stroke-opacity:0.70;fill:#E41A1C;fill-opacity:0.70"/>
    <circle cx="537.79" cy="477.56" r="1.95" style="stroke-width:0.71;stroke:#377EB8;stroke-opacity:0.70;fill:#377EB8;fill-opacity:0.70"/>
    <circle cx="537.79" cy="477.06" r="1.95" style="stroke-width:0.71;stroke:#4DAF4A;stroke-opacity:0.70;fill:#4DAF4A;fill-opacity:0.70"/>
    <circle cx="537.79" cy="478.38" r="1.95" style="stroke-width:0.71;stroke:#984EA3;stroke-opacity:0.70;fill:#984EA3;fill-opacity:0.70"/>
    <circle cx="537.79" cy="513.91" r="1.95" style="stroke-width:0.71;stroke:#E41A1C;stroke-opacity:0.70;fill:#E41A1C;fill-opacity:0.70"/>
    <circle cx="625.76" cy="513.35" r="1.95" style="stroke-width:0.71;stroke:#377EB8;stroke-opacity:0.70;fill:#377EB8;fill-opacity:0.70"/>
    <circle cx="625.76" cy="514.29" r="1.95" style="stroke-width:0.71;stroke:#4DAF4A;stroke-opacity:0.70;fill:#4DAF4A;fill-opacity:0.70"/>
    <circle cx="625.76" cy="513.61" r="1.95" style="stroke-width:0.71;stroke:#984EA3;stroke-opacity:0.70;fill:#984EA3;fill-opacity:0.70"/>
    <circle cx="625.76" cy="478.23" r="1.95" style="stroke-width:0.71;stroke:#E41A1C;stroke-opacity:0.70;fill:#E41A1C;fill-opacity:0.70"/>
    <circle cx="685.75" cy="489.33" r="1.95" style="stroke-width:0.71;stroke:#377EB8;stroke-opacity:0.70;fill:#377EB8;fill-opacity:0.70"/>
    <circle cx="685.75" cy="489.2" r="1.95" style="stroke-width:0.71;stroke:#4DAF4A;stroke-opacity:0.70;fill:#4DAF4A;fill-opacity:0.70"/>
    <circle cx="685.75" cy="490.06" r="1.95" style="stroke-width:0.71;stroke:#984EA3;stroke-opacity:0.70;fill:#984EA3;fill-opacity:0.70"/>
    <circle cx="685.75" cy="458.61" r="1.95" style="stroke-width:0.71;stroke:#E41A1C;stroke-opacity:0.70;fill:#E41A1C;fill-opacity:0.70"/>
    <circle cx="745.73" cy="472.01" r="1.95" style="stroke-width:0.71;stroke:#377EB8;stroke-opacity:0.70;fill:#377EB8;fill-opacity:0.70"/>
    <circle cx="745.73" cy="472.42" r="1.95" style="stroke-width:0.71;stroke:#4DAF4A;stroke-opacity:0.70;fill:#4DAF4A;fill-opacity:0.70"/>
    <circle cx="745.73" cy="472.25" r="1.95" style="stroke-width:0.71;stroke:#984EA3;stroke-opacity:0.70;fill:#984EA3;fill-opacity:0.70"/>
    <circle cx="745.73" cy="439.43" r="1.95" style="stroke-width:0.71;stroke:#E41A1C;stroke-opacity:0.70;fill:#E41A1C;fill-opacity:0.70"/>
    <circle cx="825.71" cy="451.04" r="1.95" style="stroke-width:0.71;stroke:#377EB8;stroke-opacity:0.70;fill:#377EB8;fill-opacity:0.70"/>
    <circle cx="825.71" cy="452.22" r="1.95" style="stroke-width:0.71;stroke:#4DAF4A;stroke-opacity:0.70;fill:#4DAF4A;fill-opacity:0.70"/>
    <circle cx="825.71" cy="452.64" r="1.95" style="stroke-width:0.71;stroke:#984EA3;stroke-opacity:0.70;fill:#984EA3;fill-opacity:0.70"/>
    <circle cx="825.71" cy="419.18" r="1.95" style="stroke-width:0.71;stroke:#E41A1C;stroke-opacity:0.70;fill:#E41A1C;fill-opacity:0.70"/>
    <circle cx="885.7" cy="429.53" r="1.95" style="stroke-width:0.71;stroke:#377EB8;stroke-opacity:0.70;fill:#377EB8;fill-opacity:0.70"/>
    <circle cx="885.7" cy="431.18" r="1.95" style="stroke-width:0.71;stroke:#4DAF4A;stroke-opacity:0.70;fill:#4DAF4A;fill-opacity:0.70"/>
    <circle cx="885.7" cy="430.42" r="1.95" style="stroke-width:0.71;stroke:#984EA3;stroke-opacity:0.70;fill:#984EA3;fill-opacity:0.70"/>
    <circle cx="885.7" cy="399.67" r="1.95" style="stroke-width:0.71;stroke:#E41A1C;stroke-opacity:0.70;fill:#E41A1C;fill-opacity:0.70"/>
    <circle cx="945.68" cy="409.16" r="1.95" style="stroke-width:0.71;stroke:#377EB8;stroke-opacity:0.70;fill:#377EB8;fill-opacity:0.70"/>
    <circle cx="945.68" cy="412.29" r="1.95" style="stroke-width:0.71;stroke:#4DAF4A;stroke-opacity:0.70;fill:#4DAF4A;fill-opacity:0.70"/>
    <circle cx="945.68" cy="411.63" r="1.95" style="stroke-width:0.71;stroke:#984EA3;stroke-opacity:0.70;fill:#984EA3;fill-opacity:0.70"/>
    <circle cx="945.68" cy="379.84" r="1.95" style="stroke-width:0.71;stroke:#E41A1C;stroke-opacity:0.70;fill:#E41A1C;fill-opacity:0.70"/>
    <circle cx="1005.67" cy="388.44" r="1.95" style="stroke-width:0.71;stroke:#377EB8;stroke-opacity:0.70;fill:#377EB8;fill-opacity:0.70"/>
    <circle cx="1005.67" cy="391.65" r="1.95" style="stroke-width:0.71;stroke:#4DAF4A;stroke-opacity:0.70;fill:#4DAF4A;fill-opacity:0.70"/>
    <circle cx="1005.67" cy="390.24" r="1.95" style="stroke-width:0.71;stroke:#984EA3;stroke-opacity:0.70;fill:#984EA3;fill-opacity:0.70"/>
    <circle cx="1005.67" cy="361.45" r="1.95" style="stroke-width:0.71;stroke:#E41A1C;stroke-opacity:0.70;fill:#E41A1C;fill-opacity:0.70"/>
    <path d="m85.91 613.59 7.99-9.63 16 9.63 27.99-9.89 47.99-8.22 99.97-26.26 119.97-28.76 131.97-26.55 87.97-35.68 59.99-19.62 59.98-19.18 79.98-20.25 59.99-19.51 59.98-19.83 59.99-18.39" style="stroke-width:1.07;stroke:#E41A1C;stroke-opacity:0.30;stroke-linecap:butt"/>
    <path d="m85.91 657.93 7.99-9.35 16 12.49 27.99-2.78 47.99-28.39 99.97-50.66 119.97-53.87 131.97-47.81 87.97 35.79 59.99-24.02 59.98-17.32 79.98-20.97 59.99-21.51 59.98-20.37 59.99-20.72" style="stroke-width:1.07;stroke:#377EB8;stroke-opacity:0.30;stroke-linecap:butt"/>
    <path d="m85.91 657.71 7.99-9.64 16 13.09 27.99-2.83 47.99-28.31 99.97-50.87 119.97-53.78 131.97-48.31 87.97 37.23 59.99-25.09 59.98-16.78 79.98-20.2 59.99-21.04 59.98-18.89 59.99-20.64" style="stroke-width:1.07;stroke:#4DAF4A;stroke-opacity:0.30;stroke-linecap:butt"/>
    <path d="m85.91 657.75 7.99-9.12 16 12.44 27.99-2.82 47.99-28.33 99.97-50.74 119.97-53.49 131.97-47.31 87.97 35.23 59.99-23.55 59.98-17.81 79.98-19.61 59.99-22.22 59.98-18.79 59.99-21.39" style="stroke-width:1.07;stroke:#984EA3;stroke-opacity:0.30;stroke-linecap:butt"/>
  </g>
  <g clip-path="url(#cpMC4wMHwxMDgwLjAwfDAuMDB8NzIwLjAw)">
    <text x="34.99" y="602.37" lengthAdjust="spacingAndGlyphs" style="font-size:8.80px;fill:#4D4D4D;font-family:&quot;Arial&quot;" text-anchor="end" textLength="14.19">4ns</text>
    <text x="34.99" y="490.7" lengthAdjust="spacingAndGlyphs" style="font-size:8.80px;fill:#4D4D4D;font-family:&quot;Arial&quot;" text-anchor="end" textLength="14.19">8ns</text>
    <text x="34.99" y="379.04" lengthAdjust="spacingAndGlyphs" style="font-size:8.80px;fill:#4D4D4D;font-family:&quot;Arial&quot;" text-anchor="end" textLength="19.09">12ns</text>
    <text x="34.99" y="267.37" lengthAdjust="spacingAndGlyphs" style="font-size:8.80px;fill:#4D4D4D;font-family:&quot;Arial&quot;" text-anchor="end" textLength="19.09">16ns</text>
    <text x="34.99" y="155.7" lengthAdjust="spacingAndGlyphs" style="font-size:8.80px;fill:#4D4D4D;font-family:&quot;Arial&quot;" text-anchor="end" textLength="19.09">20ns</text>
    <text x="34.99" y="44.04" lengthAdjust="spacingAndGlyphs" style="font-size:8.80px;fill:#4D4D4D;font-family:&quot;Arial&quot;" text-anchor="end" textLength="19.09">24ns</text>
    <path d="M37.18 599.21h2.74m-2.74-111.66h2.74m-2.74-111.67h2.74m-2.74-111.66h2.74m-2.74-111.67h2.74M37.18 40.88h2.74m45.99 652.77v-2.74m199.94 2.74v-2.74m199.95 2.74v-2.74m199.95 2.74v-2.74m199.95 2.74v-2.74" style="stroke-width:1.07;stroke:#333333;stroke-linecap:butt"/>
    <text x="85.91" y="702.15" lengthAdjust="spacingAndGlyphs" style="font-size:8.80px;fill:#4D4D4D;font-family:&quot;Arial&quot;" text-anchor="middle" textLength="13.2">0 B</text>
    <text x="285.85" y="702.15" lengthAdjust="spacingAndGlyphs" style="font-size:8.80px;fill:#4D4D4D;font-family:&quot;Arial&quot;" text-anchor="middle" textLength="18.1">50 B</text>
    <text x="485.8" y="702.15" lengthAdjust="spacingAndGlyphs" style="font-size:8.80px;fill:#4D4D4D;font-family:&quot;Arial&quot;" text-anchor="middle" textLength="23">100 B</text>
    <text x="685.75" y="702.15" lengthAdjust="spacingAndGlyphs" style="font-size:8.80px;fill:#4D4D4D;font-family:&quot;Arial&quot;" text-anchor="middle" textLength="23">150 B</text>
    <text x="885.7" y="702.15" lengthAdjust="spacingAndGlyphs" style="font-size:8.80px;fill:#4D4D4D;font-family:&quot;Arial&quot;" text-anchor="middle" textLength="23">200 B</text>
    <text x="545.79" y="714.73" lengthAdjust="spacingAndGlyphs" style="font-size:11.00px;font-family:&quot;Arial&quot;" text-anchor="middle" textLength="21.4">Size</text>
    <text lengthAdjust="spacingAndGlyphs" style="font-size:11.00px;font-family:&quot;Arial&quot;" text-anchor="middle" textLength="24.44" transform="rotate(-90 187.215 176.485)">Time</text>
    <path d="M806.22 512.09h86.17v95.88h-86.17z" style="stroke-width:1.07;stroke:none;fill:#FFFFFF"/>
    <text x="811.7" y="526.67" lengthAdjust="spacingAndGlyphs" style="font-size:11.00px;font-family:&quot;Arial&quot;" textLength="75.21">Implementation</text>
    <path d="M811.7 533.37h17.28v17.28H811.7z" style="stroke-width:1.07;stroke:none;fill:#EBEBEB"/>
    <circle cx="820.34" cy="542.01" r="1.95" style="stroke-width:0.71;stroke:#E41A1C;stroke-opacity:0.70;fill:#E41A1C;fill-opacity:0.70"/>
    <path d="M813.43 542.01h13.82" style="stroke-width:1.07;stroke:#E41A1C;stroke-opacity:0.30;stroke-linecap:butt"/>
    <path d="M811.7 550.65h17.28v17.28H811.7z" style="stroke-width:1.07;stroke:none;fill:#EBEBEB"/>
    <circle cx="820.34" cy="559.29" r="1.95" style="stroke-width:0.71;stroke:#377EB8;stroke-opacity:0.70;fill:#377EB8;fill-opacity:0.70"/>
    <path d="M813.43 559.29h13.82" style="stroke-width:1.07;stroke:#377EB8;stroke-opacity:0.30;stroke-linecap:butt"/>
    <path d="M811.7 567.93h17.28v17.28H811.7z" style="stroke-width:1.07;stroke:none;fill:#EBEBEB"/>
    <circle cx="820.34" cy="576.57" r="1.95" style="stroke-width:0.71;stroke:#4DAF4A;stroke-opacity:0.70;fill:#4DAF4A;fill-opacity:0.70"/>
    <path d="M813.43 576.57h13.82" style="stroke-width:1.07;stroke:#4DAF4A;stroke-opacity:0.30;stroke-linecap:butt"/>
    <path d="M811.7 585.21h17.28v17.28H811.7z" style="stroke-width:1.07;stroke:none;fill:#EBEBEB"/>
    <circle cx="820.34" cy="593.85" r="1.95" style="stroke-width:0.71;stroke:#984EA3;stroke-opacity:0.70;fill:#984EA3;fill-opacity:0.70"/>
    <path d="M813.43 593.85h13.82" style="stroke-width:1.07;stroke:#984EA3;stroke-opacity:0.30;stroke-linecap:butt"/>
    <text x="834.46" y="545.16" lengthAdjust="spacingAndGlyphs" style="font-size:8.80px;font-family:&quot;Arial&quot;" textLength="18.09">Rust</text>
    <text x="834.46" y="562.44" lengthAdjust="spacingAndGlyphs" style="font-size:8.80px;font-family:&quot;Arial&quot;" textLength="6.35">C</text>
    <text x="834.46" y="579.72" lengthAdjust="spacingAndGlyphs" style="font-size:8.80px;font-family:&quot;Arial&quot;" textLength="38.12">C (scalar)</text>
    <text x="834.46" y="597" lengthAdjust="spacingAndGlyphs" style="font-size:8.80px;font-family:&quot;Arial&quot;" textLength="40.06">C (NEON)</text>
    <text x="39.92" y="28.58" lengthAdjust="spacingAndGlyphs" style="font-size:11.00px;font-family:&quot;Arial&quot;" textLength="120.46">aarch64 (Apple M1 Max)</text>
    <text x="39.92" y="12.3" lengthAdjust="spacingAndGlyphs" style="font-size:13.20px;font-family:&quot;Arial&quot;" textLength="363.66">[xxhash3_64] Hashing small amounts of bytes (lower is better)</text>
  </g>
</svg>
