<svg xmlns="http://www.w3.org/2000/svg" width="1440" height="960" class="svglite" viewBox="0 0 1080 720">
  <defs>
    <style>
      <![CDATA[.svglite line,.svglite polyline,.svglite polygon,.svglite path,.svglite circle{fill:none;stroke:#000000;stroke-linecap:round;stroke-linejoin:round;stroke-miterlimit:10.00}.svglite text{white-space:pre}]]>
    </style>
  </defs>
  <rect width="100%" height="100%" style="stroke-linecap:round;stroke-linejoin:round;stroke-miterlimit:10.00;stroke:none;fill:#FFFFFF"/>
  <defs>
    <clipPath id="cpMC4wMHwxMDgwLjAwfDAuMDB8NzIwLjAw">
      <path d="M0 0h1080v720H0z"/>
    </clipPath>
  </defs>
  <g clip-path="url(#cpMC4wMHwxMDgwLjAwfDAuMDB8NzIwLjAw)">
    <path d="M0 0h1080v720H0z" style="stroke-width:1.07;stroke:#FFFFFF;fill:#FFFFFF"/>
  </g>
  <defs>
    <clipPath id="cpMzUuMDJ8MTA1MS42NXwzNi41MHw2OTAuOTE=">
      <path d="M35.02 36.5h1016.63v654.42H35.02z"/>
    </clipPath>
  </defs>
  <g clip-path="url(#cpMzUuMDJ8MTA1MS42NXwzNi41MHw2OTAuOTE=)">
    <path d="M35.02 36.5h1016.63v654.42H35.02z" style="stroke-width:1.07;stroke:none;fill:#EBEBEB"/>
    <path d="M35.02 600.26h1016.63M35.02 440.79h1016.63M35.02 281.31h1016.63M35.02 121.84h1016.63M225.64 690.91V36.5m288.82 654.41V36.5m288.81 654.41V36.5" style="stroke-width:0.53;stroke:#FFFFFF;stroke-linecap:butt"/>
    <path d="M35.02 680h1016.63M35.02 520.52h1016.63M35.02 361.05h1016.63M35.02 201.57h1016.63M35.02 42.1h1016.63M81.23 690.91V36.5m288.82 654.41V36.5m288.81 654.41V36.5m288.82 654.41V36.5" style="stroke-width:1.07;stroke:#FFFFFF;stroke-linecap:butt"/>
    <circle cx="81.23" cy="473.78" r="1.95" style="stroke-width:0.71;stroke:#377EB8;stroke-opacity:0.70;fill:#377EB8;fill-opacity:0.70"/>
    <circle cx="81.23" cy="661.16" r="1.95" style="stroke-width:0.71;stroke:#E41A1C;stroke-opacity:0.70;fill:#E41A1C;fill-opacity:0.70"/>
    <circle cx="110.11" cy="452.32" r="1.95" style="stroke-width:0.71;stroke:#377EB8;stroke-opacity:0.70;fill:#377EB8;fill-opacity:0.70"/>
    <circle cx="110.11" cy="571.76" r="1.95" style="stroke-width:0.71;stroke:#E41A1C;stroke-opacity:0.70;fill:#E41A1C;fill-opacity:0.70"/>
    <circle cx="139" cy="434.27" r="1.95" style="stroke-width:0.71;stroke:#377EB8;stroke-opacity:0.70;fill:#377EB8;fill-opacity:0.70"/>
    <circle cx="139" cy="539.83" r="1.95" style="stroke-width:0.71;stroke:#E41A1C;stroke-opacity:0.70;fill:#E41A1C;fill-opacity:0.70"/>
    <circle cx="167.88" cy="396" r="1.95" style="stroke-width:0.71;stroke:#377EB8;stroke-opacity:0.70;fill:#377EB8;fill-opacity:0.70"/>
    <circle cx="167.88" cy="500.74" r="1.95" style="stroke-width:0.71;stroke:#E41A1C;stroke-opacity:0.70;fill:#E41A1C;fill-opacity:0.70"/>
    <circle cx="196.76" cy="479.14" r="1.95" style="stroke-width:0.71;stroke:#377EB8;stroke-opacity:0.70;fill:#377EB8;fill-opacity:0.70"/>
    <circle cx="196.76" cy="561.86" r="1.95" style="stroke-width:0.71;stroke:#E41A1C;stroke-opacity:0.70;fill:#E41A1C;fill-opacity:0.70"/>
    <circle cx="225.64" cy="441.51" r="1.95" style="stroke-width:0.71;stroke:#377EB8;stroke-opacity:0.70;fill:#377EB8;fill-opacity:0.70"/>
    <circle cx="225.64" cy="502.3" r="1.95" style="stroke-width:0.71;stroke:#E41A1C;stroke-opacity:0.70;fill:#E41A1C;fill-opacity:0.70"/>
    <circle cx="254.52" cy="400.62" r="1.95" style="stroke-width:0.71;stroke:#377EB8;stroke-opacity:0.70;fill:#377EB8;fill-opacity:0.70"/>
    <circle cx="254.52" cy="455.59" r="1.95" style="stroke-width:0.71;stroke:#E41A1C;stroke-opacity:0.70;fill:#E41A1C;fill-opacity:0.70"/>
    <circle cx="283.4" cy="355.13" r="1.95" style="stroke-width:0.71;stroke:#377EB8;stroke-opacity:0.70;fill:#377EB8;fill-opacity:0.70"/>
    <circle cx="283.4" cy="409.87" r="1.95" style="stroke-width:0.71;stroke:#E41A1C;stroke-opacity:0.70;fill:#E41A1C;fill-opacity:0.70"/>
    <circle cx="312.29" cy="427.48" r="1.95" style="stroke-width:0.71;stroke:#377EB8;stroke-opacity:0.70;fill:#377EB8;fill-opacity:0.70"/>
    <circle cx="312.29" cy="519.87" r="1.95" style="stroke-width:0.71;stroke:#E41A1C;stroke-opacity:0.70;fill:#E41A1C;fill-opacity:0.70"/>
    <circle cx="341.17" cy="401.36" r="1.95" style="stroke-width:0.71;stroke:#377EB8;stroke-opacity:0.70;fill:#377EB8;fill-opacity:0.70"/>
    <circle cx="341.17" cy="452.36" r="1.95" style="stroke-width:0.71;stroke:#E41A1C;stroke-opacity:0.70;fill:#E41A1C;fill-opacity:0.70"/>
    <circle cx="370.05" cy="346.96" r="1.95" style="stroke-width:0.71;stroke:#377EB8;stroke-opacity:0.70;fill:#377EB8;fill-opacity:0.70"/>
    <circle cx="370.05" cy="407.55" r="1.95" style="stroke-width:0.71;stroke:#E41A1C;stroke-opacity:0.70;fill:#E41A1C;fill-opacity:0.70"/>
    <circle cx="398.93" cy="283.4" r="1.95" style="stroke-width:0.71;stroke:#377EB8;stroke-opacity:0.70;fill:#377EB8;fill-opacity:0.70"/>
    <circle cx="398.93" cy="347.36" r="1.95" style="stroke-width:0.71;stroke:#E41A1C;stroke-opacity:0.70;fill:#E41A1C;fill-opacity:0.70"/>
    <circle cx="427.81" cy="384.78" r="1.95" style="stroke-width:0.71;stroke:#377EB8;stroke-opacity:0.70;fill:#377EB8;fill-opacity:0.70"/>
    <circle cx="427.81" cy="462.46" r="1.95" style="stroke-width:0.71;stroke:#E41A1C;stroke-opacity:0.70;fill:#E41A1C;fill-opacity:0.70"/>
    <circle cx="456.69" cy="351.56" r="1.95" style="stroke-width:0.71;stroke:#377EB8;stroke-opacity:0.70;fill:#377EB8;fill-opacity:0.70"/>
    <circle cx="456.69" cy="404.03" r="1.95" style="stroke-width:0.71;stroke:#E41A1C;stroke-opacity:0.70;fill:#E41A1C;fill-opacity:0.70"/>
    <circle cx="485.57" cy="299.27" r="1.95" style="stroke-width:0.71;stroke:#377EB8;stroke-opacity:0.70;fill:#377EB8;fill-opacity:0.70"/>
    <circle cx="485.57" cy="351.2" r="1.95" style="stroke-width:0.71;stroke:#E41A1C;stroke-opacity:0.70;fill:#E41A1C;fill-opacity:0.70"/>
    <circle cx="514.46" cy="246.99" r="1.95" style="stroke-width:0.71;stroke:#377EB8;stroke-opacity:0.70;fill:#377EB8;fill-opacity:0.70"/>
    <circle cx="514.46" cy="291.56" r="1.95" style="stroke-width:0.71;stroke:#E41A1C;stroke-opacity:0.70;fill:#E41A1C;fill-opacity:0.70"/>
    <circle cx="543.34" cy="371.2" r="1.95" style="stroke-width:0.71;stroke:#377EB8;stroke-opacity:0.70;fill:#377EB8;fill-opacity:0.70"/>
    <circle cx="543.34" cy="437.31" r="1.95" style="stroke-width:0.71;stroke:#E41A1C;stroke-opacity:0.70;fill:#E41A1C;fill-opacity:0.70"/>
    <circle cx="572.22" cy="327.8" r="1.95" style="stroke-width:0.71;stroke:#377EB8;stroke-opacity:0.70;fill:#377EB8;fill-opacity:0.70"/>
    <circle cx="572.22" cy="348.48" r="1.95" style="stroke-width:0.71;stroke:#E41A1C;stroke-opacity:0.70;fill:#E41A1C;fill-opacity:0.70"/>
    <circle cx="601.1" cy="266.92" r="1.95" style="stroke-width:0.71;stroke:#377EB8;stroke-opacity:0.70;fill:#377EB8;fill-opacity:0.70"/>
    <circle cx="601.1" cy="329.3" r="1.95" style="stroke-width:0.71;stroke:#E41A1C;stroke-opacity:0.70;fill:#E41A1C;fill-opacity:0.70"/>
    <circle cx="629.98" cy="231.81" r="1.95" style="stroke-width:0.71;stroke:#377EB8;stroke-opacity:0.70;fill:#377EB8;fill-opacity:0.70"/>
    <circle cx="629.98" cy="286.72" r="1.95" style="stroke-width:0.71;stroke:#E41A1C;stroke-opacity:0.70;fill:#E41A1C;fill-opacity:0.70"/>
    <circle cx="658.86" cy="312.79" r="1.95" style="stroke-width:0.71;stroke:#377EB8;stroke-opacity:0.70;fill:#377EB8;fill-opacity:0.70"/>
    <circle cx="658.86" cy="359.56" r="1.95" style="stroke-width:0.71;stroke:#E41A1C;stroke-opacity:0.70;fill:#E41A1C;fill-opacity:0.70"/>
    <circle cx="687.75" cy="253.2" r="1.95" style="stroke-width:0.71;stroke:#377EB8;stroke-opacity:0.70;fill:#377EB8;fill-opacity:0.70"/>
    <circle cx="687.75" cy="298.02" r="1.95" style="stroke-width:0.71;stroke:#E41A1C;stroke-opacity:0.70;fill:#E41A1C;fill-opacity:0.70"/>
    <circle cx="716.63" cy="196.68" r="1.95" style="stroke-width:0.71;stroke:#377EB8;stroke-opacity:0.70;fill:#377EB8;fill-opacity:0.70"/>
    <circle cx="716.63" cy="234.42" r="1.95" style="stroke-width:0.71;stroke:#E41A1C;stroke-opacity:0.70;fill:#E41A1C;fill-opacity:0.70"/>
    <circle cx="745.51" cy="151.61" r="1.95" style="stroke-width:0.71;stroke:#377EB8;stroke-opacity:0.70;fill:#377EB8;fill-opacity:0.70"/>
    <circle cx="745.51" cy="177.84" r="1.95" style="stroke-width:0.71;stroke:#E41A1C;stroke-opacity:0.70;fill:#E41A1C;fill-opacity:0.70"/>
    <circle cx="774.39" cy="312.92" r="1.95" style="stroke-width:0.71;stroke:#377EB8;stroke-opacity:0.70;fill:#377EB8;fill-opacity:0.70"/>
    <circle cx="774.39" cy="371.03" r="1.95" style="stroke-width:0.71;stroke:#E41A1C;stroke-opacity:0.70;fill:#E41A1C;fill-opacity:0.70"/>
    <circle cx="803.27" cy="264.68" r="1.95" style="stroke-width:0.71;stroke:#377EB8;stroke-opacity:0.70;fill:#377EB8;fill-opacity:0.70"/>
    <circle cx="803.27" cy="321.01" r="1.95" style="stroke-width:0.71;stroke:#E41A1C;stroke-opacity:0.70;fill:#E41A1C;fill-opacity:0.70"/>
    <circle cx="832.15" cy="206.03" r="1.95" style="stroke-width:0.71;stroke:#377EB8;stroke-opacity:0.70;fill:#377EB8;fill-opacity:0.70"/>
    <circle cx="832.15" cy="254.12" r="1.95" style="stroke-width:0.71;stroke:#E41A1C;stroke-opacity:0.70;fill:#E41A1C;fill-opacity:0.70"/>
    <circle cx="861.04" cy="142.27" r="1.95" style="stroke-width:0.71;stroke:#377EB8;stroke-opacity:0.70;fill:#377EB8;fill-opacity:0.70"/>
    <circle cx="861.04" cy="189.37" r="1.95" style="stroke-width:0.71;stroke:#E41A1C;stroke-opacity:0.70;fill:#E41A1C;fill-opacity:0.70"/>
    <circle cx="889.92" cy="252.12" r="1.95" style="stroke-width:0.71;stroke:#377EB8;stroke-opacity:0.70;fill:#377EB8;fill-opacity:0.70"/>
    <circle cx="889.92" cy="314.83" r="1.95" style="stroke-width:0.71;stroke:#E41A1C;stroke-opacity:0.70;fill:#E41A1C;fill-opacity:0.70"/>
    <circle cx="918.8" cy="196.74" r="1.95" style="stroke-width:0.71;stroke:#377EB8;stroke-opacity:0.70;fill:#377EB8;fill-opacity:0.70"/>
    <circle cx="918.8" cy="233.28" r="1.95" style="stroke-width:0.71;stroke:#E41A1C;stroke-opacity:0.70;fill:#E41A1C;fill-opacity:0.70"/>
    <circle cx="947.68" cy="118.15" r="1.95" style="stroke-width:0.71;stroke:#377EB8;stroke-opacity:0.70;fill:#377EB8;fill-opacity:0.70"/>
    <circle cx="947.68" cy="167.92" r="1.95" style="stroke-width:0.71;stroke:#E41A1C;stroke-opacity:0.70;fill:#E41A1C;fill-opacity:0.70"/>
    <circle cx="976.56" cy="66.24" r="1.95" style="stroke-width:0.71;stroke:#377EB8;stroke-opacity:0.70;fill:#377EB8;fill-opacity:0.70"/>
    <circle cx="976.56" cy="90.64" r="1.95" style="stroke-width:0.71;stroke:#E41A1C;stroke-opacity:0.70;fill:#E41A1C;fill-opacity:0.70"/>
    <circle cx="1005.44" cy="105.44" r="1.95" style="stroke-width:0.71;stroke:#377EB8;stroke-opacity:0.70;fill:#377EB8;fill-opacity:0.70"/>
    <circle cx="1005.44" cy="150.71" r="1.95" style="stroke-width:0.71;stroke:#E41A1C;stroke-opacity:0.70;fill:#E41A1C;fill-opacity:0.70"/>
    <path d="m81.23 661.16 28.88-89.4L139 539.83l28.88-39.09 28.88 61.12 28.88-59.56 28.88-46.71 28.88-45.72 28.89 110 28.88-67.51 28.88-44.81 28.88-60.19 28.88 115.1 28.88-58.43 28.88-52.83 28.89-59.64 28.88 145.75 28.88-88.83 28.88-19.18 28.88-42.58 28.88 72.84 28.89-61.54 28.88-63.6 28.88-56.58 28.88 193.19 28.88-50.02 28.88-66.89 28.89-64.75 28.88 125.46 28.88-81.55 28.88-65.36 28.88-77.28 28.88 60.07" style="stroke-width:1.07;stroke:#E41A1C;stroke-opacity:0.30;stroke-linecap:butt"/>
    <path d="m81.23 473.78 28.88-21.46L139 434.27 167.88 396l28.88 83.14 28.88-37.63 28.88-40.89 28.88-45.49 28.89 72.35 28.88-26.12 28.88-54.4 28.88-63.56 28.88 101.38 28.88-33.22 28.88-52.29 28.89-52.28 28.88 124.21 28.88-43.4 28.88-60.88 28.88-35.11 28.88 80.98 28.89-59.59 28.88-56.52 28.88-45.07 28.88 161.31 28.88-48.24 28.88-58.65 28.89-63.76 28.88 109.85 28.88-55.38 28.88-78.59 28.88-51.91 28.88 39.2" style="stroke-width:1.07;stroke:#377EB8;stroke-opacity:0.30;stroke-linecap:butt"/>
  </g>
  <g clip-path="url(#cpMC4wMHwxMDgwLjAwfDAuMDB8NzIwLjAw)">
    <text x="30.09" y="683.15" lengthAdjust="spacingAndGlyphs" style="font-size:8.80px;fill:#4D4D4D;font-family:&quot;Arial&quot;" text-anchor="end" textLength="4.9">0</text>
    <text x="30.09" y="523.68" lengthAdjust="spacingAndGlyphs" style="font-size:8.80px;fill:#4D4D4D;font-family:&quot;Arial&quot;" text-anchor="end" textLength="14.19">2ns</text>
    <text x="30.09" y="364.2" lengthAdjust="spacingAndGlyphs" style="font-size:8.80px;fill:#4D4D4D;font-family:&quot;Arial&quot;" text-anchor="end" textLength="14.19">4ns</text>
    <text x="30.09" y="204.73" lengthAdjust="spacingAndGlyphs" style="font-size:8.80px;fill:#4D4D4D;font-family:&quot;Arial&quot;" text-anchor="end" textLength="14.19">6ns</text>
    <text x="30.09" y="45.25" lengthAdjust="spacingAndGlyphs" style="font-size:8.80px;fill:#4D4D4D;font-family:&quot;Arial&quot;" text-anchor="end" textLength="14.19">8ns</text>
    <path d="M32.28 680h2.74m-2.74-159.48h2.74m-2.74-159.47h2.74m-2.74-159.48h2.74M32.28 42.1h2.74m46.21 651.55v-2.74m288.82 2.74v-2.74m288.81 2.74v-2.74m288.82 2.74v-2.74" style="stroke-width:1.07;stroke:#333333;stroke-linecap:butt"/>
    <text x="81.23" y="702.15" lengthAdjust="spacingAndGlyphs" style="font-size:8.80px;fill:#4D4D4D;font-family:&quot;Arial&quot;" text-anchor="middle" textLength="13.2">0 B</text>
    <text x="370.05" y="702.15" lengthAdjust="spacingAndGlyphs" style="font-size:8.80px;fill:#4D4D4D;font-family:&quot;Arial&quot;" text-anchor="middle" textLength="18.1">10 B</text>
    <text x="658.86" y="702.15" lengthAdjust="spacingAndGlyphs" style="font-size:8.80px;fill:#4D4D4D;font-family:&quot;Arial&quot;" text-anchor="middle" textLength="18.1">20 B</text>
    <text x="947.68" y="702.15" lengthAdjust="spacingAndGlyphs" style="font-size:8.80px;fill:#4D4D4D;font-family:&quot;Arial&quot;" text-anchor="middle" textLength="18.1">30 B</text>
    <text x="543.34" y="714.73" lengthAdjust="spacingAndGlyphs" style="font-size:11.00px;font-family:&quot;Arial&quot;" text-anchor="middle" textLength="21.4">Size</text>
    <text lengthAdjust="spacingAndGlyphs" style="font-size:11.00px;font-family:&quot;Arial&quot;" text-anchor="middle" textLength="24.44" transform="rotate(-90 187.215 176.485)">Time</text>
    <path d="M805.24 529.37h86.17v61.32h-86.17z" style="stroke-width:1.07;stroke:none;fill:#FFFFFF"/>
    <text x="810.72" y="543.95" lengthAdjust="spacingAndGlyphs" style="font-size:11.00px;font-family:&quot;Arial&quot;" textLength="75.21">Implementation</text>
    <path d="M810.72 550.65H828v17.28h-17.28z" style="stroke-width:1.07;stroke:none;fill:#EBEBEB"/>
    <circle cx="819.36" cy="559.29" r="1.95" style="stroke-width:0.71;stroke:#E41A1C;stroke-opacity:0.70;fill:#E41A1C;fill-opacity:0.70"/>
    <path d="M812.45 559.29h13.82" style="stroke-width:1.07;stroke:#E41A1C;stroke-opacity:0.30;stroke-linecap:butt"/>
    <path d="M810.72 567.93H828v17.28h-17.28z" style="stroke-width:1.07;stroke:none;fill:#EBEBEB"/>
    <circle cx="819.36" cy="576.57" r="1.95" style="stroke-width:0.71;stroke:#377EB8;stroke-opacity:0.70;fill:#377EB8;fill-opacity:0.70"/>
    <path d="M812.45 576.57h13.82" style="stroke-width:1.07;stroke:#377EB8;stroke-opacity:0.30;stroke-linecap:butt"/>
    <text x="833.48" y="562.44" lengthAdjust="spacingAndGlyphs" style="font-size:8.80px;font-family:&quot;Arial&quot;" textLength="18.09">Rust</text>
    <text x="833.48" y="579.72" lengthAdjust="spacingAndGlyphs" style="font-size:8.80px;font-family:&quot;Arial&quot;" textLength="6.35">C</text>
    <text x="35.02" y="28.58" lengthAdjust="spacingAndGlyphs" style="font-size:11.00px;font-family:&quot;Arial&quot;" textLength="149.21">x86_64 (AMD Ryzen 9 3950X)</text>
    <text x="35.02" y="12.3" lengthAdjust="spacingAndGlyphs" style="font-size:13.20px;font-family:&quot;Arial&quot;" textLength="348.98">[xxhash64] Hashing small amounts of bytes (lower is better)</text>
  </g>
</svg>
