<svg xmlns="http://www.w3.org/2000/svg" width="1440" height="960" class="svglite" viewBox="0 0 1080 720">
  <defs>
    <style>
      <![CDATA[.svglite line,.svglite polyline,.svglite polygon,.svglite path,.svglite circle{fill:none;stroke:#000000;stroke-linecap:round;stroke-linejoin:round;stroke-miterlimit:10.00}.svglite text{white-space:pre}]]>
    </style>
  </defs>
  <rect width="100%" height="100%" style="stroke-linecap:round;stroke-linejoin:round;stroke-miterlimit:10.00;stroke:none;fill:#FFFFFF"/>
  <defs>
    <clipPath id="cpMC4wMHwxMDgwLjAwfDAuMDB8NzIwLjAw">
      <path d="M0 0h1080v720H0z"/>
    </clipPath>
  </defs>
  <g clip-path="url(#cpMC4wMHwxMDgwLjAwfDAuMDB8NzIwLjAw)">
    <path d="M0 0h1080v720H0z" style="stroke-width:1.07;stroke:#FFFFFF;fill:#FFFFFF"/>
  </g>
  <defs>
    <clipPath id="cpNjkuMjR8MTA1MS42NXwzNi41MHw2OTAuOTE=">
      <path d="M69.24 36.5h982.41v654.42H69.24z"/>
    </clipPath>
  </defs>
  <g clip-path="url(#cpNjkuMjR8MTA1MS42NXwzNi41MHw2OTAuOTE=)">
    <path d="M69.24 36.5h982.41v654.42H69.24z" style="stroke-width:1.07;stroke:none;fill:#EBEBEB"/>
    <path d="M69.24 661.16h982.41M69.24 615.4h982.41M69.24 569.64h982.41M69.24 523.87h982.41M69.24 478.11h982.41M69.24 432.35h982.41M69.24 386.58h982.41M69.24 340.82h982.41M69.24 295.06h982.41M69.24 249.29h982.41M69.24 203.53h982.41M69.24 157.77h982.41M69.24 112h982.41M69.24 66.24h982.41M113.9 690.91V36.5m44.65 654.41V36.5m44.66 654.41V36.5m44.65 654.41V36.5m44.66 654.41V36.5m44.65 654.41V36.5m44.66 654.41V36.5m44.65 654.41V36.5m44.66 654.41V36.5m44.65 654.41V36.5m44.66 654.41V36.5m44.65 654.41V36.5m44.66 654.41V36.5m44.65 654.41V36.5m44.66 654.41V36.5m44.65 654.41V36.5m44.66 654.41V36.5m44.65 654.41V36.5m44.66 654.41V36.5m44.65 654.41V36.5M1007 690.91V36.5m44.65 654.41V36.5" style="stroke-width:1.07;stroke:#FFFFFF;stroke-linecap:butt"/>
    <circle cx="1007" cy="123.63" r="1.95" style="stroke-width:0.71;stroke:#377EB8;stroke-opacity:0.70;fill:#377EB8;fill-opacity:0.70"/>
    <circle cx="1007" cy="201.36" r="1.95" style="stroke-width:0.71;stroke:#4DAF4A;stroke-opacity:0.70;fill:#4DAF4A;fill-opacity:0.70"/>
    <circle cx="1007" cy="76.15" r="1.95" style="stroke-width:0.71;stroke:#FF7F00;stroke-opacity:0.70;fill:#FF7F00;fill-opacity:0.70"/>
    <circle cx="1007" cy="123.96" r="1.95" style="stroke-width:0.71;stroke:#984EA3;stroke-opacity:0.70;fill:#984EA3;fill-opacity:0.70"/>
    <circle cx="1007" cy="73.73" r="1.95" style="stroke-width:0.71;stroke:#E41A1C;stroke-opacity:0.70;fill:#E41A1C;fill-opacity:0.70"/>
    <circle cx="962.34" cy="124.01" r="1.95" style="stroke-width:0.71;stroke:#377EB8;stroke-opacity:0.70;fill:#377EB8;fill-opacity:0.70"/>
    <circle cx="962.34" cy="201.19" r="1.95" style="stroke-width:0.71;stroke:#4DAF4A;stroke-opacity:0.70;fill:#4DAF4A;fill-opacity:0.70"/>
    <circle cx="962.34" cy="77.73" r="1.95" style="stroke-width:0.71;stroke:#FF7F00;stroke-opacity:0.70;fill:#FF7F00;fill-opacity:0.70"/>
    <circle cx="962.34" cy="124.25" r="1.95" style="stroke-width:0.71;stroke:#984EA3;stroke-opacity:0.70;fill:#984EA3;fill-opacity:0.70"/>
    <circle cx="962.34" cy="74.67" r="1.95" style="stroke-width:0.71;stroke:#E41A1C;stroke-opacity:0.70;fill:#E41A1C;fill-opacity:0.70"/>
    <circle cx="917.69" cy="124.92" r="1.95" style="stroke-width:0.71;stroke:#377EB8;stroke-opacity:0.70;fill:#377EB8;fill-opacity:0.70"/>
    <circle cx="917.69" cy="201.67" r="1.95" style="stroke-width:0.71;stroke:#4DAF4A;stroke-opacity:0.70;fill:#4DAF4A;fill-opacity:0.70"/>
    <circle cx="917.69" cy="77.68" r="1.95" style="stroke-width:0.71;stroke:#FF7F00;stroke-opacity:0.70;fill:#FF7F00;fill-opacity:0.70"/>
    <circle cx="917.69" cy="124.36" r="1.95" style="stroke-width:0.71;stroke:#984EA3;stroke-opacity:0.70;fill:#984EA3;fill-opacity:0.70"/>
    <circle cx="917.69" cy="75.15" r="1.95" style="stroke-width:0.71;stroke:#E41A1C;stroke-opacity:0.70;fill:#E41A1C;fill-opacity:0.70"/>
    <circle cx="873.03" cy="124.24" r="1.95" style="stroke-width:0.71;stroke:#377EB8;stroke-opacity:0.70;fill:#377EB8;fill-opacity:0.70"/>
    <circle cx="873.03" cy="201.49" r="1.95" style="stroke-width:0.71;stroke:#4DAF4A;stroke-opacity:0.70;fill:#4DAF4A;fill-opacity:0.70"/>
    <circle cx="873.03" cy="79.01" r="1.95" style="stroke-width:0.71;stroke:#FF7F00;stroke-opacity:0.70;fill:#FF7F00;fill-opacity:0.70"/>
    <circle cx="873.03" cy="125.19" r="1.95" style="stroke-width:0.71;stroke:#984EA3;stroke-opacity:0.70;fill:#984EA3;fill-opacity:0.70"/>
    <circle cx="873.03" cy="74.97" r="1.95" style="stroke-width:0.71;stroke:#E41A1C;stroke-opacity:0.70;fill:#E41A1C;fill-opacity:0.70"/>
    <circle cx="828.38" cy="124.83" r="1.95" style="stroke-width:0.71;stroke:#377EB8;stroke-opacity:0.70;fill:#377EB8;fill-opacity:0.70"/>
    <circle cx="828.38" cy="202.46" r="1.95" style="stroke-width:0.71;stroke:#4DAF4A;stroke-opacity:0.70;fill:#4DAF4A;fill-opacity:0.70"/>
    <circle cx="828.38" cy="82.29" r="1.95" style="stroke-width:0.71;stroke:#FF7F00;stroke-opacity:0.70;fill:#FF7F00;fill-opacity:0.70"/>
    <circle cx="828.38" cy="124.63" r="1.95" style="stroke-width:0.71;stroke:#984EA3;stroke-opacity:0.70;fill:#984EA3;fill-opacity:0.70"/>
    <circle cx="828.38" cy="75.99" r="1.95" style="stroke-width:0.71;stroke:#E41A1C;stroke-opacity:0.70;fill:#E41A1C;fill-opacity:0.70"/>
    <circle cx="783.72" cy="125.47" r="1.95" style="stroke-width:0.71;stroke:#377EB8;stroke-opacity:0.70;fill:#377EB8;fill-opacity:0.70"/>
    <circle cx="783.72" cy="202.45" r="1.95" style="stroke-width:0.71;stroke:#4DAF4A;stroke-opacity:0.70;fill:#4DAF4A;fill-opacity:0.70"/>
    <circle cx="783.72" cy="86.91" r="1.95" style="stroke-width:0.71;stroke:#FF7F00;stroke-opacity:0.70;fill:#FF7F00;fill-opacity:0.70"/>
    <circle cx="783.72" cy="125.71" r="1.95" style="stroke-width:0.71;stroke:#984EA3;stroke-opacity:0.70;fill:#984EA3;fill-opacity:0.70"/>
    <circle cx="783.72" cy="77.94" r="1.95" style="stroke-width:0.71;stroke:#E41A1C;stroke-opacity:0.70;fill:#E41A1C;fill-opacity:0.70"/>
    <circle cx="739.07" cy="127.28" r="1.95" style="stroke-width:0.71;stroke:#377EB8;stroke-opacity:0.70;fill:#377EB8;fill-opacity:0.70"/>
    <circle cx="739.07" cy="202.55" r="1.95" style="stroke-width:0.71;stroke:#4DAF4A;stroke-opacity:0.70;fill:#4DAF4A;fill-opacity:0.70"/>
    <circle cx="739.07" cy="94.99" r="1.95" style="stroke-width:0.71;stroke:#FF7F00;stroke-opacity:0.70;fill:#FF7F00;fill-opacity:0.70"/>
    <circle cx="739.07" cy="126.39" r="1.95" style="stroke-width:0.71;stroke:#984EA3;stroke-opacity:0.70;fill:#984EA3;fill-opacity:0.70"/>
    <circle cx="739.07" cy="80.41" r="1.95" style="stroke-width:0.71;stroke:#E41A1C;stroke-opacity:0.70;fill:#E41A1C;fill-opacity:0.70"/>
    <circle cx="694.41" cy="128.38" r="1.95" style="stroke-width:0.71;stroke:#377EB8;stroke-opacity:0.70;fill:#377EB8;fill-opacity:0.70"/>
    <circle cx="694.41" cy="204.18" r="1.95" style="stroke-width:0.71;stroke:#4DAF4A;stroke-opacity:0.70;fill:#4DAF4A;fill-opacity:0.70"/>
    <circle cx="694.41" cy="109.29" r="1.95" style="stroke-width:0.71;stroke:#FF7F00;stroke-opacity:0.70;fill:#FF7F00;fill-opacity:0.70"/>
    <circle cx="694.41" cy="128.33" r="1.95" style="stroke-width:0.71;stroke:#984EA3;stroke-opacity:0.70;fill:#984EA3;fill-opacity:0.70"/>
    <circle cx="694.41" cy="84.94" r="1.95" style="stroke-width:0.71;stroke:#E41A1C;stroke-opacity:0.70;fill:#E41A1C;fill-opacity:0.70"/>
    <circle cx="649.76" cy="131.75" r="1.95" style="stroke-width:0.71;stroke:#377EB8;stroke-opacity:0.70;fill:#377EB8;fill-opacity:0.70"/>
    <circle cx="649.76" cy="205.08" r="1.95" style="stroke-width:0.71;stroke:#4DAF4A;stroke-opacity:0.70;fill:#4DAF4A;fill-opacity:0.70"/>
    <circle cx="649.76" cy="129.02" r="1.95" style="stroke-width:0.71;stroke:#FF7F00;stroke-opacity:0.70;fill:#FF7F00;fill-opacity:0.70"/>
    <circle cx="649.76" cy="130.81" r="1.95" style="stroke-width:0.71;stroke:#984EA3;stroke-opacity:0.70;fill:#984EA3;fill-opacity:0.70"/>
    <circle cx="649.76" cy="90.19" r="1.95" style="stroke-width:0.71;stroke:#E41A1C;stroke-opacity:0.70;fill:#E41A1C;fill-opacity:0.70"/>
    <circle cx="605.1" cy="136.86" r="1.95" style="stroke-width:0.71;stroke:#377EB8;stroke-opacity:0.70;fill:#377EB8;fill-opacity:0.70"/>
    <circle cx="605.1" cy="206.5" r="1.95" style="stroke-width:0.71;stroke:#4DAF4A;stroke-opacity:0.70;fill:#4DAF4A;fill-opacity:0.70"/>
    <circle cx="605.1" cy="157.97" r="1.95" style="stroke-width:0.71;stroke:#FF7F00;stroke-opacity:0.70;fill:#FF7F00;fill-opacity:0.70"/>
    <circle cx="605.1" cy="137.06" r="1.95" style="stroke-width:0.71;stroke:#984EA3;stroke-opacity:0.70;fill:#984EA3;fill-opacity:0.70"/>
    <circle cx="605.1" cy="100.5" r="1.95" style="stroke-width:0.71;stroke:#E41A1C;stroke-opacity:0.70;fill:#E41A1C;fill-opacity:0.70"/>
    <circle cx="560.45" cy="145.56" r="1.95" style="stroke-width:0.71;stroke:#377EB8;stroke-opacity:0.70;fill:#377EB8;fill-opacity:0.70"/>
    <circle cx="560.45" cy="209.78" r="1.95" style="stroke-width:0.71;stroke:#4DAF4A;stroke-opacity:0.70;fill:#4DAF4A;fill-opacity:0.70"/>
    <circle cx="560.45" cy="192.81" r="1.95" style="stroke-width:0.71;stroke:#FF7F00;stroke-opacity:0.70;fill:#FF7F00;fill-opacity:0.70"/>
    <circle cx="560.45" cy="145.52" r="1.95" style="stroke-width:0.71;stroke:#984EA3;stroke-opacity:0.70;fill:#984EA3;fill-opacity:0.70"/>
    <circle cx="560.45" cy="116.32" r="1.95" style="stroke-width:0.71;stroke:#E41A1C;stroke-opacity:0.70;fill:#E41A1C;fill-opacity:0.70"/>
    <circle cx="515.79" cy="159.53" r="1.95" style="stroke-width:0.71;stroke:#377EB8;stroke-opacity:0.70;fill:#377EB8;fill-opacity:0.70"/>
    <circle cx="515.79" cy="213.53" r="1.95" style="stroke-width:0.71;stroke:#4DAF4A;stroke-opacity:0.70;fill:#4DAF4A;fill-opacity:0.70"/>
    <circle cx="515.79" cy="233.2" r="1.95" style="stroke-width:0.71;stroke:#FF7F00;stroke-opacity:0.70;fill:#FF7F00;fill-opacity:0.70"/>
    <circle cx="515.79" cy="159.14" r="1.95" style="stroke-width:0.71;stroke:#984EA3;stroke-opacity:0.70;fill:#984EA3;fill-opacity:0.70"/>
    <circle cx="515.79" cy="142.57" r="1.95" style="stroke-width:0.71;stroke:#E41A1C;stroke-opacity:0.70;fill:#E41A1C;fill-opacity:0.70"/>
    <circle cx="471.14" cy="170.58" r="1.95" style="stroke-width:0.71;stroke:#377EB8;stroke-opacity:0.70;fill:#377EB8;fill-opacity:0.70"/>
    <circle cx="471.14" cy="222.36" r="1.95" style="stroke-width:0.71;stroke:#4DAF4A;stroke-opacity:0.70;fill:#4DAF4A;fill-opacity:0.70"/>
    <circle cx="471.14" cy="269.73" r="1.95" style="stroke-width:0.71;stroke:#FF7F00;stroke-opacity:0.70;fill:#FF7F00;fill-opacity:0.70"/>
    <circle cx="471.14" cy="171.46" r="1.95" style="stroke-width:0.71;stroke:#984EA3;stroke-opacity:0.70;fill:#984EA3;fill-opacity:0.70"/>
    <circle cx="471.14" cy="173.3" r="1.95" style="stroke-width:0.71;stroke:#E41A1C;stroke-opacity:0.70;fill:#E41A1C;fill-opacity:0.70"/>
    <circle cx="426.48" cy="191.74" r="1.95" style="stroke-width:0.71;stroke:#377EB8;stroke-opacity:0.70;fill:#377EB8;fill-opacity:0.70"/>
    <circle cx="426.48" cy="230.46" r="1.95" style="stroke-width:0.71;stroke:#4DAF4A;stroke-opacity:0.70;fill:#4DAF4A;fill-opacity:0.70"/>
    <circle cx="426.48" cy="277.39" r="1.95" style="stroke-width:0.71;stroke:#FF7F00;stroke-opacity:0.70;fill:#FF7F00;fill-opacity:0.70"/>
    <circle cx="426.48" cy="191.48" r="1.95" style="stroke-width:0.71;stroke:#984EA3;stroke-opacity:0.70;fill:#984EA3;fill-opacity:0.70"/>
    <circle cx="426.48" cy="180.73" r="1.95" style="stroke-width:0.71;stroke:#E41A1C;stroke-opacity:0.70;fill:#E41A1C;fill-opacity:0.70"/>
    <circle cx="381.83" cy="214.18" r="1.95" style="stroke-width:0.71;stroke:#377EB8;stroke-opacity:0.70;fill:#377EB8;fill-opacity:0.70"/>
    <circle cx="381.83" cy="245.35" r="1.95" style="stroke-width:0.71;stroke:#4DAF4A;stroke-opacity:0.70;fill:#4DAF4A;fill-opacity:0.70"/>
    <circle cx="381.83" cy="287.24" r="1.95" style="stroke-width:0.71;stroke:#FF7F00;stroke-opacity:0.70;fill:#FF7F00;fill-opacity:0.70"/>
    <circle cx="381.83" cy="214.3" r="1.95" style="stroke-width:0.71;stroke:#984EA3;stroke-opacity:0.70;fill:#984EA3;fill-opacity:0.70"/>
    <circle cx="381.83" cy="205.43" r="1.95" style="stroke-width:0.71;stroke:#E41A1C;stroke-opacity:0.70;fill:#E41A1C;fill-opacity:0.70"/>
    <circle cx="337.17" cy="232.11" r="1.95" style="stroke-width:0.71;stroke:#377EB8;stroke-opacity:0.70;fill:#377EB8;fill-opacity:0.70"/>
    <circle cx="337.17" cy="264.43" r="1.95" style="stroke-width:0.71;stroke:#4DAF4A;stroke-opacity:0.70;fill:#4DAF4A;fill-opacity:0.70"/>
    <circle cx="337.17" cy="403.49" r="1.95" style="stroke-width:0.71;stroke:#FF7F00;stroke-opacity:0.70;fill:#FF7F00;fill-opacity:0.70"/>
    <circle cx="337.17" cy="232.33" r="1.95" style="stroke-width:0.71;stroke:#984EA3;stroke-opacity:0.70;fill:#984EA3;fill-opacity:0.70"/>
    <circle cx="337.17" cy="223.81" r="1.95" style="stroke-width:0.71;stroke:#E41A1C;stroke-opacity:0.70;fill:#E41A1C;fill-opacity:0.70"/>
    <circle cx="292.52" cy="274.12" r="1.95" style="stroke-width:0.71;stroke:#377EB8;stroke-opacity:0.70;fill:#377EB8;fill-opacity:0.70"/>
    <circle cx="292.52" cy="297.36" r="1.95" style="stroke-width:0.71;stroke:#4DAF4A;stroke-opacity:0.70;fill:#4DAF4A;fill-opacity:0.70"/>
    <circle cx="292.52" cy="443.6" r="1.95" style="stroke-width:0.71;stroke:#FF7F00;stroke-opacity:0.70;fill:#FF7F00;fill-opacity:0.70"/>
    <circle cx="292.52" cy="275.23" r="1.95" style="stroke-width:0.71;stroke:#984EA3;stroke-opacity:0.70;fill:#984EA3;fill-opacity:0.70"/>
    <circle cx="292.52" cy="269.71" r="1.95" style="stroke-width:0.71;stroke:#E41A1C;stroke-opacity:0.70;fill:#E41A1C;fill-opacity:0.70"/>
    <circle cx="247.86" cy="312.82" r="1.95" style="stroke-width:0.71;stroke:#377EB8;stroke-opacity:0.70;fill:#377EB8;fill-opacity:0.70"/>
    <circle cx="247.86" cy="331.61" r="1.95" style="stroke-width:0.71;stroke:#4DAF4A;stroke-opacity:0.70;fill:#4DAF4A;fill-opacity:0.70"/>
    <circle cx="247.86" cy="486.78" r="1.95" style="stroke-width:0.71;stroke:#FF7F00;stroke-opacity:0.70;fill:#FF7F00;fill-opacity:0.70"/>
    <circle cx="247.86" cy="312.73" r="1.95" style="stroke-width:0.71;stroke:#984EA3;stroke-opacity:0.70;fill:#984EA3;fill-opacity:0.70"/>
    <circle cx="247.86" cy="313.68" r="1.95" style="stroke-width:0.71;stroke:#E41A1C;stroke-opacity:0.70;fill:#E41A1C;fill-opacity:0.70"/>
    <circle cx="203.21" cy="353.63" r="1.95" style="stroke-width:0.71;stroke:#377EB8;stroke-opacity:0.70;fill:#377EB8;fill-opacity:0.70"/>
    <circle cx="203.21" cy="371.15" r="1.95" style="stroke-width:0.71;stroke:#4DAF4A;stroke-opacity:0.70;fill:#4DAF4A;fill-opacity:0.70"/>
    <circle cx="203.21" cy="532.15" r="1.95" style="stroke-width:0.71;stroke:#FF7F00;stroke-opacity:0.70;fill:#FF7F00;fill-opacity:0.70"/>
    <circle cx="203.21" cy="354.45" r="1.95" style="stroke-width:0.71;stroke:#984EA3;stroke-opacity:0.70;fill:#984EA3;fill-opacity:0.70"/>
    <circle cx="203.21" cy="352.82" r="1.95" style="stroke-width:0.71;stroke:#E41A1C;stroke-opacity:0.70;fill:#E41A1C;fill-opacity:0.70"/>
    <circle cx="158.55" cy="397.3" r="1.95" style="stroke-width:0.71;stroke:#377EB8;stroke-opacity:0.70;fill:#377EB8;fill-opacity:0.70"/>
    <circle cx="158.55" cy="413.06" r="1.95" style="stroke-width:0.71;stroke:#4DAF4A;stroke-opacity:0.70;fill:#4DAF4A;fill-opacity:0.70"/>
    <circle cx="158.55" cy="579.09" r="1.95" style="stroke-width:0.71;stroke:#FF7F00;stroke-opacity:0.70;fill:#FF7F00;fill-opacity:0.70"/>
    <circle cx="158.55" cy="397.76" r="1.95" style="stroke-width:0.71;stroke:#984EA3;stroke-opacity:0.70;fill:#984EA3;fill-opacity:0.70"/>
    <circle cx="158.55" cy="395.48" r="1.95" style="stroke-width:0.71;stroke:#E41A1C;stroke-opacity:0.70;fill:#E41A1C;fill-opacity:0.70"/>
    <circle cx="113.9" cy="442.47" r="1.95" style="stroke-width:0.71;stroke:#377EB8;stroke-opacity:0.70;fill:#377EB8;fill-opacity:0.70"/>
    <circle cx="113.9" cy="457.28" r="1.95" style="stroke-width:0.71;stroke:#4DAF4A;stroke-opacity:0.70;fill:#4DAF4A;fill-opacity:0.70"/>
    <circle cx="113.9" cy="631.02" r="1.95" style="stroke-width:0.71;stroke:#FF7F00;stroke-opacity:0.70;fill:#FF7F00;fill-opacity:0.70"/>
    <circle cx="113.9" cy="442.76" r="1.95" style="stroke-width:0.71;stroke:#984EA3;stroke-opacity:0.70;fill:#984EA3;fill-opacity:0.70"/>
    <circle cx="113.9" cy="441.36" r="1.95" style="stroke-width:0.71;stroke:#E41A1C;stroke-opacity:0.70;fill:#E41A1C;fill-opacity:0.70"/>
    <path d="m113.9 441.36 44.65-45.88 44.66-42.66 44.65-39.14 44.66-43.97 44.65-45.9 44.66-18.38 44.65-24.7 44.66-7.43 44.65-30.73 44.66-26.25 44.65-15.82 44.66-10.31 44.65-5.25 44.66-4.53 44.65-2.47 44.66-1.95 44.65-1.02 44.66.18 44.65-.48 44.66-.94" style="stroke-width:1.07;stroke:#E41A1C;stroke-opacity:0.30;stroke-linecap:butt"/>
    <path d="m113.9 442.47 44.65-45.17 44.66-43.67 44.65-40.81 44.66-38.7 44.65-42.01 44.66-17.93 44.65-22.44 44.66-21.16 44.65-11.05 44.66-13.97 44.65-8.7 44.66-5.11 44.65-3.37 44.66-1.1 44.65-1.81 44.66-.64 44.65-.59 44.66.68 44.65-.91 44.66-.38" style="stroke-width:1.07;stroke:#377EB8;stroke-opacity:0.30;stroke-linecap:butt"/>
    <path d="m113.9 457.28 44.65-44.22 44.66-41.91 44.65-39.54 44.66-34.25 44.65-32.93 44.66-19.08 44.65-14.89 44.66-8.1 44.65-8.83 44.66-3.75 44.65-3.28 44.66-1.42 44.65-.9 44.66-1.63 44.65-.1 44.66.01 44.65-.97 44.66.18 44.65-.48 44.66.17" style="stroke-width:1.07;stroke:#4DAF4A;stroke-opacity:0.30;stroke-linecap:butt"/>
    <path d="m113.9 442.76 44.65-45 44.66-43.31 44.65-41.72 44.66-37.5 44.65-42.9 44.66-18.03 44.65-22.82 44.66-20.02 44.65-12.32 44.66-13.62 44.65-8.46 44.66-6.25 44.65-2.48 44.66-1.94 44.65-.68 44.66-1.08 44.65.56 44.66-.83 44.65-.11 44.66-.29" style="stroke-width:1.07;stroke:#984EA3;stroke-opacity:0.30;stroke-linecap:butt"/>
    <path d="m113.9 631.02 44.65-51.93 44.66-46.94 44.65-45.37 44.66-43.18 44.65-40.11 44.66-116.25 44.65-9.85 44.66-7.66 44.65-36.53 44.66-40.39 44.65-34.84 44.66-28.95 44.65-19.73 44.66-14.3 44.65-8.08 44.66-4.62 44.65-3.28 44.66-1.33 44.65.05 44.66-1.58" style="stroke-width:1.07;stroke:#FF7F00;stroke-opacity:0.30;stroke-linecap:butt"/>
  </g>
  <g clip-path="url(#cpMC4wMHwxMDgwLjAwfDAuMDB8NzIwLjAw)">
    <text x="64.31" y="664.32" lengthAdjust="spacingAndGlyphs" style="font-size:8.80px;fill:#4D4D4D;font-family:&quot;Arial&quot;" text-anchor="end" textLength="38.62">8 MiB/sec</text>
    <text x="64.31" y="618.56" lengthAdjust="spacingAndGlyphs" style="font-size:8.80px;fill:#4D4D4D;font-family:&quot;Arial&quot;" text-anchor="end" textLength="43.52">16 MiB/sec</text>
    <text x="64.31" y="572.79" lengthAdjust="spacingAndGlyphs" style="font-size:8.80px;fill:#4D4D4D;font-family:&quot;Arial&quot;" text-anchor="end" textLength="43.52">32 MiB/sec</text>
    <text x="64.31" y="527.03" lengthAdjust="spacingAndGlyphs" style="font-size:8.80px;fill:#4D4D4D;font-family:&quot;Arial&quot;" text-anchor="end" textLength="43.52">64 MiB/sec</text>
    <text x="64.31" y="481.26" lengthAdjust="spacingAndGlyphs" style="font-size:8.80px;fill:#4D4D4D;font-family:&quot;Arial&quot;" text-anchor="end" textLength="48.41">128 MiB/sec</text>
    <text x="64.31" y="435.5" lengthAdjust="spacingAndGlyphs" style="font-size:8.80px;fill:#4D4D4D;font-family:&quot;Arial&quot;" text-anchor="end" textLength="48.41">256 MiB/sec</text>
    <text x="64.31" y="389.74" lengthAdjust="spacingAndGlyphs" style="font-size:8.80px;fill:#4D4D4D;font-family:&quot;Arial&quot;" text-anchor="end" textLength="48.41">512 MiB/sec</text>
    <text x="64.31" y="343.97" lengthAdjust="spacingAndGlyphs" style="font-size:8.80px;fill:#4D4D4D;font-family:&quot;Arial&quot;" text-anchor="end" textLength="38.13">1 GiB/sec</text>
    <text x="64.31" y="298.21" lengthAdjust="spacingAndGlyphs" style="font-size:8.80px;fill:#4D4D4D;font-family:&quot;Arial&quot;" text-anchor="end" textLength="38.13">2 GiB/sec</text>
    <text x="64.31" y="252.45" lengthAdjust="spacingAndGlyphs" style="font-size:8.80px;fill:#4D4D4D;font-family:&quot;Arial&quot;" text-anchor="end" textLength="38.13">4 GiB/sec</text>
    <text x="64.31" y="206.68" lengthAdjust="spacingAndGlyphs" style="font-size:8.80px;fill:#4D4D4D;font-family:&quot;Arial&quot;" text-anchor="end" textLength="38.13">8 GiB/sec</text>
    <text x="64.31" y="160.92" lengthAdjust="spacingAndGlyphs" style="font-size:8.80px;fill:#4D4D4D;font-family:&quot;Arial&quot;" text-anchor="end" textLength="43.03">16 GiB/sec</text>
    <text x="64.31" y="115.16" lengthAdjust="spacingAndGlyphs" style="font-size:8.80px;fill:#4D4D4D;font-family:&quot;Arial&quot;" text-anchor="end" textLength="43.03">32 GiB/sec</text>
    <text x="64.31" y="69.39" lengthAdjust="spacingAndGlyphs" style="font-size:8.80px;fill:#4D4D4D;font-family:&quot;Arial&quot;" text-anchor="end" textLength="43.03">64 GiB/sec</text>
    <path d="M66.5 661.16h2.74M66.5 615.4h2.74m-2.74-45.76h2.74m-2.74-45.77h2.74m-2.74-45.76h2.74m-2.74-45.76h2.74m-2.74-45.77h2.74m-2.74-45.76h2.74m-2.74-45.76h2.74m-2.74-45.77h2.74m-2.74-45.76h2.74m-2.74-45.76h2.74M66.5 112h2.74M66.5 66.24h2.74m44.66 627.41v-2.74m44.65 2.74v-2.74m44.66 2.74v-2.74m44.65 2.74v-2.74m44.66 2.74v-2.74m44.65 2.74v-2.74m44.66 2.74v-2.74m44.65 2.74v-2.74m44.66 2.74v-2.74m44.65 2.74v-2.74m44.66 2.74v-2.74m44.65 2.74v-2.74m44.66 2.74v-2.74m44.65 2.74v-2.74m44.66 2.74v-2.74m44.65 2.74v-2.74m44.66 2.74v-2.74m44.65 2.74v-2.74m44.66 2.74v-2.74m44.65 2.74v-2.74m44.66 2.74v-2.74m44.65 2.74v-2.74" style="stroke-width:1.07;stroke:#333333;stroke-linecap:butt"/>
    <text x="113.9" y="702.15" lengthAdjust="spacingAndGlyphs" style="font-size:8.80px;fill:#4D4D4D;font-family:&quot;Arial&quot;" text-anchor="middle" textLength="13.2">1 B</text>
    <text x="158.55" y="702.15" lengthAdjust="spacingAndGlyphs" style="font-size:8.80px;fill:#4D4D4D;font-family:&quot;Arial&quot;" text-anchor="middle" textLength="13.2">2 B</text>
    <text x="203.21" y="702.15" lengthAdjust="spacingAndGlyphs" style="font-size:8.80px;fill:#4D4D4D;font-family:&quot;Arial&quot;" text-anchor="middle" textLength="13.2">4 B</text>
    <text x="247.86" y="702.15" lengthAdjust="spacingAndGlyphs" style="font-size:8.80px;fill:#4D4D4D;font-family:&quot;Arial&quot;" text-anchor="middle" textLength="13.2">8 B</text>
    <text x="292.52" y="702.15" lengthAdjust="spacingAndGlyphs" style="font-size:8.80px;fill:#4D4D4D;font-family:&quot;Arial&quot;" text-anchor="middle" textLength="18.1">16 B</text>
    <text x="337.17" y="702.15" lengthAdjust="spacingAndGlyphs" style="font-size:8.80px;fill:#4D4D4D;font-family:&quot;Arial&quot;" text-anchor="middle" textLength="18.1">32 B</text>
    <text x="381.83" y="702.15" lengthAdjust="spacingAndGlyphs" style="font-size:8.80px;fill:#4D4D4D;font-family:&quot;Arial&quot;" text-anchor="middle" textLength="18.1">64 B</text>
    <text x="426.48" y="702.15" lengthAdjust="spacingAndGlyphs" style="font-size:8.80px;fill:#4D4D4D;font-family:&quot;Arial&quot;" text-anchor="middle" textLength="23">128 B</text>
    <text x="471.14" y="702.15" lengthAdjust="spacingAndGlyphs" style="font-size:8.80px;fill:#4D4D4D;font-family:&quot;Arial&quot;" text-anchor="middle" textLength="23">256 B</text>
    <text x="515.79" y="702.15" lengthAdjust="spacingAndGlyphs" style="font-size:8.80px;fill:#4D4D4D;font-family:&quot;Arial&quot;" text-anchor="middle" textLength="23">512 B</text>
    <text x="560.45" y="702.15" lengthAdjust="spacingAndGlyphs" style="font-size:8.80px;fill:#4D4D4D;font-family:&quot;Arial&quot;" text-anchor="middle" textLength="21.02">1 KiB</text>
    <text x="605.1" y="702.15" lengthAdjust="spacingAndGlyphs" style="font-size:8.80px;fill:#4D4D4D;font-family:&quot;Arial&quot;" text-anchor="middle" textLength="21.02">2 KiB</text>
    <text x="649.76" y="702.15" lengthAdjust="spacingAndGlyphs" style="font-size:8.80px;fill:#4D4D4D;font-family:&quot;Arial&quot;" text-anchor="middle" textLength="21.02">4 KiB</text>
    <text x="694.41" y="702.15" lengthAdjust="spacingAndGlyphs" style="font-size:8.80px;fill:#4D4D4D;font-family:&quot;Arial&quot;" text-anchor="middle" textLength="21.02">8 KiB</text>
    <text x="739.07" y="702.15" lengthAdjust="spacingAndGlyphs" style="font-size:8.80px;fill:#4D4D4D;font-family:&quot;Arial&quot;" text-anchor="middle" textLength="25.92">16 KiB</text>
    <text x="783.72" y="702.15" lengthAdjust="spacingAndGlyphs" style="font-size:8.80px;fill:#4D4D4D;font-family:&quot;Arial&quot;" text-anchor="middle" textLength="25.92">32 KiB</text>
    <text x="828.38" y="702.15" lengthAdjust="spacingAndGlyphs" style="font-size:8.80px;fill:#4D4D4D;font-family:&quot;Arial&quot;" text-anchor="middle" textLength="25.92">64 KiB</text>
    <text x="873.03" y="702.15" lengthAdjust="spacingAndGlyphs" style="font-size:8.80px;fill:#4D4D4D;font-family:&quot;Arial&quot;" text-anchor="middle" textLength="30.82">128 KiB</text>
    <text x="917.69" y="702.15" lengthAdjust="spacingAndGlyphs" style="font-size:8.80px;fill:#4D4D4D;font-family:&quot;Arial&quot;" text-anchor="middle" textLength="30.82">256 KiB</text>
    <text x="962.34" y="702.15" lengthAdjust="spacingAndGlyphs" style="font-size:8.80px;fill:#4D4D4D;font-family:&quot;Arial&quot;" text-anchor="middle" textLength="30.82">512 KiB</text>
    <text x="1007" y="702.15" lengthAdjust="spacingAndGlyphs" style="font-size:8.80px;fill:#4D4D4D;font-family:&quot;Arial&quot;" text-anchor="middle" textLength="22.49">1 MiB</text>
    <text x="1051.65" y="702.15" lengthAdjust="spacingAndGlyphs" style="font-size:8.80px;fill:#4D4D4D;font-family:&quot;Arial&quot;" text-anchor="middle" textLength="22.49">2 MiB</text>
    <text x="560.45" y="714.73" lengthAdjust="spacingAndGlyphs" style="font-size:11.00px;font-family:&quot;Arial&quot;" text-anchor="middle" textLength="56.25">Chunk Size</text>
    <text lengthAdjust="spacingAndGlyphs" style="font-size:11.00px;font-family:&quot;Arial&quot;" text-anchor="middle" textLength="56.28" transform="rotate(-90 187.215 176.485)">Throughput</text>
    <path d="M812.09 503.45h86.17v113.16h-86.17z" style="stroke-width:1.07;stroke:none;fill:#FFFFFF"/>
    <text x="817.57" y="518.03" lengthAdjust="spacingAndGlyphs" style="font-size:11.00px;font-family:&quot;Arial&quot;" textLength="75.21">Implementation</text>
    <path d="M817.57 524.73h17.28v17.28h-17.28z" style="stroke-width:1.07;stroke:none;fill:#EBEBEB"/>
    <circle cx="826.21" cy="533.37" r="1.95" style="stroke-width:0.71;stroke:#E41A1C;stroke-opacity:0.70;fill:#E41A1C;fill-opacity:0.70"/>
    <path d="M819.29 533.37h13.83" style="stroke-width:1.07;stroke:#E41A1C;stroke-opacity:0.30;stroke-linecap:butt"/>
    <path d="M817.57 542.01h17.28v17.28h-17.28z" style="stroke-width:1.07;stroke:none;fill:#EBEBEB"/>
    <circle cx="826.21" cy="550.65" r="1.95" style="stroke-width:0.71;stroke:#377EB8;stroke-opacity:0.70;fill:#377EB8;fill-opacity:0.70"/>
    <path d="M819.29 550.65h13.83" style="stroke-width:1.07;stroke:#377EB8;stroke-opacity:0.30;stroke-linecap:butt"/>
    <path d="M817.57 559.29h17.28v17.28h-17.28z" style="stroke-width:1.07;stroke:none;fill:#EBEBEB"/>
    <circle cx="826.21" cy="567.93" r="1.95" style="stroke-width:0.71;stroke:#4DAF4A;stroke-opacity:0.70;fill:#4DAF4A;fill-opacity:0.70"/>
    <path d="M819.29 567.93h13.83" style="stroke-width:1.07;stroke:#4DAF4A;stroke-opacity:0.30;stroke-linecap:butt"/>
    <path d="M817.57 576.57h17.28v17.28h-17.28z" style="stroke-width:1.07;stroke:none;fill:#EBEBEB"/>
    <circle cx="826.21" cy="585.21" r="1.95" style="stroke-width:0.71;stroke:#984EA3;stroke-opacity:0.70;fill:#984EA3;fill-opacity:0.70"/>
    <path d="M819.29 585.21h13.83" style="stroke-width:1.07;stroke:#984EA3;stroke-opacity:0.30;stroke-linecap:butt"/>
    <path d="M817.57 593.85h17.28v17.28h-17.28z" style="stroke-width:1.07;stroke:none;fill:#EBEBEB"/>
    <circle cx="826.21" cy="602.49" r="1.95" style="stroke-width:0.71;stroke:#FF7F00;stroke-opacity:0.70;fill:#FF7F00;fill-opacity:0.70"/>
    <path d="M819.29 602.49h13.83" style="stroke-width:1.07;stroke:#FF7F00;stroke-opacity:0.30;stroke-linecap:butt"/>
    <text x="840.33" y="536.52" lengthAdjust="spacingAndGlyphs" style="font-size:8.80px;font-family:&quot;Arial&quot;" textLength="18.09">Rust</text>
    <text x="840.33" y="553.8" lengthAdjust="spacingAndGlyphs" style="font-size:8.80px;font-family:&quot;Arial&quot;" textLength="6.35">C</text>
    <text x="840.33" y="571.08" lengthAdjust="spacingAndGlyphs" style="font-size:8.80px;font-family:&quot;Arial&quot;" textLength="38.12">C (scalar)</text>
    <text x="840.33" y="588.36" lengthAdjust="spacingAndGlyphs" style="font-size:8.80px;font-family:&quot;Arial&quot;" textLength="37.15">C (SSE2)</text>
    <text x="840.33" y="605.64" lengthAdjust="spacingAndGlyphs" style="font-size:8.80px;font-family:&quot;Arial&quot;" textLength="37.15">C (AVX2)</text>
    <text x="69.24" y="28.58" lengthAdjust="spacingAndGlyphs" style="font-size:11.00px;font-family:&quot;Arial&quot;" textLength="149.21">x86_64 (AMD Ryzen 9 3950X)</text>
    <text x="69.24" y="12.3" lengthAdjust="spacingAndGlyphs" style="font-size:13.20px;font-family:&quot;Arial&quot;" textLength="440.68">[xxhash3_128] Throughput of a 1 MiB buffer by chunk size (higher is better)</text>
  </g>
</svg>
