<svg xmlns="http://www.w3.org/2000/svg" width="1440" height="960" viewBox="0 0 1080 720">
  <g class="svglite">
    <defs>
      <style>
        <![CDATA[.svglite line,.svglite polyline,.svglite polygon,.svglite path,.svglite circle{fill:none;stroke:#000000;stroke-linecap:round;stroke-linejoin:round;stroke-miterlimit:10.00}.svglite text{white-space:pre}.svglite g.glyphgroup path{fill:inherit;stroke:none}]]>
      </style>
    </defs>
    <rect width="100%" height="100%" style="stroke-linecap:round;stroke-linejoin:round;stroke-miterlimit:10.00;stroke:none;fill:#FFFFFF"/>
    <defs>
      <clipPath id="cpMC4wMHwxMDgwLjAwfDAuMDB8NzIwLjAw">
        <path d="M0 0h1080v720H0z"/>
      </clipPath>
    </defs>
    <g clip-path="url(#cpMC4wMHwxMDgwLjAwfDAuMDB8NzIwLjAw)">
      <path d="M0 0h1080v720H0z" style="stroke-width:1.07;stroke:#FFFFFF;fill:#FFFFFF"/>
    </g>
    <defs>
      <clipPath id="cpNDcuMTF8MTA1MS42NXwzNi4yMXw2OTEuMTU=">
        <path d="M47.11 36.21h1004.55v654.94H47.11z"/>
      </clipPath>
    </defs>
    <g clip-path="url(#cpNDcuMTF8MTA1MS42NXwzNi4yMXw2OTEuMTU=)">
      <path d="M47.11 36.21h1004.55v654.94H47.11z" style="stroke-width:1.07;stroke:none;fill:#EBEBEB"/>
      <path d="M47.11 682.36h1004.54M47.11 671.87h1004.54M47.11 650.89h1004.54M47.11 629.9h1004.54M47.11 608.92h1004.54M47.11 587.93h1004.54M47.11 566.94h1004.54M47.11 545.96h1004.54M47.11 524.97h1004.54M47.11 503.99h1004.54M47.11 483h1004.54M47.11 462.02h1004.54M47.11 441.03h1004.54M47.11 420.05h1004.54M47.11 399.06h1004.54M47.11 378.08h1004.54M47.11 357.09h1004.54M47.11 336.11h1004.54M47.11 315.12h1004.54M47.11 294.14h1004.54M47.11 273.15h1004.54M47.11 252.17h1004.54M47.11 231.18h1004.54M47.11 210.19h1004.54M47.11 189.21h1004.54M47.11 168.22h1004.54M47.11 147.24h1004.54M47.11 126.25h1004.54M47.11 105.27h1004.54M47.11 84.28h1004.54M47.11 63.3h1004.54M47.11 42.31h1004.54M187.9 691.15V36.21m190.25 654.94V36.21m190.26 654.94V36.21m190.25 654.94V36.21m190.26 654.94V36.21" style="stroke-width:0.53;stroke:#FFFFFF;stroke-linecap:butt"/>
      <path d="M47.11 661.38h1004.54M47.11 640.39h1004.54M47.11 619.41h1004.54M47.11 598.42h1004.54M47.11 577.44h1004.54M47.11 556.45h1004.54M47.11 535.47h1004.54M47.11 514.48h1004.54M47.11 493.5h1004.54M47.11 472.51h1004.54M47.11 451.53h1004.54M47.11 430.54h1004.54M47.11 409.55h1004.54M47.11 388.57h1004.54M47.11 367.58h1004.54M47.11 346.6h1004.54M47.11 325.61h1004.54M47.11 304.63h1004.54M47.11 283.64h1004.54M47.11 262.66h1004.54M47.11 241.67h1004.54M47.11 220.69h1004.54M47.11 199.7h1004.54M47.11 178.72h1004.54M47.11 157.73h1004.54M47.11 136.75h1004.54M47.11 115.76h1004.54M47.11 94.78h1004.54M47.11 73.79h1004.54M47.11 52.8h1004.54M92.77 691.15V36.21m190.25 654.94V36.21m190.26 654.94V36.21m190.25 654.94V36.21m190.26 654.94V36.21m190.25 654.94V36.21" style="stroke-width:1.07;stroke:#FFFFFF;stroke-linecap:butt"/>
      <circle cx="92.77" cy="622.23" r="1.95" style="stroke-width:0.71;stroke:#377EB8;stroke-opacity:0.70;fill:#377EB8;fill-opacity:0.70"/>
      <circle cx="92.77" cy="646" r="1.95" style="stroke-width:0.71;stroke:#E41A1C;stroke-opacity:0.70;fill:#E41A1C;fill-opacity:0.70"/>
      <circle cx="96.57" cy="622.12" r="1.95" style="stroke-width:0.71;stroke:#377EB8;stroke-opacity:0.70;fill:#377EB8;fill-opacity:0.70"/>
      <circle cx="96.57" cy="637.09" r="1.95" style="stroke-width:0.71;stroke:#E41A1C;stroke-opacity:0.70;fill:#E41A1C;fill-opacity:0.70"/>
      <circle cx="104.18" cy="622.13" r="1.95" style="stroke-width:0.71;stroke:#377EB8;stroke-opacity:0.70;fill:#377EB8;fill-opacity:0.70"/>
      <circle cx="104.18" cy="637.03" r="1.95" style="stroke-width:0.71;stroke:#E41A1C;stroke-opacity:0.70;fill:#E41A1C;fill-opacity:0.70"/>
      <circle cx="107.99" cy="623.13" r="1.95" style="stroke-width:0.71;stroke:#377EB8;stroke-opacity:0.70;fill:#377EB8;fill-opacity:0.70"/>
      <circle cx="107.99" cy="635.34" r="1.95" style="stroke-width:0.71;stroke:#E41A1C;stroke-opacity:0.70;fill:#E41A1C;fill-opacity:0.70"/>
      <circle cx="123.21" cy="623.49" r="1.95" style="stroke-width:0.71;stroke:#377EB8;stroke-opacity:0.70;fill:#377EB8;fill-opacity:0.70"/>
      <circle cx="123.21" cy="635.37" r="1.95" style="stroke-width:0.71;stroke:#E41A1C;stroke-opacity:0.70;fill:#E41A1C;fill-opacity:0.70"/>
      <circle cx="127.01" cy="622.58" r="1.95" style="stroke-width:0.71;stroke:#377EB8;stroke-opacity:0.70;fill:#377EB8;fill-opacity:0.70"/>
      <circle cx="127.01" cy="634.58" r="1.95" style="stroke-width:0.71;stroke:#E41A1C;stroke-opacity:0.70;fill:#E41A1C;fill-opacity:0.70"/>
      <circle cx="153.65" cy="621.81" r="1.95" style="stroke-width:0.71;stroke:#377EB8;stroke-opacity:0.70;fill:#377EB8;fill-opacity:0.70"/>
      <circle cx="153.65" cy="634.66" r="1.95" style="stroke-width:0.71;stroke:#E41A1C;stroke-opacity:0.70;fill:#E41A1C;fill-opacity:0.70"/>
      <circle cx="157.46" cy="601.24" r="1.95" style="stroke-width:0.71;stroke:#377EB8;stroke-opacity:0.70;fill:#377EB8;fill-opacity:0.70"/>
      <circle cx="157.46" cy="619.38" r="1.95" style="stroke-width:0.71;stroke:#E41A1C;stroke-opacity:0.70;fill:#E41A1C;fill-opacity:0.70"/>
      <circle cx="214.53" cy="600.58" r="1.95" style="stroke-width:0.71;stroke:#377EB8;stroke-opacity:0.70;fill:#377EB8;fill-opacity:0.70"/>
      <circle cx="214.53" cy="619.58" r="1.95" style="stroke-width:0.71;stroke:#E41A1C;stroke-opacity:0.70;fill:#E41A1C;fill-opacity:0.70"/>
      <circle cx="218.34" cy="563.52" r="1.95" style="stroke-width:0.71;stroke:#377EB8;stroke-opacity:0.70;fill:#377EB8;fill-opacity:0.70"/>
      <circle cx="218.34" cy="595.39" r="1.95" style="stroke-width:0.71;stroke:#E41A1C;stroke-opacity:0.70;fill:#E41A1C;fill-opacity:0.70"/>
      <circle cx="336.29" cy="563.48" r="1.95" style="stroke-width:0.71;stroke:#377EB8;stroke-opacity:0.70;fill:#377EB8;fill-opacity:0.70"/>
      <circle cx="336.29" cy="595.7" r="1.95" style="stroke-width:0.71;stroke:#E41A1C;stroke-opacity:0.70;fill:#E41A1C;fill-opacity:0.70"/>
      <circle cx="340.1" cy="525.27" r="1.95" style="stroke-width:0.71;stroke:#377EB8;stroke-opacity:0.70;fill:#377EB8;fill-opacity:0.70"/>
      <circle cx="340.1" cy="572.99" r="1.95" style="stroke-width:0.71;stroke:#E41A1C;stroke-opacity:0.70;fill:#E41A1C;fill-opacity:0.70"/>
      <circle cx="458.06" cy="525.31" r="1.95" style="stroke-width:0.71;stroke:#377EB8;stroke-opacity:0.70;fill:#377EB8;fill-opacity:0.70"/>
      <circle cx="458.06" cy="573.41" r="1.95" style="stroke-width:0.71;stroke:#E41A1C;stroke-opacity:0.70;fill:#E41A1C;fill-opacity:0.70"/>
      <circle cx="461.86" cy="488.84" r="1.95" style="stroke-width:0.71;stroke:#377EB8;stroke-opacity:0.70;fill:#377EB8;fill-opacity:0.70"/>
      <circle cx="461.86" cy="547.33" r="1.95" style="stroke-width:0.71;stroke:#E41A1C;stroke-opacity:0.70;fill:#E41A1C;fill-opacity:0.70"/>
      <circle cx="579.82" cy="488.63" r="1.95" style="stroke-width:0.71;stroke:#377EB8;stroke-opacity:0.70;fill:#377EB8;fill-opacity:0.70"/>
      <circle cx="579.82" cy="548.84" r="1.95" style="stroke-width:0.71;stroke:#E41A1C;stroke-opacity:0.70;fill:#E41A1C;fill-opacity:0.70"/>
      <circle cx="583.63" cy="519.46" r="1.95" style="stroke-width:0.71;stroke:#377EB8;stroke-opacity:0.70;fill:#377EB8;fill-opacity:0.70"/>
      <circle cx="583.63" cy="528.94" r="1.95" style="stroke-width:0.71;stroke:#E41A1C;stroke-opacity:0.70;fill:#E41A1C;fill-opacity:0.70"/>
      <circle cx="636.9" cy="519.48" r="1.95" style="stroke-width:0.71;stroke:#377EB8;stroke-opacity:0.70;fill:#377EB8;fill-opacity:0.70"/>
      <circle cx="636.9" cy="527.4" r="1.95" style="stroke-width:0.71;stroke:#E41A1C;stroke-opacity:0.70;fill:#E41A1C;fill-opacity:0.70"/>
      <circle cx="640.7" cy="506.28" r="1.95" style="stroke-width:0.71;stroke:#377EB8;stroke-opacity:0.70;fill:#377EB8;fill-opacity:0.70"/>
      <circle cx="640.7" cy="515.53" r="1.95" style="stroke-width:0.71;stroke:#E41A1C;stroke-opacity:0.70;fill:#E41A1C;fill-opacity:0.70"/>
      <circle cx="697.78" cy="501.32" r="1.95" style="stroke-width:0.71;stroke:#377EB8;stroke-opacity:0.70;fill:#377EB8;fill-opacity:0.70"/>
      <circle cx="697.78" cy="516.69" r="1.95" style="stroke-width:0.71;stroke:#E41A1C;stroke-opacity:0.70;fill:#E41A1C;fill-opacity:0.70"/>
      <circle cx="701.58" cy="495.45" r="1.95" style="stroke-width:0.71;stroke:#377EB8;stroke-opacity:0.70;fill:#377EB8;fill-opacity:0.70"/>
      <circle cx="701.58" cy="506.39" r="1.95" style="stroke-width:0.71;stroke:#E41A1C;stroke-opacity:0.70;fill:#E41A1C;fill-opacity:0.70"/>
      <circle cx="758.66" cy="495.86" r="1.95" style="stroke-width:0.71;stroke:#377EB8;stroke-opacity:0.70;fill:#377EB8;fill-opacity:0.70"/>
      <circle cx="758.66" cy="506.35" r="1.95" style="stroke-width:0.71;stroke:#E41A1C;stroke-opacity:0.70;fill:#E41A1C;fill-opacity:0.70"/>
      <circle cx="762.47" cy="484.23" r="1.95" style="stroke-width:0.71;stroke:#377EB8;stroke-opacity:0.70;fill:#377EB8;fill-opacity:0.70"/>
      <circle cx="762.47" cy="491.17" r="1.95" style="stroke-width:0.71;stroke:#E41A1C;stroke-opacity:0.70;fill:#E41A1C;fill-opacity:0.70"/>
      <circle cx="819.54" cy="483.26" r="1.95" style="stroke-width:0.71;stroke:#377EB8;stroke-opacity:0.70;fill:#377EB8;fill-opacity:0.70"/>
      <circle cx="819.54" cy="496.16" r="1.95" style="stroke-width:0.71;stroke:#E41A1C;stroke-opacity:0.70;fill:#E41A1C;fill-opacity:0.70"/>
      <circle cx="823.35" cy="471" r="1.95" style="stroke-width:0.71;stroke:#377EB8;stroke-opacity:0.70;fill:#377EB8;fill-opacity:0.70"/>
      <circle cx="823.35" cy="480.51" r="1.95" style="stroke-width:0.71;stroke:#E41A1C;stroke-opacity:0.70;fill:#E41A1C;fill-opacity:0.70"/>
      <circle cx="880.42" cy="471.64" r="1.95" style="stroke-width:0.71;stroke:#377EB8;stroke-opacity:0.70;fill:#377EB8;fill-opacity:0.70"/>
      <circle cx="880.42" cy="483.91" r="1.95" style="stroke-width:0.71;stroke:#E41A1C;stroke-opacity:0.70;fill:#E41A1C;fill-opacity:0.70"/>
      <circle cx="884.23" cy="458.42" r="1.95" style="stroke-width:0.71;stroke:#377EB8;stroke-opacity:0.70;fill:#377EB8;fill-opacity:0.70"/>
      <circle cx="884.23" cy="467.49" r="1.95" style="stroke-width:0.71;stroke:#E41A1C;stroke-opacity:0.70;fill:#E41A1C;fill-opacity:0.70"/>
      <circle cx="941.31" cy="459.93" r="1.95" style="stroke-width:0.71;stroke:#377EB8;stroke-opacity:0.70;fill:#377EB8;fill-opacity:0.70"/>
      <circle cx="941.31" cy="470.78" r="1.95" style="stroke-width:0.71;stroke:#E41A1C;stroke-opacity:0.70;fill:#E41A1C;fill-opacity:0.70"/>
      <circle cx="945.11" cy="449.46" r="1.95" style="stroke-width:0.71;stroke:#377EB8;stroke-opacity:0.70;fill:#377EB8;fill-opacity:0.70"/>
      <circle cx="945.11" cy="458.94" r="1.95" style="stroke-width:0.71;stroke:#E41A1C;stroke-opacity:0.70;fill:#E41A1C;fill-opacity:0.70"/>
      <circle cx="1002.19" cy="449.08" r="1.95" style="stroke-width:0.71;stroke:#377EB8;stroke-opacity:0.70;fill:#377EB8;fill-opacity:0.70"/>
      <circle cx="1002.19" cy="459.69" r="1.95" style="stroke-width:0.71;stroke:#E41A1C;stroke-opacity:0.70;fill:#E41A1C;fill-opacity:0.70"/>
      <circle cx="1005.99" cy="437.13" r="1.95" style="stroke-width:0.71;stroke:#377EB8;stroke-opacity:0.70;fill:#377EB8;fill-opacity:0.70"/>
      <circle cx="1005.99" cy="448.51" r="1.95" style="stroke-width:0.71;stroke:#E41A1C;stroke-opacity:0.70;fill:#E41A1C;fill-opacity:0.70"/>
      <circle cx="92.77" cy="615.11" r="1.95" style="stroke-width:0.71;stroke:#4DAF4A;stroke-opacity:0.70;fill:#4DAF4A;fill-opacity:0.70"/>
      <circle cx="92.77" cy="622.27" r="1.95" style="stroke-width:0.71;stroke:#984EA3;stroke-opacity:0.70;fill:#984EA3;fill-opacity:0.70"/>
      <circle cx="96.57" cy="615.65" r="1.95" style="stroke-width:0.71;stroke:#4DAF4A;stroke-opacity:0.70;fill:#4DAF4A;fill-opacity:0.70"/>
      <circle cx="96.57" cy="622.22" r="1.95" style="stroke-width:0.71;stroke:#984EA3;stroke-opacity:0.70;fill:#984EA3;fill-opacity:0.70"/>
      <circle cx="104.18" cy="615.53" r="1.95" style="stroke-width:0.71;stroke:#4DAF4A;stroke-opacity:0.70;fill:#4DAF4A;fill-opacity:0.70"/>
      <circle cx="104.18" cy="621.72" r="1.95" style="stroke-width:0.71;stroke:#984EA3;stroke-opacity:0.70;fill:#984EA3;fill-opacity:0.70"/>
      <circle cx="107.99" cy="622.16" r="1.95" style="stroke-width:0.71;stroke:#4DAF4A;stroke-opacity:0.70;fill:#4DAF4A;fill-opacity:0.70"/>
      <circle cx="107.99" cy="623.47" r="1.95" style="stroke-width:0.71;stroke:#984EA3;stroke-opacity:0.70;fill:#984EA3;fill-opacity:0.70"/>
      <circle cx="123.21" cy="621.27" r="1.95" style="stroke-width:0.71;stroke:#4DAF4A;stroke-opacity:0.70;fill:#4DAF4A;fill-opacity:0.70"/>
      <circle cx="123.21" cy="623.43" r="1.95" style="stroke-width:0.71;stroke:#984EA3;stroke-opacity:0.70;fill:#984EA3;fill-opacity:0.70"/>
      <circle cx="127.01" cy="622.68" r="1.95" style="stroke-width:0.71;stroke:#4DAF4A;stroke-opacity:0.70;fill:#4DAF4A;fill-opacity:0.70"/>
      <circle cx="127.01" cy="622.69" r="1.95" style="stroke-width:0.71;stroke:#984EA3;stroke-opacity:0.70;fill:#984EA3;fill-opacity:0.70"/>
      <circle cx="153.65" cy="622.48" r="1.95" style="stroke-width:0.71;stroke:#4DAF4A;stroke-opacity:0.70;fill:#4DAF4A;fill-opacity:0.70"/>
      <circle cx="153.65" cy="622.63" r="1.95" style="stroke-width:0.71;stroke:#984EA3;stroke-opacity:0.70;fill:#984EA3;fill-opacity:0.70"/>
      <circle cx="157.46" cy="600.15" r="1.95" style="stroke-width:0.71;stroke:#4DAF4A;stroke-opacity:0.70;fill:#4DAF4A;fill-opacity:0.70"/>
      <circle cx="157.46" cy="601.12" r="1.95" style="stroke-width:0.71;stroke:#984EA3;stroke-opacity:0.70;fill:#984EA3;fill-opacity:0.70"/>
      <circle cx="214.53" cy="600.73" r="1.95" style="stroke-width:0.71;stroke:#4DAF4A;stroke-opacity:0.70;fill:#4DAF4A;fill-opacity:0.70"/>
      <circle cx="214.53" cy="601.27" r="1.95" style="stroke-width:0.71;stroke:#984EA3;stroke-opacity:0.70;fill:#984EA3;fill-opacity:0.70"/>
      <circle cx="218.34" cy="563.69" r="1.95" style="stroke-width:0.71;stroke:#4DAF4A;stroke-opacity:0.70;fill:#4DAF4A;fill-opacity:0.70"/>
      <circle cx="218.34" cy="563.5" r="1.95" style="stroke-width:0.71;stroke:#984EA3;stroke-opacity:0.70;fill:#984EA3;fill-opacity:0.70"/>
      <circle cx="336.29" cy="563.55" r="1.95" style="stroke-width:0.71;stroke:#4DAF4A;stroke-opacity:0.70;fill:#4DAF4A;fill-opacity:0.70"/>
      <circle cx="336.29" cy="563.38" r="1.95" style="stroke-width:0.71;stroke:#984EA3;stroke-opacity:0.70;fill:#984EA3;fill-opacity:0.70"/>
      <circle cx="340.1" cy="523.57" r="1.95" style="stroke-width:0.71;stroke:#4DAF4A;stroke-opacity:0.70;fill:#4DAF4A;fill-opacity:0.70"/>
      <circle cx="340.1" cy="525" r="1.95" style="stroke-width:0.71;stroke:#984EA3;stroke-opacity:0.70;fill:#984EA3;fill-opacity:0.70"/>
      <circle cx="458.06" cy="525.1" r="1.95" style="stroke-width:0.71;stroke:#4DAF4A;stroke-opacity:0.70;fill:#4DAF4A;fill-opacity:0.70"/>
      <circle cx="458.06" cy="524.96" r="1.95" style="stroke-width:0.71;stroke:#984EA3;stroke-opacity:0.70;fill:#984EA3;fill-opacity:0.70"/>
      <circle cx="461.86" cy="488.76" r="1.95" style="stroke-width:0.71;stroke:#4DAF4A;stroke-opacity:0.70;fill:#4DAF4A;fill-opacity:0.70"/>
      <circle cx="461.86" cy="488.66" r="1.95" style="stroke-width:0.71;stroke:#984EA3;stroke-opacity:0.70;fill:#984EA3;fill-opacity:0.70"/>
      <circle cx="579.82" cy="488.49" r="1.95" style="stroke-width:0.71;stroke:#4DAF4A;stroke-opacity:0.70;fill:#4DAF4A;fill-opacity:0.70"/>
      <circle cx="579.82" cy="488.52" r="1.95" style="stroke-width:0.71;stroke:#984EA3;stroke-opacity:0.70;fill:#984EA3;fill-opacity:0.70"/>
      <circle cx="583.63" cy="517.46" r="1.95" style="stroke-width:0.71;stroke:#4DAF4A;stroke-opacity:0.70;fill:#4DAF4A;fill-opacity:0.70"/>
      <circle cx="583.63" cy="519.37" r="1.95" style="stroke-width:0.71;stroke:#984EA3;stroke-opacity:0.70;fill:#984EA3;fill-opacity:0.70"/>
      <circle cx="636.9" cy="519.49" r="1.95" style="stroke-width:0.71;stroke:#4DAF4A;stroke-opacity:0.70;fill:#4DAF4A;fill-opacity:0.70"/>
      <circle cx="636.9" cy="519.17" r="1.95" style="stroke-width:0.71;stroke:#984EA3;stroke-opacity:0.70;fill:#984EA3;fill-opacity:0.70"/>
      <circle cx="640.7" cy="505.93" r="1.95" style="stroke-width:0.71;stroke:#4DAF4A;stroke-opacity:0.70;fill:#4DAF4A;fill-opacity:0.70"/>
      <circle cx="640.7" cy="504.71" r="1.95" style="stroke-width:0.71;stroke:#984EA3;stroke-opacity:0.70;fill:#984EA3;fill-opacity:0.70"/>
      <circle cx="697.78" cy="506.54" r="1.95" style="stroke-width:0.71;stroke:#4DAF4A;stroke-opacity:0.70;fill:#4DAF4A;fill-opacity:0.70"/>
      <circle cx="697.78" cy="502.5" r="1.95" style="stroke-width:0.71;stroke:#984EA3;stroke-opacity:0.70;fill:#984EA3;fill-opacity:0.70"/>
      <circle cx="701.58" cy="495.74" r="1.95" style="stroke-width:0.71;stroke:#4DAF4A;stroke-opacity:0.70;fill:#4DAF4A;fill-opacity:0.70"/>
      <circle cx="701.58" cy="492.97" r="1.95" style="stroke-width:0.71;stroke:#984EA3;stroke-opacity:0.70;fill:#984EA3;fill-opacity:0.70"/>
      <circle cx="758.66" cy="495.6" r="1.95" style="stroke-width:0.71;stroke:#4DAF4A;stroke-opacity:0.70;fill:#4DAF4A;fill-opacity:0.70"/>
      <circle cx="758.66" cy="493.67" r="1.95" style="stroke-width:0.71;stroke:#984EA3;stroke-opacity:0.70;fill:#984EA3;fill-opacity:0.70"/>
      <circle cx="762.47" cy="484.57" r="1.95" style="stroke-width:0.71;stroke:#4DAF4A;stroke-opacity:0.70;fill:#4DAF4A;fill-opacity:0.70"/>
      <circle cx="762.47" cy="481.26" r="1.95" style="stroke-width:0.71;stroke:#984EA3;stroke-opacity:0.70;fill:#984EA3;fill-opacity:0.70"/>
      <circle cx="819.54" cy="483.9" r="1.95" style="stroke-width:0.71;stroke:#4DAF4A;stroke-opacity:0.70;fill:#4DAF4A;fill-opacity:0.70"/>
      <circle cx="819.54" cy="481.83" r="1.95" style="stroke-width:0.71;stroke:#984EA3;stroke-opacity:0.70;fill:#984EA3;fill-opacity:0.70"/>
      <circle cx="823.35" cy="466.34" r="1.95" style="stroke-width:0.71;stroke:#4DAF4A;stroke-opacity:0.70;fill:#4DAF4A;fill-opacity:0.70"/>
      <circle cx="823.35" cy="467.15" r="1.95" style="stroke-width:0.71;stroke:#984EA3;stroke-opacity:0.70;fill:#984EA3;fill-opacity:0.70"/>
      <circle cx="880.42" cy="471.4" r="1.95" style="stroke-width:0.71;stroke:#4DAF4A;stroke-opacity:0.70;fill:#4DAF4A;fill-opacity:0.70"/>
      <circle cx="880.42" cy="468.81" r="1.95" style="stroke-width:0.71;stroke:#984EA3;stroke-opacity:0.70;fill:#984EA3;fill-opacity:0.70"/>
      <circle cx="884.23" cy="459.65" r="1.95" style="stroke-width:0.71;stroke:#4DAF4A;stroke-opacity:0.70;fill:#4DAF4A;fill-opacity:0.70"/>
      <circle cx="884.23" cy="455.8" r="1.95" style="stroke-width:0.71;stroke:#984EA3;stroke-opacity:0.70;fill:#984EA3;fill-opacity:0.70"/>
      <circle cx="941.31" cy="455.96" r="1.95" style="stroke-width:0.71;stroke:#4DAF4A;stroke-opacity:0.70;fill:#4DAF4A;fill-opacity:0.70"/>
      <circle cx="941.31" cy="455.79" r="1.95" style="stroke-width:0.71;stroke:#984EA3;stroke-opacity:0.70;fill:#984EA3;fill-opacity:0.70"/>
      <circle cx="945.11" cy="449.38" r="1.95" style="stroke-width:0.71;stroke:#4DAF4A;stroke-opacity:0.70;fill:#4DAF4A;fill-opacity:0.70"/>
      <circle cx="945.11" cy="441.41" r="1.95" style="stroke-width:0.71;stroke:#984EA3;stroke-opacity:0.70;fill:#984EA3;fill-opacity:0.70"/>
      <circle cx="1002.19" cy="444.18" r="1.95" style="stroke-width:0.71;stroke:#4DAF4A;stroke-opacity:0.70;fill:#4DAF4A;fill-opacity:0.70"/>
      <circle cx="1002.19" cy="442.85" r="1.95" style="stroke-width:0.71;stroke:#984EA3;stroke-opacity:0.70;fill:#984EA3;fill-opacity:0.70"/>
      <circle cx="1005.99" cy="437.09" r="1.95" style="stroke-width:0.71;stroke:#4DAF4A;stroke-opacity:0.70;fill:#4DAF4A;fill-opacity:0.70"/>
      <circle cx="1005.99" cy="431.37" r="1.95" style="stroke-width:0.71;stroke:#984EA3;stroke-opacity:0.70;fill:#984EA3;fill-opacity:0.70"/>
      <path d="m92.77 646 3.8-8.91 7.61-.06 3.81-1.69 15.22.03 3.8-.79 26.64.08 3.81-15.28 57.07.2 3.81-24.19 117.95.31 3.81-22.71 117.96.42 3.8-26.08 117.96 1.51 3.81-19.9 53.27-1.54 3.8-11.87 57.08 1.16 3.8-10.3 57.08-.04 3.81-15.18 57.07 4.99 3.81-15.65 57.07 3.4 3.81-16.42 57.08 3.29 3.8-11.84 57.08.75 3.8-11.18" style="stroke-width:1.07;stroke:#E41A1C;stroke-opacity:0.30;stroke-linecap:butt"/>
      <path d="m92.77 622.23 3.8-.11 7.61.01 3.81 1 15.22.36 3.8-.91 26.64-.77 3.81-20.57 57.07-.66 3.81-37.06 117.95-.04 3.81-38.21 117.96.04 3.8-36.47 117.96-.21 3.81 30.83 53.27.02 3.8-13.2 57.08-4.96 3.8-5.87 57.08.41 3.81-11.63 57.07-.97 3.81-12.26 57.07.64 3.81-13.22 57.08 1.51 3.8-10.47 57.08-.38 3.8-11.95" style="stroke-width:1.07;stroke:#377EB8;stroke-opacity:0.30;stroke-linecap:butt"/>
      <path d="m92.77 615.11 3.8.54 7.61-.12 3.81 6.63 15.22-.89 3.8 1.41 26.64-.2 3.81-22.33 57.07.58 3.81-37.04 117.95-.14 3.81-39.98 117.96 1.53 3.8-36.34 117.96-.27 3.81 28.97 53.27 2.03 3.8-13.56 57.08.61 3.8-10.8 57.08-.14 3.81-11.03 57.07-.67 3.81-17.56 57.07 5.06 3.81-11.75 57.08-3.69 3.8-6.58 57.08-5.2 3.8-7.09" style="stroke-width:1.07;stroke:#4DAF4A;stroke-opacity:0.30;stroke-linecap:butt"/>
      <path d="m92.77 622.27 3.8-.05 7.61-.5 3.81 1.75 15.22-.04 3.8-.74 26.64-.06 3.81-21.51 57.07.15 3.81-37.77 117.95-.12L340.1 525l117.96-.04 3.8-36.3 117.96-.14 3.81 30.85 53.27-.2 3.8-14.46 57.08-2.21 3.8-9.53 57.08.7 3.81-12.41 57.07.57 3.81-14.68 57.07 1.66 3.81-13.01 57.08-.01 3.8-14.38 57.08 1.44 3.8-11.48" style="stroke-width:1.07;stroke:#984EA3;stroke-opacity:0.30;stroke-linecap:butt"/>
    </g>
    <g clip-path="url(#cpMC4wMHwxMDgwLjAwfDAuMDB8NzIwLjAw)">
      <text x="42.18" y="664.53" lengthAdjust="spacingAndGlyphs" style="font-size:8.80px;fill:#4D4D4D;font-family:&quot;Arial&quot;" text-anchor="end" textLength="4.89">0</text>
      <text x="42.18" y="643.54" lengthAdjust="spacingAndGlyphs" style="font-size:8.80px;fill:#4D4D4D;font-family:&quot;Arial&quot;" text-anchor="end" textLength="21.52">1.0ns</text>
      <text x="42.18" y="622.56" lengthAdjust="spacingAndGlyphs" style="font-size:8.80px;fill:#4D4D4D;font-family:&quot;Arial&quot;" text-anchor="end" textLength="21.52">2.0ns</text>
      <text x="42.18" y="601.57" lengthAdjust="spacingAndGlyphs" style="font-size:8.80px;fill:#4D4D4D;font-family:&quot;Arial&quot;" text-anchor="end" textLength="21.52">3.0ns</text>
      <text x="42.18" y="580.59" lengthAdjust="spacingAndGlyphs" style="font-size:8.80px;fill:#4D4D4D;font-family:&quot;Arial&quot;" text-anchor="end" textLength="21.52">4.0ns</text>
      <text x="42.18" y="559.6" lengthAdjust="spacingAndGlyphs" style="font-size:8.80px;fill:#4D4D4D;font-family:&quot;Arial&quot;" text-anchor="end" textLength="21.52">5.0ns</text>
      <text x="42.18" y="538.62" lengthAdjust="spacingAndGlyphs" style="font-size:8.80px;fill:#4D4D4D;font-family:&quot;Arial&quot;" text-anchor="end" textLength="21.52">6.0ns</text>
      <text x="42.18" y="517.63" lengthAdjust="spacingAndGlyphs" style="font-size:8.80px;fill:#4D4D4D;font-family:&quot;Arial&quot;" text-anchor="end" textLength="21.52">7.0ns</text>
      <text x="42.18" y="496.65" lengthAdjust="spacingAndGlyphs" style="font-size:8.80px;fill:#4D4D4D;font-family:&quot;Arial&quot;" text-anchor="end" textLength="21.52">8.0ns</text>
      <text x="42.18" y="475.66" lengthAdjust="spacingAndGlyphs" style="font-size:8.80px;fill:#4D4D4D;font-family:&quot;Arial&quot;" text-anchor="end" textLength="21.52">9.0ns</text>
      <text x="42.18" y="454.68" lengthAdjust="spacingAndGlyphs" style="font-size:8.80px;fill:#4D4D4D;font-family:&quot;Arial&quot;" text-anchor="end" textLength="26.41">10.0ns</text>
      <text x="42.18" y="433.69" lengthAdjust="spacingAndGlyphs" style="font-size:8.80px;fill:#4D4D4D;font-family:&quot;Arial&quot;" text-anchor="end" textLength="25.75">11.0ns</text>
      <text x="42.18" y="412.7" lengthAdjust="spacingAndGlyphs" style="font-size:8.80px;fill:#4D4D4D;font-family:&quot;Arial&quot;" text-anchor="end" textLength="26.41">12.0ns</text>
      <text x="42.18" y="391.72" lengthAdjust="spacingAndGlyphs" style="font-size:8.80px;fill:#4D4D4D;font-family:&quot;Arial&quot;" text-anchor="end" textLength="26.41">13.0ns</text>
      <text x="42.18" y="370.73" lengthAdjust="spacingAndGlyphs" style="font-size:8.80px;fill:#4D4D4D;font-family:&quot;Arial&quot;" text-anchor="end" textLength="26.41">14.0ns</text>
      <text x="42.18" y="349.75" lengthAdjust="spacingAndGlyphs" style="font-size:8.80px;fill:#4D4D4D;font-family:&quot;Arial&quot;" text-anchor="end" textLength="26.41">15.0ns</text>
      <text x="42.18" y="328.76" lengthAdjust="spacingAndGlyphs" style="font-size:8.80px;fill:#4D4D4D;font-family:&quot;Arial&quot;" text-anchor="end" textLength="26.41">16.0ns</text>
      <text x="42.18" y="307.78" lengthAdjust="spacingAndGlyphs" style="font-size:8.80px;fill:#4D4D4D;font-family:&quot;Arial&quot;" text-anchor="end" textLength="26.41">17.0ns</text>
      <text x="42.18" y="286.79" lengthAdjust="spacingAndGlyphs" style="font-size:8.80px;fill:#4D4D4D;font-family:&quot;Arial&quot;" text-anchor="end" textLength="26.41">18.0ns</text>
      <text x="42.18" y="265.81" lengthAdjust="spacingAndGlyphs" style="font-size:8.80px;fill:#4D4D4D;font-family:&quot;Arial&quot;" text-anchor="end" textLength="26.41">19.0ns</text>
      <text x="42.18" y="244.82" lengthAdjust="spacingAndGlyphs" style="font-size:8.80px;fill:#4D4D4D;font-family:&quot;Arial&quot;" text-anchor="end" textLength="26.41">20.0ns</text>
      <text x="42.18" y="223.84" lengthAdjust="spacingAndGlyphs" style="font-size:8.80px;fill:#4D4D4D;font-family:&quot;Arial&quot;" text-anchor="end" textLength="26.41">21.0ns</text>
      <text x="42.18" y="202.85" lengthAdjust="spacingAndGlyphs" style="font-size:8.80px;fill:#4D4D4D;font-family:&quot;Arial&quot;" text-anchor="end" textLength="26.41">22.0ns</text>
      <text x="42.18" y="181.87" lengthAdjust="spacingAndGlyphs" style="font-size:8.80px;fill:#4D4D4D;font-family:&quot;Arial&quot;" text-anchor="end" textLength="26.41">23.0ns</text>
      <text x="42.18" y="160.88" lengthAdjust="spacingAndGlyphs" style="font-size:8.80px;fill:#4D4D4D;font-family:&quot;Arial&quot;" text-anchor="end" textLength="26.41">24.0ns</text>
      <text x="42.18" y="139.9" lengthAdjust="spacingAndGlyphs" style="font-size:8.80px;fill:#4D4D4D;font-family:&quot;Arial&quot;" text-anchor="end" textLength="26.41">25.0ns</text>
      <text x="42.18" y="118.91" lengthAdjust="spacingAndGlyphs" style="font-size:8.80px;fill:#4D4D4D;font-family:&quot;Arial&quot;" text-anchor="end" textLength="26.41">26.0ns</text>
      <text x="42.18" y="97.93" lengthAdjust="spacingAndGlyphs" style="font-size:8.80px;fill:#4D4D4D;font-family:&quot;Arial&quot;" text-anchor="end" textLength="26.41">27.0ns</text>
      <text x="42.18" y="76.94" lengthAdjust="spacingAndGlyphs" style="font-size:8.80px;fill:#4D4D4D;font-family:&quot;Arial&quot;" text-anchor="end" textLength="26.41">28.0ns</text>
      <text x="42.18" y="55.95" lengthAdjust="spacingAndGlyphs" style="font-size:8.80px;fill:#4D4D4D;font-family:&quot;Arial&quot;" text-anchor="end" textLength="26.41">29.0ns</text>
      <path d="M44.37 661.38h2.74m-2.74-20.99h2.74m-2.74-20.98h2.74m-2.74-20.99h2.74m-2.74-20.98h2.74m-2.74-20.99h2.74m-2.74-20.98h2.74m-2.74-20.99h2.74m-2.74-20.98h2.74m-2.74-20.99h2.74m-2.74-20.98h2.74m-2.74-20.99h2.74m-2.74-20.99h2.74m-2.74-20.98h2.74m-2.74-20.99h2.74m-2.74-20.98h2.74m-2.74-20.99h2.74m-2.74-20.98h2.74m-2.74-20.99h2.74m-2.74-20.98h2.74m-2.74-20.99h2.74m-2.74-20.98h2.74m-2.74-20.99h2.74m-2.74-20.98h2.74m-2.74-20.99h2.74m-2.74-20.98h2.74m-2.74-20.99h2.74m-2.74-20.98h2.74m-2.74-20.99h2.74M44.37 52.8h2.74m45.66 641.09v-2.74m190.25 2.74v-2.74m190.26 2.74v-2.74m190.25 2.74v-2.74m190.26 2.74v-2.74m190.25 2.74v-2.74" style="stroke-width:1.07;stroke:#333333;stroke-linecap:butt"/>
      <text x="92.77" y="702.38" lengthAdjust="spacingAndGlyphs" style="font-size:8.80px;fill:#4D4D4D;font-family:&quot;Arial&quot;" text-anchor="middle" textLength="13.2">0 B</text>
      <text x="283.02" y="702.38" lengthAdjust="spacingAndGlyphs" style="font-size:8.80px;fill:#4D4D4D;font-family:&quot;Arial&quot;" text-anchor="middle" textLength="18.09">50 B</text>
      <text x="473.28" y="702.38" lengthAdjust="spacingAndGlyphs" style="font-size:8.80px;fill:#4D4D4D;font-family:&quot;Arial&quot;" text-anchor="middle" textLength="22.98">100 B</text>
      <text x="663.53" y="702.38" lengthAdjust="spacingAndGlyphs" style="font-size:8.80px;fill:#4D4D4D;font-family:&quot;Arial&quot;" text-anchor="middle" textLength="22.98">150 B</text>
      <text x="853.79" y="702.38" lengthAdjust="spacingAndGlyphs" style="font-size:8.80px;fill:#4D4D4D;font-family:&quot;Arial&quot;" text-anchor="middle" textLength="22.98">200 B</text>
      <text x="1044.04" y="702.38" lengthAdjust="spacingAndGlyphs" style="font-size:8.80px;fill:#4D4D4D;font-family:&quot;Arial&quot;" text-anchor="middle" textLength="22.98">250 B</text>
      <text x="549.38" y="714.85" lengthAdjust="spacingAndGlyphs" style="font-size:11.00px;font-family:&quot;Arial&quot;" text-anchor="middle" textLength="21.41">Size</text>
      <text lengthAdjust="spacingAndGlyphs" style="font-size:11.00px;font-family:&quot;Arial&quot;" text-anchor="middle" textLength="24.03" transform="rotate(-90 187.195 176.485)">Time</text>
      <path d="M807.64 512.28h86.21v95.75h-86.21z" style="stroke-width:1.07;stroke:none;fill:#FFFFFF"/>
      <text x="813.12" y="526.8" lengthAdjust="spacingAndGlyphs" style="font-size:11.00px;font-family:&quot;Arial&quot;" textLength="75.25">Implementation</text>
      <path d="M813.12 533.44h17.28v17.28h-17.28z" style="stroke-width:1.07;stroke:none;fill:#EBEBEB"/>
      <circle cx="821.76" cy="542.08" r="1.95" style="stroke-width:0.71;stroke:#E41A1C;stroke-opacity:0.70;fill:#E41A1C;fill-opacity:0.70"/>
      <path d="M814.85 542.08h13.82" style="stroke-width:1.07;stroke:#E41A1C;stroke-opacity:0.30;stroke-linecap:butt"/>
      <path d="M813.12 550.72h17.28V568h-17.28z" style="stroke-width:1.07;stroke:none;fill:#EBEBEB"/>
      <circle cx="821.76" cy="559.36" r="1.95" style="stroke-width:0.71;stroke:#377EB8;stroke-opacity:0.70;fill:#377EB8;fill-opacity:0.70"/>
      <path d="M814.85 559.36h13.82" style="stroke-width:1.07;stroke:#377EB8;stroke-opacity:0.30;stroke-linecap:butt"/>
      <path d="M813.12 568h17.28v17.28h-17.28z" style="stroke-width:1.07;stroke:none;fill:#EBEBEB"/>
      <circle cx="821.76" cy="576.64" r="1.95" style="stroke-width:0.71;stroke:#4DAF4A;stroke-opacity:0.70;fill:#4DAF4A;fill-opacity:0.70"/>
      <path d="M814.85 576.64h13.82" style="stroke-width:1.07;stroke:#4DAF4A;stroke-opacity:0.30;stroke-linecap:butt"/>
      <path d="M813.12 585.28h17.28v17.28h-17.28z" style="stroke-width:1.07;stroke:none;fill:#EBEBEB"/>
      <circle cx="821.76" cy="593.92" r="1.95" style="stroke-width:0.71;stroke:#984EA3;stroke-opacity:0.70;fill:#984EA3;fill-opacity:0.70"/>
      <path d="M814.85 593.92h13.82" style="stroke-width:1.07;stroke:#984EA3;stroke-opacity:0.30;stroke-linecap:butt"/>
      <text x="835.88" y="545.23" lengthAdjust="spacingAndGlyphs" style="font-size:8.80px;font-family:&quot;Arial&quot;" textLength="18.09">Rust</text>
      <text x="835.88" y="562.51" lengthAdjust="spacingAndGlyphs" style="font-size:8.80px;font-family:&quot;Arial&quot;" textLength="6.36">C</text>
      <text x="835.88" y="579.79" lengthAdjust="spacingAndGlyphs" style="font-size:8.80px;font-family:&quot;Arial&quot;" textLength="38.11">C (scalar)</text>
      <text x="835.88" y="597.07" lengthAdjust="spacingAndGlyphs" style="font-size:8.80px;font-family:&quot;Arial&quot;" textLength="40.08">C (NEON)</text>
      <text x="47.11" y="28.41" lengthAdjust="spacingAndGlyphs" style="font-size:11.00px;font-family:&quot;Arial&quot;" textLength="120.5">aarch64 (Apple M1 Max)</text>
      <text x="47.11" y="12.28" lengthAdjust="spacingAndGlyphs" style="font-size:13.20px;font-family:&quot;Arial&quot;" textLength="524.53">[xxhash3_64] Hashing small amounts of bytes using `oneshot_with_seed` (lower is better)</text>
    </g>
  </g>
</svg>
