<svg xmlns="http://www.w3.org/2000/svg" width="1440" height="960" viewBox="0 0 1080 720">
  <g class="svglite">
    <defs>
      <style>
        <![CDATA[.svglite line,.svglite polyline,.svglite polygon,.svglite path,.svglite circle{fill:none;stroke:#000000;stroke-linecap:round;stroke-linejoin:round;stroke-miterlimit:10.00}.svglite text{white-space:pre}.svglite g.glyphgroup path{fill:inherit;stroke:none}]]>
      </style>
    </defs>
    <rect width="100%" height="100%" style="stroke-linecap:round;stroke-linejoin:round;stroke-miterlimit:10.00;stroke:none;fill:#FFFFFF"/>
    <defs>
      <clipPath id="cpMC4wMHwxMDgwLjAwfDAuMDB8NzIwLjAw">
        <path d="M0 0h1080v720H0z"/>
      </clipPath>
    </defs>
    <g clip-path="url(#cpMC4wMHwxMDgwLjAwfDAuMDB8NzIwLjAw)">
      <path d="M0 0h1080v720H0z" style="stroke-width:1.07;stroke:#FFFFFF;fill:#FFFFFF"/>
    </g>
    <defs>
      <clipPath id="cpNDIuMjJ8MTA1MS42NXwzNi4yMXw2OTEuMTU=">
        <path d="M42.22 36.21h1009.44v654.94H42.22z"/>
      </clipPath>
    </defs>
    <g clip-path="url(#cpNDIuMjJ8MTA1MS42NXwzNi4yMXw2OTEuMTU=)">
      <path d="M42.22 36.21h1009.44v654.94H42.22z" style="stroke-width:1.07;stroke:none;fill:#EBEBEB"/>
      <path d="M42.22 624.22h1009.43M42.22 549.9h1009.43M42.22 475.59h1009.43M42.22 401.27h1009.43M42.22 326.96h1009.43M42.22 252.64h1009.43M42.22 178.33h1009.43M42.22 104.01h1009.43M231.49 691.15V36.21m286.77 654.94V36.21m286.77 654.94V36.21" style="stroke-width:0.53;stroke:#FFFFFF;stroke-linecap:butt"/>
      <path d="M42.22 661.38h1009.43M42.22 587.06h1009.43M42.22 512.75h1009.43M42.22 438.43h1009.43M42.22 364.12h1009.43M42.22 289.8h1009.43M42.22 215.48h1009.43M42.22 141.17h1009.43M42.22 66.85h1009.43M88.1 691.15V36.21m286.77 654.94V36.21m286.77 654.94V36.21m286.78 654.94V36.21" style="stroke-width:1.07;stroke:#FFFFFF;stroke-linecap:butt"/>
      <circle cx="88.1" cy="421.83" r="1.95" style="stroke-width:0.71;stroke:#377EB8;stroke-opacity:0.70;fill:#377EB8;fill-opacity:0.70"/>
      <circle cx="88.1" cy="540.85" r="1.95" style="stroke-width:0.71;stroke:#E41A1C;stroke-opacity:0.70;fill:#E41A1C;fill-opacity:0.70"/>
      <circle cx="116.78" cy="419.62" r="1.95" style="stroke-width:0.71;stroke:#377EB8;stroke-opacity:0.70;fill:#377EB8;fill-opacity:0.70"/>
      <circle cx="116.78" cy="504.08" r="1.95" style="stroke-width:0.71;stroke:#E41A1C;stroke-opacity:0.70;fill:#E41A1C;fill-opacity:0.70"/>
      <circle cx="145.45" cy="384.96" r="1.95" style="stroke-width:0.71;stroke:#377EB8;stroke-opacity:0.70;fill:#377EB8;fill-opacity:0.70"/>
      <circle cx="145.45" cy="468.26" r="1.95" style="stroke-width:0.71;stroke:#E41A1C;stroke-opacity:0.70;fill:#E41A1C;fill-opacity:0.70"/>
      <circle cx="174.13" cy="366.14" r="1.95" style="stroke-width:0.71;stroke:#377EB8;stroke-opacity:0.70;fill:#377EB8;fill-opacity:0.70"/>
      <circle cx="174.13" cy="420.68" r="1.95" style="stroke-width:0.71;stroke:#E41A1C;stroke-opacity:0.70;fill:#E41A1C;fill-opacity:0.70"/>
      <circle cx="202.81" cy="403.21" r="1.95" style="stroke-width:0.71;stroke:#377EB8;stroke-opacity:0.70;fill:#377EB8;fill-opacity:0.70"/>
      <circle cx="202.81" cy="509.69" r="1.95" style="stroke-width:0.71;stroke:#E41A1C;stroke-opacity:0.70;fill:#E41A1C;fill-opacity:0.70"/>
      <circle cx="231.49" cy="402.52" r="1.95" style="stroke-width:0.71;stroke:#377EB8;stroke-opacity:0.70;fill:#377EB8;fill-opacity:0.70"/>
      <circle cx="231.49" cy="455.58" r="1.95" style="stroke-width:0.71;stroke:#E41A1C;stroke-opacity:0.70;fill:#E41A1C;fill-opacity:0.70"/>
      <circle cx="260.16" cy="364.76" r="1.95" style="stroke-width:0.71;stroke:#377EB8;stroke-opacity:0.70;fill:#377EB8;fill-opacity:0.70"/>
      <circle cx="260.16" cy="411.39" r="1.95" style="stroke-width:0.71;stroke:#E41A1C;stroke-opacity:0.70;fill:#E41A1C;fill-opacity:0.70"/>
      <circle cx="288.84" cy="316.2" r="1.95" style="stroke-width:0.71;stroke:#377EB8;stroke-opacity:0.70;fill:#377EB8;fill-opacity:0.70"/>
      <circle cx="288.84" cy="364.62" r="1.95" style="stroke-width:0.71;stroke:#E41A1C;stroke-opacity:0.70;fill:#E41A1C;fill-opacity:0.70"/>
      <circle cx="317.52" cy="386.36" r="1.95" style="stroke-width:0.71;stroke:#377EB8;stroke-opacity:0.70;fill:#377EB8;fill-opacity:0.70"/>
      <circle cx="317.52" cy="480.06" r="1.95" style="stroke-width:0.71;stroke:#E41A1C;stroke-opacity:0.70;fill:#E41A1C;fill-opacity:0.70"/>
      <circle cx="346.19" cy="381.87" r="1.95" style="stroke-width:0.71;stroke:#377EB8;stroke-opacity:0.70;fill:#377EB8;fill-opacity:0.70"/>
      <circle cx="346.19" cy="430.77" r="1.95" style="stroke-width:0.71;stroke:#E41A1C;stroke-opacity:0.70;fill:#E41A1C;fill-opacity:0.70"/>
      <circle cx="374.87" cy="337.92" r="1.95" style="stroke-width:0.71;stroke:#377EB8;stroke-opacity:0.70;fill:#377EB8;fill-opacity:0.70"/>
      <circle cx="374.87" cy="389.27" r="1.95" style="stroke-width:0.71;stroke:#E41A1C;stroke-opacity:0.70;fill:#E41A1C;fill-opacity:0.70"/>
      <circle cx="403.55" cy="276.23" r="1.95" style="stroke-width:0.71;stroke:#377EB8;stroke-opacity:0.70;fill:#377EB8;fill-opacity:0.70"/>
      <circle cx="403.55" cy="330.56" r="1.95" style="stroke-width:0.71;stroke:#E41A1C;stroke-opacity:0.70;fill:#E41A1C;fill-opacity:0.70"/>
      <circle cx="432.23" cy="367.92" r="1.95" style="stroke-width:0.71;stroke:#377EB8;stroke-opacity:0.70;fill:#377EB8;fill-opacity:0.70"/>
      <circle cx="432.23" cy="428.86" r="1.95" style="stroke-width:0.71;stroke:#E41A1C;stroke-opacity:0.70;fill:#E41A1C;fill-opacity:0.70"/>
      <circle cx="460.9" cy="326.62" r="1.95" style="stroke-width:0.71;stroke:#377EB8;stroke-opacity:0.70;fill:#377EB8;fill-opacity:0.70"/>
      <circle cx="460.9" cy="374.16" r="1.95" style="stroke-width:0.71;stroke:#E41A1C;stroke-opacity:0.70;fill:#E41A1C;fill-opacity:0.70"/>
      <circle cx="489.58" cy="269" r="1.95" style="stroke-width:0.71;stroke:#377EB8;stroke-opacity:0.70;fill:#377EB8;fill-opacity:0.70"/>
      <circle cx="489.58" cy="317.67" r="1.95" style="stroke-width:0.71;stroke:#E41A1C;stroke-opacity:0.70;fill:#E41A1C;fill-opacity:0.70"/>
      <circle cx="518.26" cy="220.21" r="1.95" style="stroke-width:0.71;stroke:#377EB8;stroke-opacity:0.70;fill:#377EB8;fill-opacity:0.70"/>
      <circle cx="518.26" cy="266.82" r="1.95" style="stroke-width:0.71;stroke:#E41A1C;stroke-opacity:0.70;fill:#E41A1C;fill-opacity:0.70"/>
      <circle cx="546.94" cy="350.79" r="1.95" style="stroke-width:0.71;stroke:#377EB8;stroke-opacity:0.70;fill:#377EB8;fill-opacity:0.70"/>
      <circle cx="546.94" cy="419.87" r="1.95" style="stroke-width:0.71;stroke:#E41A1C;stroke-opacity:0.70;fill:#E41A1C;fill-opacity:0.70"/>
      <circle cx="575.61" cy="307.97" r="1.95" style="stroke-width:0.71;stroke:#377EB8;stroke-opacity:0.70;fill:#377EB8;fill-opacity:0.70"/>
      <circle cx="575.61" cy="361.17" r="1.95" style="stroke-width:0.71;stroke:#E41A1C;stroke-opacity:0.70;fill:#E41A1C;fill-opacity:0.70"/>
      <circle cx="604.29" cy="263.06" r="1.95" style="stroke-width:0.71;stroke:#377EB8;stroke-opacity:0.70;fill:#377EB8;fill-opacity:0.70"/>
      <circle cx="604.29" cy="296.72" r="1.95" style="stroke-width:0.71;stroke:#E41A1C;stroke-opacity:0.70;fill:#E41A1C;fill-opacity:0.70"/>
      <circle cx="632.97" cy="189.81" r="1.95" style="stroke-width:0.71;stroke:#377EB8;stroke-opacity:0.70;fill:#377EB8;fill-opacity:0.70"/>
      <circle cx="632.97" cy="242.51" r="1.95" style="stroke-width:0.71;stroke:#E41A1C;stroke-opacity:0.70;fill:#E41A1C;fill-opacity:0.70"/>
      <circle cx="661.64" cy="295.34" r="1.95" style="stroke-width:0.71;stroke:#377EB8;stroke-opacity:0.70;fill:#377EB8;fill-opacity:0.70"/>
      <circle cx="661.64" cy="335.19" r="1.95" style="stroke-width:0.71;stroke:#E41A1C;stroke-opacity:0.70;fill:#E41A1C;fill-opacity:0.70"/>
      <circle cx="690.32" cy="244.58" r="1.95" style="stroke-width:0.71;stroke:#377EB8;stroke-opacity:0.70;fill:#377EB8;fill-opacity:0.70"/>
      <circle cx="690.32" cy="295.45" r="1.95" style="stroke-width:0.71;stroke:#E41A1C;stroke-opacity:0.70;fill:#E41A1C;fill-opacity:0.70"/>
      <circle cx="719" cy="179.59" r="1.95" style="stroke-width:0.71;stroke:#377EB8;stroke-opacity:0.70;fill:#377EB8;fill-opacity:0.70"/>
      <circle cx="719" cy="233.41" r="1.95" style="stroke-width:0.71;stroke:#E41A1C;stroke-opacity:0.70;fill:#E41A1C;fill-opacity:0.70"/>
      <circle cx="747.68" cy="158.68" r="1.95" style="stroke-width:0.71;stroke:#377EB8;stroke-opacity:0.70;fill:#377EB8;fill-opacity:0.70"/>
      <circle cx="747.68" cy="169.73" r="1.95" style="stroke-width:0.71;stroke:#E41A1C;stroke-opacity:0.70;fill:#E41A1C;fill-opacity:0.70"/>
      <circle cx="776.35" cy="291.64" r="1.95" style="stroke-width:0.71;stroke:#377EB8;stroke-opacity:0.70;fill:#377EB8;fill-opacity:0.70"/>
      <circle cx="776.35" cy="359.64" r="1.95" style="stroke-width:0.71;stroke:#E41A1C;stroke-opacity:0.70;fill:#E41A1C;fill-opacity:0.70"/>
      <circle cx="805.03" cy="229.08" r="1.95" style="stroke-width:0.71;stroke:#377EB8;stroke-opacity:0.70;fill:#377EB8;fill-opacity:0.70"/>
      <circle cx="805.03" cy="285.05" r="1.95" style="stroke-width:0.71;stroke:#E41A1C;stroke-opacity:0.70;fill:#E41A1C;fill-opacity:0.70"/>
      <circle cx="833.71" cy="187.97" r="1.95" style="stroke-width:0.71;stroke:#377EB8;stroke-opacity:0.70;fill:#377EB8;fill-opacity:0.70"/>
      <circle cx="833.71" cy="251.2" r="1.95" style="stroke-width:0.71;stroke:#E41A1C;stroke-opacity:0.70;fill:#E41A1C;fill-opacity:0.70"/>
      <circle cx="862.38" cy="138.72" r="1.95" style="stroke-width:0.71;stroke:#377EB8;stroke-opacity:0.70;fill:#377EB8;fill-opacity:0.70"/>
      <circle cx="862.38" cy="183.1" r="1.95" style="stroke-width:0.71;stroke:#E41A1C;stroke-opacity:0.70;fill:#E41A1C;fill-opacity:0.70"/>
      <circle cx="891.06" cy="230.31" r="1.95" style="stroke-width:0.71;stroke:#377EB8;stroke-opacity:0.70;fill:#377EB8;fill-opacity:0.70"/>
      <circle cx="891.06" cy="300.31" r="1.95" style="stroke-width:0.71;stroke:#E41A1C;stroke-opacity:0.70;fill:#E41A1C;fill-opacity:0.70"/>
      <circle cx="919.74" cy="177.92" r="1.95" style="stroke-width:0.71;stroke:#377EB8;stroke-opacity:0.70;fill:#377EB8;fill-opacity:0.70"/>
      <circle cx="919.74" cy="214.66" r="1.95" style="stroke-width:0.71;stroke:#E41A1C;stroke-opacity:0.70;fill:#E41A1C;fill-opacity:0.70"/>
      <circle cx="948.42" cy="136.17" r="1.95" style="stroke-width:0.71;stroke:#377EB8;stroke-opacity:0.70;fill:#377EB8;fill-opacity:0.70"/>
      <circle cx="948.42" cy="179.4" r="1.95" style="stroke-width:0.71;stroke:#E41A1C;stroke-opacity:0.70;fill:#E41A1C;fill-opacity:0.70"/>
      <circle cx="977.09" cy="65.98" r="1.95" style="stroke-width:0.71;stroke:#377EB8;stroke-opacity:0.70;fill:#377EB8;fill-opacity:0.70"/>
      <circle cx="977.09" cy="112.8" r="1.95" style="stroke-width:0.71;stroke:#E41A1C;stroke-opacity:0.70;fill:#E41A1C;fill-opacity:0.70"/>
      <circle cx="1005.77" cy="82.41" r="1.95" style="stroke-width:0.71;stroke:#377EB8;stroke-opacity:0.70;fill:#377EB8;fill-opacity:0.70"/>
      <circle cx="1005.77" cy="140.88" r="1.95" style="stroke-width:0.71;stroke:#E41A1C;stroke-opacity:0.70;fill:#E41A1C;fill-opacity:0.70"/>
      <path d="m88.1 540.85 28.68-36.77 28.67-35.82 28.68-47.58 28.68 89.01 28.68-54.11 28.67-44.19 28.68-46.77 28.68 115.44 28.67-49.29 28.68-41.5 28.68-58.71 28.68 98.3 28.67-54.7 28.68-56.49 28.68-50.85 28.68 153.05 28.67-58.7 28.68-64.45 28.68-54.21 28.67 92.68 28.68-39.74L719 233.41l28.68-63.68 28.67 189.91 28.68-74.59 28.68-33.85 28.67-68.1 28.68 117.21 28.68-85.65 28.68-35.26 28.67-66.6 28.68 28.08" style="stroke-width:1.07;stroke:#E41A1C;stroke-opacity:0.30;stroke-linecap:butt"/>
      <path d="m88.1 421.83 28.68-2.21 28.67-34.66 28.68-18.82 28.68 37.07 28.68-.69 28.67-37.76 28.68-48.56 28.68 70.16 28.67-4.49 28.68-43.95 28.68-61.69 28.68 91.69 28.67-41.3L489.58 269l28.68-48.79 28.68 130.58 28.67-42.82 28.68-44.91 28.68-73.25 28.67 105.53 28.68-50.76L719 179.59l28.68-20.91 28.67 132.96 28.68-62.56 28.68-41.11 28.67-49.25 28.68 91.59 28.68-52.39 28.68-41.75 28.67-70.19 28.68 16.43" style="stroke-width:1.07;stroke:#377EB8;stroke-opacity:0.30;stroke-linecap:butt"/>
    </g>
    <g clip-path="url(#cpMC4wMHwxMDgwLjAwfDAuMDB8NzIwLjAw)">
      <text x="37.29" y="664.53" lengthAdjust="spacingAndGlyphs" style="font-size:8.80px;fill:#4D4D4D;font-family:&quot;Arial&quot;" text-anchor="end" textLength="4.89">0</text>
      <text x="37.29" y="590.21" lengthAdjust="spacingAndGlyphs" style="font-size:8.80px;fill:#4D4D4D;font-family:&quot;Arial&quot;" text-anchor="end" textLength="21.52">1.0ns</text>
      <text x="37.29" y="515.9" lengthAdjust="spacingAndGlyphs" style="font-size:8.80px;fill:#4D4D4D;font-family:&quot;Arial&quot;" text-anchor="end" textLength="21.52">2.0ns</text>
      <text x="37.29" y="441.58" lengthAdjust="spacingAndGlyphs" style="font-size:8.80px;fill:#4D4D4D;font-family:&quot;Arial&quot;" text-anchor="end" textLength="21.52">3.0ns</text>
      <text x="37.29" y="367.27" lengthAdjust="spacingAndGlyphs" style="font-size:8.80px;fill:#4D4D4D;font-family:&quot;Arial&quot;" text-anchor="end" textLength="21.52">4.0ns</text>
      <text x="37.29" y="292.95" lengthAdjust="spacingAndGlyphs" style="font-size:8.80px;fill:#4D4D4D;font-family:&quot;Arial&quot;" text-anchor="end" textLength="21.52">5.0ns</text>
      <text x="37.29" y="218.63" lengthAdjust="spacingAndGlyphs" style="font-size:8.80px;fill:#4D4D4D;font-family:&quot;Arial&quot;" text-anchor="end" textLength="21.52">6.0ns</text>
      <text x="37.29" y="144.32" lengthAdjust="spacingAndGlyphs" style="font-size:8.80px;fill:#4D4D4D;font-family:&quot;Arial&quot;" text-anchor="end" textLength="21.52">7.0ns</text>
      <text x="37.29" y="70" lengthAdjust="spacingAndGlyphs" style="font-size:8.80px;fill:#4D4D4D;font-family:&quot;Arial&quot;" text-anchor="end" textLength="21.52">8.0ns</text>
      <path d="M39.48 661.38h2.74m-2.74-74.32h2.74m-2.74-74.31h2.74m-2.74-74.32h2.74m-2.74-74.31h2.74m-2.74-74.32h2.74m-2.74-74.32h2.74m-2.74-74.31h2.74m-2.74-74.32h2.74M88.1 693.89v-2.74m286.77 2.74v-2.74m286.77 2.74v-2.74m286.78 2.74v-2.74" style="stroke-width:1.07;stroke:#333333;stroke-linecap:butt"/>
      <text x="88.1" y="702.38" lengthAdjust="spacingAndGlyphs" style="font-size:8.80px;fill:#4D4D4D;font-family:&quot;Arial&quot;" text-anchor="middle" textLength="13.2">0 B</text>
      <text x="374.87" y="702.38" lengthAdjust="spacingAndGlyphs" style="font-size:8.80px;fill:#4D4D4D;font-family:&quot;Arial&quot;" text-anchor="middle" textLength="18.09">10 B</text>
      <text x="661.64" y="702.38" lengthAdjust="spacingAndGlyphs" style="font-size:8.80px;fill:#4D4D4D;font-family:&quot;Arial&quot;" text-anchor="middle" textLength="18.09">20 B</text>
      <text x="948.42" y="702.38" lengthAdjust="spacingAndGlyphs" style="font-size:8.80px;fill:#4D4D4D;font-family:&quot;Arial&quot;" text-anchor="middle" textLength="18.09">30 B</text>
      <text x="546.94" y="714.85" lengthAdjust="spacingAndGlyphs" style="font-size:11.00px;font-family:&quot;Arial&quot;" text-anchor="middle" textLength="21.41">Size</text>
      <text lengthAdjust="spacingAndGlyphs" style="font-size:11.00px;font-family:&quot;Arial&quot;" text-anchor="middle" textLength="24.03" transform="rotate(-90 187.195 176.485)">Time</text>
      <path d="M806.66 529.56h86.21v61.19h-86.21z" style="stroke-width:1.07;stroke:none;fill:#FFFFFF"/>
      <text x="812.14" y="544.08" lengthAdjust="spacingAndGlyphs" style="font-size:11.00px;font-family:&quot;Arial&quot;" textLength="75.25">Implementation</text>
      <path d="M812.14 550.72h17.28V568h-17.28z" style="stroke-width:1.07;stroke:none;fill:#EBEBEB"/>
      <circle cx="820.78" cy="559.36" r="1.95" style="stroke-width:0.71;stroke:#E41A1C;stroke-opacity:0.70;fill:#E41A1C;fill-opacity:0.70"/>
      <path d="M813.87 559.36h13.82" style="stroke-width:1.07;stroke:#E41A1C;stroke-opacity:0.30;stroke-linecap:butt"/>
      <path d="M812.14 568h17.28v17.28h-17.28z" style="stroke-width:1.07;stroke:none;fill:#EBEBEB"/>
      <circle cx="820.78" cy="576.64" r="1.95" style="stroke-width:0.71;stroke:#377EB8;stroke-opacity:0.70;fill:#377EB8;fill-opacity:0.70"/>
      <path d="M813.87 576.64h13.82" style="stroke-width:1.07;stroke:#377EB8;stroke-opacity:0.30;stroke-linecap:butt"/>
      <text x="834.9" y="562.51" lengthAdjust="spacingAndGlyphs" style="font-size:8.80px;font-family:&quot;Arial&quot;" textLength="18.09">Rust</text>
      <text x="834.9" y="579.79" lengthAdjust="spacingAndGlyphs" style="font-size:8.80px;font-family:&quot;Arial&quot;" textLength="6.36">C</text>
      <text x="42.22" y="28.41" lengthAdjust="spacingAndGlyphs" style="font-size:11.00px;font-family:&quot;Arial&quot;" textLength="149.28">x86_64 (AMD Ryzen 9 3950X)</text>
      <text x="42.22" y="12.28" lengthAdjust="spacingAndGlyphs" style="font-size:13.20px;font-family:&quot;Arial&quot;" textLength="348.69">[xxhash64] Hashing small amounts of bytes (lower is better)</text>
    </g>
  </g>
</svg>
