<svg xmlns="http://www.w3.org/2000/svg" width="1440" height="960" viewBox="0 0 1080 720">
  <g class="svglite">
    <defs>
      <style>
        <![CDATA[.svglite line,.svglite polyline,.svglite polygon,.svglite path,.svglite circle{fill:none;stroke:#000000;stroke-linecap:round;stroke-linejoin:round;stroke-miterlimit:10.00}.svglite text{white-space:pre}.svglite g.glyphgroup path{fill:inherit;stroke:none}]]>
      </style>
    </defs>
    <rect width="100%" height="100%" style="stroke-linecap:round;stroke-linejoin:round;stroke-miterlimit:10.00;stroke:none;fill:#FFFFFF"/>
    <defs>
      <clipPath id="cpMC4wMHwxMDgwLjAwfDAuMDB8NzIwLjAw">
        <path d="M0 0h1080v720H0z"/>
      </clipPath>
    </defs>
    <g clip-path="url(#cpMC4wMHwxMDgwLjAwfDAuMDB8NzIwLjAw)">
      <path d="M0 0h1080v720H0z" style="stroke-width:1.07;stroke:#FFFFFF;fill:#FFFFFF"/>
    </g>
    <defs>
      <clipPath id="cpNjkuMTF8MTA1MS42NXwzNi4yMXw2OTEuMTU=">
        <path d="M69.11 36.21h982.55v654.94H69.11z"/>
      </clipPath>
    </defs>
    <g clip-path="url(#cpNjkuMTF8MTA1MS42NXwzNi4yMXw2OTEuMTU=)">
      <path d="M69.11 36.21h982.55v654.94H69.11z" style="stroke-width:1.07;stroke:none;fill:#EBEBEB"/>
      <path d="M69.11 661.38h982.54M69.11 562.14h982.54M69.11 462.91h982.54M69.11 363.68h982.54M69.11 264.44h982.54M69.11 165.21h982.54M69.11 65.98h982.54M113.77 691.15V36.21m44.66 654.94V36.21m44.66 654.94V36.21m44.66 654.94V36.21m44.66 654.94V36.21m44.66 654.94V36.21m44.67 654.94V36.21m44.66 654.94V36.21m44.66 654.94V36.21m44.66 654.94V36.21m44.66 654.94V36.21m44.66 654.94V36.21m44.66 654.94V36.21m44.66 654.94V36.21m44.67 654.94V36.21m44.66 654.94V36.21m44.66 654.94V36.21m44.66 654.94V36.21m44.66 654.94V36.21m44.66 654.94V36.21m44.66 654.94V36.21m44.66 654.94V36.21" style="stroke-width:1.07;stroke:#FFFFFF;stroke-linecap:butt"/>
      <circle cx="1006.99" cy="91.27" r="1.95" style="stroke-width:0.71;stroke:#377EB8;stroke-opacity:0.70;fill:#377EB8;fill-opacity:0.70"/>
      <circle cx="1006.99" cy="91.27" r="1.95" style="stroke-width:0.71;stroke:#E41A1C;stroke-opacity:0.70;fill:#E41A1C;fill-opacity:0.70"/>
      <circle cx="962.33" cy="91.31" r="1.95" style="stroke-width:0.71;stroke:#377EB8;stroke-opacity:0.70;fill:#377EB8;fill-opacity:0.70"/>
      <circle cx="962.33" cy="91.27" r="1.95" style="stroke-width:0.71;stroke:#E41A1C;stroke-opacity:0.70;fill:#E41A1C;fill-opacity:0.70"/>
      <circle cx="917.67" cy="91.15" r="1.95" style="stroke-width:0.71;stroke:#377EB8;stroke-opacity:0.70;fill:#377EB8;fill-opacity:0.70"/>
      <circle cx="917.67" cy="91.23" r="1.95" style="stroke-width:0.71;stroke:#E41A1C;stroke-opacity:0.70;fill:#E41A1C;fill-opacity:0.70"/>
      <circle cx="873.01" cy="91.38" r="1.95" style="stroke-width:0.71;stroke:#377EB8;stroke-opacity:0.70;fill:#377EB8;fill-opacity:0.70"/>
      <circle cx="873.01" cy="91.68" r="1.95" style="stroke-width:0.71;stroke:#E41A1C;stroke-opacity:0.70;fill:#E41A1C;fill-opacity:0.70"/>
      <circle cx="828.35" cy="91.37" r="1.95" style="stroke-width:0.71;stroke:#377EB8;stroke-opacity:0.70;fill:#377EB8;fill-opacity:0.70"/>
      <circle cx="828.35" cy="91.56" r="1.95" style="stroke-width:0.71;stroke:#E41A1C;stroke-opacity:0.70;fill:#E41A1C;fill-opacity:0.70"/>
      <circle cx="783.69" cy="91.42" r="1.95" style="stroke-width:0.71;stroke:#377EB8;stroke-opacity:0.70;fill:#377EB8;fill-opacity:0.70"/>
      <circle cx="783.69" cy="92.13" r="1.95" style="stroke-width:0.71;stroke:#E41A1C;stroke-opacity:0.70;fill:#E41A1C;fill-opacity:0.70"/>
      <circle cx="739.03" cy="93.31" r="1.95" style="stroke-width:0.71;stroke:#377EB8;stroke-opacity:0.70;fill:#377EB8;fill-opacity:0.70"/>
      <circle cx="739.03" cy="93.92" r="1.95" style="stroke-width:0.71;stroke:#E41A1C;stroke-opacity:0.70;fill:#E41A1C;fill-opacity:0.70"/>
      <circle cx="694.36" cy="93.29" r="1.95" style="stroke-width:0.71;stroke:#377EB8;stroke-opacity:0.70;fill:#377EB8;fill-opacity:0.70"/>
      <circle cx="694.36" cy="91.96" r="1.95" style="stroke-width:0.71;stroke:#E41A1C;stroke-opacity:0.70;fill:#E41A1C;fill-opacity:0.70"/>
      <circle cx="649.7" cy="93.5" r="1.95" style="stroke-width:0.71;stroke:#377EB8;stroke-opacity:0.70;fill:#377EB8;fill-opacity:0.70"/>
      <circle cx="649.7" cy="91.29" r="1.95" style="stroke-width:0.71;stroke:#E41A1C;stroke-opacity:0.70;fill:#E41A1C;fill-opacity:0.70"/>
      <circle cx="605.04" cy="94.8" r="1.95" style="stroke-width:0.71;stroke:#377EB8;stroke-opacity:0.70;fill:#377EB8;fill-opacity:0.70"/>
      <circle cx="605.04" cy="91.74" r="1.95" style="stroke-width:0.71;stroke:#E41A1C;stroke-opacity:0.70;fill:#E41A1C;fill-opacity:0.70"/>
      <circle cx="560.38" cy="97.45" r="1.95" style="stroke-width:0.71;stroke:#377EB8;stroke-opacity:0.70;fill:#377EB8;fill-opacity:0.70"/>
      <circle cx="560.38" cy="93.63" r="1.95" style="stroke-width:0.71;stroke:#E41A1C;stroke-opacity:0.70;fill:#E41A1C;fill-opacity:0.70"/>
      <circle cx="515.72" cy="104.51" r="1.95" style="stroke-width:0.71;stroke:#377EB8;stroke-opacity:0.70;fill:#377EB8;fill-opacity:0.70"/>
      <circle cx="515.72" cy="91.49" r="1.95" style="stroke-width:0.71;stroke:#E41A1C;stroke-opacity:0.70;fill:#E41A1C;fill-opacity:0.70"/>
      <circle cx="471.06" cy="114.11" r="1.95" style="stroke-width:0.71;stroke:#377EB8;stroke-opacity:0.70;fill:#377EB8;fill-opacity:0.70"/>
      <circle cx="471.06" cy="91.52" r="1.95" style="stroke-width:0.71;stroke:#E41A1C;stroke-opacity:0.70;fill:#E41A1C;fill-opacity:0.70"/>
      <circle cx="426.4" cy="134.37" r="1.95" style="stroke-width:0.71;stroke:#377EB8;stroke-opacity:0.70;fill:#377EB8;fill-opacity:0.70"/>
      <circle cx="426.4" cy="91.02" r="1.95" style="stroke-width:0.71;stroke:#E41A1C;stroke-opacity:0.70;fill:#E41A1C;fill-opacity:0.70"/>
      <circle cx="381.74" cy="163.74" r="1.95" style="stroke-width:0.71;stroke:#377EB8;stroke-opacity:0.70;fill:#377EB8;fill-opacity:0.70"/>
      <circle cx="381.74" cy="91.68" r="1.95" style="stroke-width:0.71;stroke:#E41A1C;stroke-opacity:0.70;fill:#E41A1C;fill-opacity:0.70"/>
      <circle cx="337.07" cy="208.53" r="1.95" style="stroke-width:0.71;stroke:#377EB8;stroke-opacity:0.70;fill:#377EB8;fill-opacity:0.70"/>
      <circle cx="337.07" cy="92.53" r="1.95" style="stroke-width:0.71;stroke:#E41A1C;stroke-opacity:0.70;fill:#E41A1C;fill-opacity:0.70"/>
      <circle cx="292.41" cy="309.08" r="1.95" style="stroke-width:0.71;stroke:#377EB8;stroke-opacity:0.70;fill:#377EB8;fill-opacity:0.70"/>
      <circle cx="292.41" cy="299.64" r="1.95" style="stroke-width:0.71;stroke:#E41A1C;stroke-opacity:0.70;fill:#E41A1C;fill-opacity:0.70"/>
      <circle cx="247.75" cy="388.1" r="1.95" style="stroke-width:0.71;stroke:#377EB8;stroke-opacity:0.70;fill:#377EB8;fill-opacity:0.70"/>
      <circle cx="247.75" cy="371.74" r="1.95" style="stroke-width:0.71;stroke:#E41A1C;stroke-opacity:0.70;fill:#E41A1C;fill-opacity:0.70"/>
      <circle cx="203.09" cy="518.12" r="1.95" style="stroke-width:0.71;stroke:#377EB8;stroke-opacity:0.70;fill:#377EB8;fill-opacity:0.70"/>
      <circle cx="203.09" cy="510.29" r="1.95" style="stroke-width:0.71;stroke:#E41A1C;stroke-opacity:0.70;fill:#E41A1C;fill-opacity:0.70"/>
      <circle cx="158.43" cy="561.98" r="1.95" style="stroke-width:0.71;stroke:#377EB8;stroke-opacity:0.70;fill:#377EB8;fill-opacity:0.70"/>
      <circle cx="158.43" cy="554.82" r="1.95" style="stroke-width:0.71;stroke:#E41A1C;stroke-opacity:0.70;fill:#E41A1C;fill-opacity:0.70"/>
      <circle cx="113.77" cy="637.35" r="1.95" style="stroke-width:0.71;stroke:#377EB8;stroke-opacity:0.70;fill:#377EB8;fill-opacity:0.70"/>
      <circle cx="113.77" cy="630.44" r="1.95" style="stroke-width:0.71;stroke:#E41A1C;stroke-opacity:0.70;fill:#E41A1C;fill-opacity:0.70"/>
      <path d="m113.77 630.44 44.66-75.62 44.66-44.53 44.66-138.55 44.66-72.1 44.66-207.11 44.67-.85 44.66-.66 44.66.5 44.66-.03 44.66 2.14 44.66-1.89 44.66-.45 44.66.67 44.67 1.96 44.66-1.79 44.66-.57 44.66.12 44.66-.45 44.66.04h44.66" style="stroke-width:1.07;stroke:#E41A1C;stroke-opacity:0.30;stroke-linecap:butt"/>
      <path d="m113.77 637.35 44.66-75.37 44.66-43.86 44.66-130.02 44.66-79.02 44.66-100.55 44.67-44.79 44.66-29.37 44.66-20.26 44.66-9.6 44.66-7.06 44.66-2.65 44.66-1.3 44.66-.21 44.67.02 44.66-1.89 44.66-.05 44.66.01 44.66-.23 44.66.16 44.66-.04" style="stroke-width:1.07;stroke:#377EB8;stroke-opacity:0.30;stroke-linecap:butt"/>
    </g>
    <g clip-path="url(#cpMC4wMHwxMDgwLjAwfDAuMDB8NzIwLjAw)">
      <text x="64.18" y="664.53" lengthAdjust="spacingAndGlyphs" style="font-size:8.80px;fill:#4D4D4D;font-family:&quot;Arial&quot;" text-anchor="end" textLength="48.41">256 MiB/sec</text>
      <text x="64.18" y="565.29" lengthAdjust="spacingAndGlyphs" style="font-size:8.80px;fill:#4D4D4D;font-family:&quot;Arial&quot;" text-anchor="end" textLength="48.41">512 MiB/sec</text>
      <text x="64.18" y="466.06" lengthAdjust="spacingAndGlyphs" style="font-size:8.80px;fill:#4D4D4D;font-family:&quot;Arial&quot;" text-anchor="end" textLength="38.14">1 GiB/sec</text>
      <text x="64.18" y="366.83" lengthAdjust="spacingAndGlyphs" style="font-size:8.80px;fill:#4D4D4D;font-family:&quot;Arial&quot;" text-anchor="end" textLength="38.14">2 GiB/sec</text>
      <text x="64.18" y="267.59" lengthAdjust="spacingAndGlyphs" style="font-size:8.80px;fill:#4D4D4D;font-family:&quot;Arial&quot;" text-anchor="end" textLength="38.14">4 GiB/sec</text>
      <text x="64.18" y="168.36" lengthAdjust="spacingAndGlyphs" style="font-size:8.80px;fill:#4D4D4D;font-family:&quot;Arial&quot;" text-anchor="end" textLength="38.14">8 GiB/sec</text>
      <text x="64.18" y="69.13" lengthAdjust="spacingAndGlyphs" style="font-size:8.80px;fill:#4D4D4D;font-family:&quot;Arial&quot;" text-anchor="end" textLength="43.03">16 GiB/sec</text>
      <path d="M66.37 661.38h2.74m-2.74-99.24h2.74m-2.74-99.23h2.74m-2.74-99.23h2.74m-2.74-99.24h2.74m-2.74-99.23h2.74m-2.74-99.23h2.74m44.66 627.91v-2.74m44.66 2.74v-2.74m44.66 2.74v-2.74m44.66 2.74v-2.74m44.66 2.74v-2.74m44.66 2.74v-2.74m44.67 2.74v-2.74m44.66 2.74v-2.74m44.66 2.74v-2.74m44.66 2.74v-2.74m44.66 2.74v-2.74m44.66 2.74v-2.74m44.66 2.74v-2.74m44.66 2.74v-2.74m44.67 2.74v-2.74m44.66 2.74v-2.74m44.66 2.74v-2.74m44.66 2.74v-2.74m44.66 2.74v-2.74m44.66 2.74v-2.74m44.66 2.74v-2.74m44.66 2.74v-2.74" style="stroke-width:1.07;stroke:#333333;stroke-linecap:butt"/>
      <text x="113.77" y="702.38" lengthAdjust="spacingAndGlyphs" style="font-size:8.80px;fill:#4D4D4D;font-family:&quot;Arial&quot;" text-anchor="middle" textLength="13.2">1 B</text>
      <text x="158.43" y="702.38" lengthAdjust="spacingAndGlyphs" style="font-size:8.80px;fill:#4D4D4D;font-family:&quot;Arial&quot;" text-anchor="middle" textLength="13.2">2 B</text>
      <text x="203.09" y="702.38" lengthAdjust="spacingAndGlyphs" style="font-size:8.80px;fill:#4D4D4D;font-family:&quot;Arial&quot;" text-anchor="middle" textLength="13.2">4 B</text>
      <text x="247.75" y="702.38" lengthAdjust="spacingAndGlyphs" style="font-size:8.80px;fill:#4D4D4D;font-family:&quot;Arial&quot;" text-anchor="middle" textLength="13.2">8 B</text>
      <text x="292.41" y="702.38" lengthAdjust="spacingAndGlyphs" style="font-size:8.80px;fill:#4D4D4D;font-family:&quot;Arial&quot;" text-anchor="middle" textLength="18.09">16 B</text>
      <text x="337.07" y="702.38" lengthAdjust="spacingAndGlyphs" style="font-size:8.80px;fill:#4D4D4D;font-family:&quot;Arial&quot;" text-anchor="middle" textLength="18.09">32 B</text>
      <text x="381.74" y="702.38" lengthAdjust="spacingAndGlyphs" style="font-size:8.80px;fill:#4D4D4D;font-family:&quot;Arial&quot;" text-anchor="middle" textLength="18.09">64 B</text>
      <text x="426.4" y="702.38" lengthAdjust="spacingAndGlyphs" style="font-size:8.80px;fill:#4D4D4D;font-family:&quot;Arial&quot;" text-anchor="middle" textLength="22.98">128 B</text>
      <text x="471.06" y="702.38" lengthAdjust="spacingAndGlyphs" style="font-size:8.80px;fill:#4D4D4D;font-family:&quot;Arial&quot;" text-anchor="middle" textLength="22.98">256 B</text>
      <text x="515.72" y="702.38" lengthAdjust="spacingAndGlyphs" style="font-size:8.80px;fill:#4D4D4D;font-family:&quot;Arial&quot;" text-anchor="middle" textLength="22.98">512 B</text>
      <text x="560.38" y="702.38" lengthAdjust="spacingAndGlyphs" style="font-size:8.80px;fill:#4D4D4D;font-family:&quot;Arial&quot;" text-anchor="middle" textLength="21.03">1 KiB</text>
      <text x="605.04" y="702.38" lengthAdjust="spacingAndGlyphs" style="font-size:8.80px;fill:#4D4D4D;font-family:&quot;Arial&quot;" text-anchor="middle" textLength="21.03">2 KiB</text>
      <text x="649.7" y="702.38" lengthAdjust="spacingAndGlyphs" style="font-size:8.80px;fill:#4D4D4D;font-family:&quot;Arial&quot;" text-anchor="middle" textLength="21.03">4 KiB</text>
      <text x="694.36" y="702.38" lengthAdjust="spacingAndGlyphs" style="font-size:8.80px;fill:#4D4D4D;font-family:&quot;Arial&quot;" text-anchor="middle" textLength="21.03">8 KiB</text>
      <text x="739.03" y="702.38" lengthAdjust="spacingAndGlyphs" style="font-size:8.80px;fill:#4D4D4D;font-family:&quot;Arial&quot;" text-anchor="middle" textLength="25.92">16 KiB</text>
      <text x="783.69" y="702.38" lengthAdjust="spacingAndGlyphs" style="font-size:8.80px;fill:#4D4D4D;font-family:&quot;Arial&quot;" text-anchor="middle" textLength="25.92">32 KiB</text>
      <text x="828.35" y="702.38" lengthAdjust="spacingAndGlyphs" style="font-size:8.80px;fill:#4D4D4D;font-family:&quot;Arial&quot;" text-anchor="middle" textLength="25.92">64 KiB</text>
      <text x="873.01" y="702.38" lengthAdjust="spacingAndGlyphs" style="font-size:8.80px;fill:#4D4D4D;font-family:&quot;Arial&quot;" text-anchor="middle" textLength="30.81">128 KiB</text>
      <text x="917.67" y="702.38" lengthAdjust="spacingAndGlyphs" style="font-size:8.80px;fill:#4D4D4D;font-family:&quot;Arial&quot;" text-anchor="middle" textLength="30.81">256 KiB</text>
      <text x="962.33" y="702.38" lengthAdjust="spacingAndGlyphs" style="font-size:8.80px;fill:#4D4D4D;font-family:&quot;Arial&quot;" text-anchor="middle" textLength="30.81">512 KiB</text>
      <text x="1006.99" y="702.38" lengthAdjust="spacingAndGlyphs" style="font-size:8.80px;fill:#4D4D4D;font-family:&quot;Arial&quot;" text-anchor="middle" textLength="22.48">1 MiB</text>
      <text x="1051.65" y="702.38" lengthAdjust="spacingAndGlyphs" style="font-size:8.80px;fill:#4D4D4D;font-family:&quot;Arial&quot;" text-anchor="middle" textLength="22.48">2 MiB</text>
      <text x="560.38" y="714.85" lengthAdjust="spacingAndGlyphs" style="font-size:11.00px;font-family:&quot;Arial&quot;" text-anchor="middle" textLength="56.28">Chunk Size</text>
      <text lengthAdjust="spacingAndGlyphs" style="font-size:11.00px;font-family:&quot;Arial&quot;" text-anchor="middle" textLength="56.31" transform="rotate(-90 187.195 176.485)">Throughput</text>
      <path d="M812.04 529.56h86.21v61.19h-86.21z" style="stroke-width:1.07;stroke:none;fill:#FFFFFF"/>
      <text x="817.52" y="544.08" lengthAdjust="spacingAndGlyphs" style="font-size:11.00px;font-family:&quot;Arial&quot;" textLength="75.25">Implementation</text>
      <path d="M817.52 550.72h17.28V568h-17.28z" style="stroke-width:1.07;stroke:none;fill:#EBEBEB"/>
      <circle cx="826.16" cy="559.36" r="1.95" style="stroke-width:0.71;stroke:#E41A1C;stroke-opacity:0.70;fill:#E41A1C;fill-opacity:0.70"/>
      <path d="M819.25 559.36h13.82" style="stroke-width:1.07;stroke:#E41A1C;stroke-opacity:0.30;stroke-linecap:butt"/>
      <path d="M817.52 568h17.28v17.28h-17.28z" style="stroke-width:1.07;stroke:none;fill:#EBEBEB"/>
      <circle cx="826.16" cy="576.64" r="1.95" style="stroke-width:0.71;stroke:#377EB8;stroke-opacity:0.70;fill:#377EB8;fill-opacity:0.70"/>
      <path d="M819.25 576.64h13.82" style="stroke-width:1.07;stroke:#377EB8;stroke-opacity:0.30;stroke-linecap:butt"/>
      <text x="840.28" y="562.51" lengthAdjust="spacingAndGlyphs" style="font-size:8.80px;font-family:&quot;Arial&quot;" textLength="18.09">Rust</text>
      <text x="840.28" y="579.79" lengthAdjust="spacingAndGlyphs" style="font-size:8.80px;font-family:&quot;Arial&quot;" textLength="6.36">C</text>
      <text x="69.11" y="28.41" lengthAdjust="spacingAndGlyphs" style="font-size:11.00px;font-family:&quot;Arial&quot;" textLength="120.5">aarch64 (Apple M1 Max)</text>
      <text x="69.11" y="12.28" lengthAdjust="spacingAndGlyphs" style="font-size:13.20px;font-family:&quot;Arial&quot;" textLength="417.78">[xxhash64] Throughput of a 1 MiB buffer by chunk size (higher is better)</text>
    </g>
  </g>
</svg>
